<?xml version="1.0" encoding="UTF-8"?>
<svg id="Layer_2" data-name="Layer 2" xmlns="http://www.w3.org/2000/svg" viewBox="0 0 3669.28 1252.09">
  <defs>
    <style>
      .cls-1 {
        fill: #272e02;
      }

      .cls-2 {
        fill: #121c0f;
      }
    </style>
  </defs>
  <g id="Layer_1-2" data-name="Layer 1">
    <rect class="cls-1" width="3669.28" height="1252.09"/>
    <path class="cls-2" d="M2635.6,996.87c64.21-21.2,104.53-45.97,143.54-102.07,17.26-24.82,25.33-47.43,60.3-48.95,26.39-1.14,67.35,7.47,94.41,12.01,20.7,3.47,34.28,10.18,55.81,4.31,5.27-1.44,13.91-4.48,10.68-11.19-4.44-2.02-8.69-5.5-13.07-7.41-13.66-5.95-46.64-6.04-63.22-8.15-16.19-2.06-32.45-4.94-48.62-7.31-25.09-3.67-51.76-4.41-74.45-16.87-2.67-5.1,14.18-8.81,17.29-9.41,15.81-3.05,34.53-.98,50.88-4.19,23.24-4.56,49.58-18.04,68.83-31.82,2.64-1.89,11.81-9.17,13-11.41,1.01-1.92,1.04-4.44-1.14-5.54-2.08-1.05-12.51-2.64-15.54-2.99-33.72-3.95-71.28,4.38-100.32,21.88-16.11,9.71-28.27,23.51-41.27,36.79-7.4-.51-9.13-11-7.11-17.05,2.42-7.25,14.79-17.42,20.99-22.48,10.85-8.87,23.07-16.03,33.95-24.76,33.53-26.89,61.25-68.09,77.65-107.52,2.82-6.79,10.58-25.03,11.35-31.22.68-5.37-3.6-8.16-8.06-5.74-27.58,18.59-56.3,35.34-80.05,58.8-35.43,35-58.04,87.15-67.88,135.73l3.74,17.23c-6.29,1.65-20.05-13.84-21.78-19.43-4.62-14.91-4.05-31.54-1.74-46.82,1.52-10.01,4.88-19.81,5.9-30.03,3.27-33-2.58-70.27-13.6-101.61-1.56-4.44-4.15-8.47-6.25-12.63-1.55.15-2.47.72-3.64,1.69-6.74,5.58-20.97,40.09-24.04,49.82-16.1,51.15,1.7,103.33,33.72,144.26l8.87,9.92c-.52.89-14.93-2.3-17.24-2.81-23.68-5.16-46.65-13.12-69.76-20.25-1.54-8.84-1.06-16.62-4.4-25.28-14.64-37.95-52.65-56.88-90.25-64.51-61.72-12.52-179.98,6.11-162.65,92.15,4.29,21.27,24.43,42.14,40.57,55.41,25.71,21.13,78.47,30.34,111.16,29.82,1.92-.03,4.37-1.56,5.72-.58-5.6,5.38-12.39,9.3-18.37,14.28-23.22,19.31-44.27,43.27-65.11,65.13-5.84,6.12-14.05,16.32-19.45,21.2-4.45,4.01-21.47,14.51-21.67,19.93-.05,1.43.46,2.93,1.02,4.23,5.24.28,10.5.21,15.75-.21,16.97-1.36,38.52-6.33,54.55-10.59,48.29-12.86,94.98-47.21,126.97-84.77,13.15-15.44,24.93-32.8,38.69-47.91,8.01-8.8,19.83-21.7,31.65-23.99,13.01-2.52,31.07-3.34,44.31-2.13,10.95,1,20.14,4.73,30.08,7.69,5.96,1.77,11.38,4.6,17.86,3.63.91,2.83,1.17,2.22-1.24,3.04-29.42,9.96-59.46,15.07-85.23,33.17-46.71,32.8-63.67,71.98-92.36,117.42-3.57,5.65-9.15,7.68-2.68,14.96,4.97.1,8.98-3.56,12.96-4.87ZM2981.65,850.6c.13.83.82,2.32.69,2.54-.73,1.29-8.16-1.03-7.42-2.08l6.73-.46ZM2972.95,848.86c.13.83.82,2.31.69,2.54-.54.98-4.35-.57-5.45.11-1.89-4.41,1.46-2.26,4.76-2.65ZM2867.28,767.96c-1.85-1.22,3.8-9.71,4.28-9.39,1.52,2.03-3.84,9.68-4.28,9.39ZM2817.73,792.42l10.26-5.44c31.83-10.82,64.86-17.08,96.62-27.72,1.78-.6,3.72-.81,4.69-2.7l1.31,2.37c-11.88,3.66-23.76,8.92-35.59,12.5-19.71,5.95-39.71,8.59-59.2,14.72-6.13,1.93-11.11,6.13-18.09,6.28ZM2842.69,728.05l.35,1.28-17.87,4.87-.35-1.28,17.87-4.87ZM2857.78,712.96c-3.24.4-5.43,3.54-7.97,4.7-1.95.89-3.82.4-4.9.85-3.52,1.46-7.04,2.96-10.33,4.88-1.69-3.76.45-2.3,2.5-3.39,3.94-2.09,7.42-2.87,11.03-4.5,2.59-1.17,4.94-3.23,7.34-4.43,2.36-1.18,1.75-.18,2.34,1.88ZM2867.76,699.28l.35,1.28c-6.63,2.36-14.6,3.22-21.06,5.74-.79.31-1.91,2.78-4.12,2.49-.52-.24.95-2.99,1.22-3.07l23.61-6.43ZM2872.61,690.74c-3.97,1.95-8.39,3.89-12.63,5.16-.8-1.5,1.82-2.73,2.85-3.21,4.27-2,9.5-3.81,13.98-5.47.77,1.67-2.94,2.9-4.2,3.52ZM2889,671.55c-4.05.58-24.63,15.96-25.99,15.31-1.21-2.66-.56-2.63,1.66-3.77,3.63-1.88,7.3-3.62,10.84-5.77,3.66-2.23,7.59-5.8,11.08-7.68,2.31-1.25,1.91-.02,2.41,1.92ZM2887.16,661.35l-6.64,4.28c1.6-5.64,9.55-9.33,14.5-12.17l-7.87,7.88ZM2902.22,644.64c-3.04,1.34-4.84,4.89-5.45.13,3.08-1.37,4.84-4.87,5.45-.13ZM2880.06,643.83c.49,2.74-1.06,7.09-3.01,9.04-.81-3.02.62-7.07,3.01-9.04ZM2861.27,665.4l2.89-14.49c.63,4.46.61,11.33-2.89,14.49ZM2855.01,657.52l-1.98,12.88-2.71.06c.6-3.55.92-6.18,2.11-9.62.66-1.9-.91-3.13,2.58-3.32ZM2844.33,668.65l.11,6.58-2.06,1.61c.55,2.1,1.23,4.16,1.77,6.26.67,2.63,1.88,3.44-1.69,3.87l-.68-17.63,2.54-.69ZM2832.28,685.96c.18-2.25-1.71-3.25,2.06-3.62.34,3.98-.35,8.01-.73,11.97-.17,1.75.96,3.97-1.47,5.08-.85-4.3-.22-9.07.14-13.43ZM2823.1,696.37c2.12-.91,2.06,2.6,2.49,4.11.53,1.91,1.04,3.84,1.56,5.75-2.05.53-2.63,1.59-2.78-1.04-.17-3.03.27-5.78-1.27-8.82ZM2817.17,704.84c1.11,3.64,2.54,9.48-.69,12.52l.69-12.52ZM2791.58,761.85c6.98-14.43,19.56-24.81,29.6-36.95,23.46-28.36,46.42-56.68,70.32-84.77l14.78-15.78-2.72,5.44-47.34,56.97c-9.28,11.17-17.91,22.84-27.46,33.86-1.94,2.24-6.84,5.48-7.85,6.82-6.31,8.37-13.1,16.16-20.12,24.59-1.81,2.17-5.83,8.87-7.13,9.93-.49.4-2.02.89-2.08-.11ZM2750.98,727.33l-5.57,9.74-1.64-.94,5.57-9.74,1.64.94ZM2748.84,690.55c1.8,1.11-4.79,14.57-5.8,13.91l3.21-10.6c.33-.85-.03-4.93,2.58-3.32ZM2746.06,680.34c1.26,3.98-3.87,6.39-2.68,10.33l-2.71.06c.07-1.61,4.43-10.98,5.39-10.38ZM2744.55,661.7c-.39,1.52-2.76,10.74-5.1,9.47l5.46-15.19c1.38,2.42.16,3.7-.35,5.72ZM2722.64,649.71c1.7-.75,3.29,2.74,3.72,3.85,1.03,2.65,1.47,5.52,2.3,8.22-5.14-.89-4.31-8.27-6.02-12.07ZM2716.74,679.8c1.14,1.84,1.91,3.93,3.23,5.66,2.44,3.17,6.26,5.81,8.1,9.38-7.57-2.6-11.58-11.02-14.48-17.99,1.72-.79,2.41,1.73,3.15,2.94ZM2714.28,694.49l10.06,9.71,3.38,4.44c-2.72,1.33-3.27-.47-4.74-2.07-3.05-3.3-7.07-7.97-8.71-12.08ZM2726.43,725.13c-3.95-5.03-9.3-9.64-10.88-15.9l14.49,17.98c-3.51,1.67-2.28-.4-3.61-2.08ZM2740.59,766c-.94-4.59-3.47-10.16-4.16-15.21-.78-5.61.07-12.06-.76-17.67-3.9-26.21-3.96-46.08-2.54-72.56.64-11.85,1.24-24.4,2.89-36.11.3-2.1-1.83-3.28,2.06-3.62l-3.27,61.15c-.32,17.02,1.81,33.63,3.42,50.44,1.36,14.19.4,27.95,5.95,41.65-5.08,2.33-3.1-5.67-3.59-8.07ZM2639.54,772.43c-4.16,10.96-.87,22.8,9.27,28.99-2.95,1.14-5.58-1.25-6.57-3.67l-3.41,2.28c3.21-4.99-2.6-8.7-3.62-13.31-.42-1.9.88-16.22,4.33-14.29ZM2626.51,806.69l8.32-7.95,1.66,1.74-8.32,7.95-1.66-1.74ZM2522.93,842.58c-3.59.67-8.51.12-12.08-.53-3.93-.71-10.53-2.62-14.02-4.69l8.55,1.05,17.54,4.16ZM2623.41,798.75c-2.92.43-8.01,4.99-10.55,1.52,3.59.37,7.98-5.3,10.55-1.52ZM2623.41,783.68c-14.94-1.95-30.06-2.19-45.07-3.15-1.47-.09-3.93.59-4.11-1.27l10.74-.89c10.34,1.15,20.73,1.44,31.1,2.13,1.33.09,2.66.42,3.96.7,2.12.46,3.11-.99,3.38,2.48ZM2629.99,782.63c2.04.48,3.14-1.12,3.39,2.44-1.8-.41-3.58-.68-5.42-.97-2.04-.32-3.29,1.86-3.62-2.05,1.95-.8,3.76.13,5.64.57ZM2567.61,785.18l.35,1.26-6.37,1.74-.69-2.55,6.72-.46ZM2469.11,816.12c-1.14,1.77-9.1-2.9-8.11-4.63,1.26-2.22,7.1,3.55,8.11,4.63ZM2572.14,786.67c-.94-2.02,2.79-2.31,4.14-2.52,2.58-.41,5.17-.16,7.75-.37l16.99,3.25c-9.36,1.53-19.21-2.55-28.88-.36ZM2580.91,791.11c5.32-.86,13.6-.09,19.35.07,1.85.05,3.98-.74,5.05,1.53l-28.54.92c-.94-2.02,2.79-2.31,4.14-2.52ZM2488.51,825.39l-.99,2.2-12.04-5.42.99-2.2,12.04,5.42ZM2615.52,789.94l.69,2.55-8,.8-.35-1.26,7.65-2.09ZM2596.48,797.72c3.68-.45,6.75-.5,10.5-1.31,2.6-.56,3.44-2.1,3.9,1.64l-7.94,1.44-10.79.24c.99-3,2.21-1.76,4.34-2.02ZM2631.6,791.05l1.33,2.37-8.59,3.71,7.26-6.08ZM2636.32,791.03l1.6,1.54-7.85,8.18-1.6-1.54,7.85-8.18ZM2620.4,777.64l-98.38-8.85-.06-2.71c7.03,1.88,14.73,2.5,22.02,2.95,18.32,1.11,36.56,2.08,54.92,3.81,6.75.63,15.93,1.19,21.49,4.8ZM2566.78,778.22c2.46-.03,3.24-1.46,3.61,2.08-2.65.21-6.98.77-8.69-1.73,1.73-.87,3.35-.33,5.09-.34ZM2560.42,778.9l-14.74,1.27c-.53-2.07-1.57-2.63,1.06-2.81,2.87-.19,6.61.08,9.56.26,1.47.09,3.93-.58,4.11,1.27ZM2539.88,779.02l-9.04-3.01c1.94-.85,3.72.11,5.64.57,2.03.49,3.14-1.14,3.4,2.44ZM2520.39,767.87l-8.01.81,1.24-3.11,6.76,2.3ZM2512.86,760.32l3.69-1.75c21.64-.33,43.52-.12,64.89,3.35,1.86.3,3.53,1.49,5.41,1.84,12.21,2.21,26.35,3.01,36.67,10.28l-19.48-4.55c-15.68-1.46-31.06-5.19-46.7-6.89-14.86-1.62-29.56-1.71-44.49-2.28ZM2476.34,704.44c46.65-15.95,109.65-10.73,148.35,21.41,4.35,3.61,13.94,14.57,17.41,15.71-3.04-5.25-9.79-12.8-14.46-17.11-2.54-2.34-6.28-4.52-9.07-6.76-1.32-1.06-7.24-5.08-6.62-6.31,6.85,3.67,15.18,9.83,20.87,15.31,2.14,2.06,12.94,13.8,12.17,15.45-.85.07-2.05-.3-2.89-.58,2.47,4.26,8.06,12.16,9.28,15.99.27.85.54,3.76-1.16,3.73-5.79-14.53-15.24-24.74-27.2-34.4-10.76-8.69-24.35-16.64-37.4-21.28-18.56-6.6-49.96-7.65-69.81-6.05-17.02,1.38-30.75,4.57-46.83,10.45-2.54.93-1.45.77-1.83-1.67,3.58-.22,6.13-2.87,9.18-3.91ZM2448.72,716.12l11.14-4.4c.79,1.66-1.73,2.49-2.91,3.17-2.1,1.2-6.65,4.4-8.23,1.24ZM2482.2,711.02c1.57-.54,2.97-2.09,4.83-2.68,18.03-5.69,45.03-5.96,63.97-4.34,32.17,2.75,61.67,15.71,84.39,38.96,7.13,7.3,10.79,14.48,14.94,23.79-2.47.22-2.9-1.98-3.88-3.57-2.5-4.07-3.95-8.74-6.78-12.64-.84-1.15-4.79-5.47-5.93-6.58-2.81-2.71-5.68-3.96-8.36-6.1-1.69-1.36-2.88-3.3-4.78-4.83-1.06-.85-3.98-2.76-2.56.7,8.09,6.83,18.18,16.1,23.12,25.53.65,1.24,2.5,4.15.14,4.47-7.47-11.37-16.09-22.5-27.43-30.22-42.98-29.25-102.33-23.74-149.94-9.23-2.73.83-4.77,4.5-7.32.67,2.28-.69,4.69-1.06,6.91-1.98,20.42-8.43,62.41-15.52,84.92-14.48,9.53.44,18.79,4.26,28.24,4.3-4.11-2.38-11.28-4.04-16.06-4.88-29.59-5.16-61.53-.59-90.09,7.75-.91-2.13,2.58-2.04,4.11-2.49,2.52-.74,5.06-1.29,7.56-2.14ZM2435.54,730.67c9.56-6.64,20.75-12.9,32.08-15.59l-35.85,19.35c-.69-1.82,2.45-2.85,3.77-3.76ZM2444.64,736.42c3.18.29,8.67-6.89,9.28-1.16l-7.96,3.53-1.32-2.37ZM2488.44,751.21c2.65-3.64,6.71-.72,9.03-.71,28.09.13,53.33-2.85,81.52,2.51,8.3,1.58,15.16,4.9,22.99,6.91,1.89.49,3.53,1.63,5.54.66-2.11-3.15-6.18-2.58-9.19-3.71-25.74-9.71-61.9-13.62-89.61-12.86-8.45.23-17.51.47-25.68,2.51.03-2.87,1.14-2.65,3.26-3.01,17.03-2.94,43.4-3.26,60.99-2.89,7.49.16,14.87,2.25,22.29,1.52l-20.47-4.69c-19.24-.59-37.94-2.45-57.02-.14-3.23.39-7.86,1.32-10.78,2.84-1.8-3.39,1.07-3.17,3.82-3.83,10.1-2.4,20.3-1.45,30.29-4.01l52.09,2.17-17.58-4.11c-19.62-1.16-41.67-3.63-61.2-.37-4.93.82-9.73,2.82-14.61,3.88,0-2.85,1.42-2.83,3.55-3.37,17.85-4.55,36.64-6.21,55.46-6.55,15.06-.27,30.04-2.51,44.95,2.41l22.15,7.43c-14.84-9.87-32.97-12.68-50.47-14.42-24.81,2.44-52.78,1.25-76.81,7.91-2.26.63-3.86,2.08-5.83,2.64-.67.19-5.35.83-5.29-.91,9.11-1.95,18.4-5.75,27.46-7.53,10.31-2.03,26.31-3.48,37.04-4.47,22.2-2.06,48.42.2,68.62,10,6.31,3.06,10.68,8.09,17.89,9.22,10.94,8.91,19.75,19.83,26.93,32.04-5.57-1.35-7.65-8.81-11.19-13.4-3.92-5.08-9.03-10.93-14.73-13.81l6.9,7.71c-1.21,1.98-8.36-3.46-10.03-4.11-1.3,2.91,4.85,4.64,7.25,6.22,2.06,1.35,5.83,3.35,7.14,4.39,3.39,2.68,7.65,9.01,9.21,13.13-3.49-.17-3.62-4.21-5.53-6.34-2.62-2.94-14.96-12.72-18.31-13.21-.63-.09-2.19.25-1.73,1.15,2.17,1.91,8.21,3.77,9.74,5.58,1.08,1.28.25,2.71-1.38,2.42-3.18-.57-10.02-5.18-13.51-6.52-1.23-.47-4.9-2.02-5.4.02,3.99,4.17,12.97,3.78,16.37,7.24.85.87.97,1.96,1.32,2.34,2.87-.7,7.32,1.53,8.12,4.64-4.25,1.26-6.12-2.44-8.12-4.64-.32.08-.82,1.26-1.68,1.38-1.39.19-3.96-2.98-4.87-.29l18.79,8.6c.46.89-1.11,1.24-1.73,1.15-1.95-.3-8.23-4.1-11.16-4.97-3.66-1.08-7.92-1.25-11.64-2.26-33.75-9.19-63.45-11.86-98.23-12.89-5.53-.16-11.42,1.79-16.9-.56ZM2511.23,759.4l-9.28,1.16,1.1-2.88,8.18,1.72ZM2427.83,775.28c2.15-.9,2.02,2.57,2.49,4.11,2.35,7.66,5.44,14.36,11.01,20.33l-2.36,1.32c-5.58-8.03-9.34-16.02-11.13-25.75ZM2427.09,796.34c-2.66-5.15-5.42-9.46-4.6-15.5l5.48,13.97c6.45,11.3,15.38,20.84,25.42,29.02l18.03,10.85c-17.66-5.33-35.86-21.97-44.33-38.35ZM2480.97,832.98l-11.81-6.59c-2.84-3.25-6.66-4.61-10.09-6.85-1.66-1.08-3.64-1.27-3.76-3.77,9.13,3.26,15.82,10.51,24.51,14.61,4,1.89,8.56,2.35,12.32,4.84-.64,2.4-2.96.27-4.25-.11-2.31-.67-4.6-1.48-6.91-2.13ZM2526.17,852.93c-16.17-3.87-34.15-5.29-48.25-14.53l46.28,12.32c12.2.79,24.36,1.75,36.59,2.02,2.24.05,3.36-2.22,3.78,1.8l-38.4-1.61ZM2648.12,813.97c-.48,3.04-3.24,6.33-6.27,7.18-.09-1.75,5.1-7.74,6.27-7.18ZM2577.8,842.71c-4.26,1.76-8.64,1.72-13.11,2.2l4.06-2.36,9.05.16ZM2587.67,838.66c.9,1.8-2.32,2.27-3.74,2.78-1.79.65-2.75,1.09-4.84.91l8.58-3.7ZM2646.08,831.7c9.86-9.46,18.41-21.29,20.61-35.14l48.88,13.42-13.27,4.25c-14.39,6.14-29.59,10.78-44.87,15.4-3.97,1.2-9.16,4.05-13.03,5.91-1.57-3.18.16-2.37,1.68-3.83ZM2629.91,845.04c-3.77,1.16-7.73,2.12-11.57,3.09-1.55.39-4.5,2.24-4.81-.06,5.43-2.86,11.13-4.12,16.92-5.94,1.82-.58,3.2-2.16,4.74-2.58,2.34-.64,9.24-1.19,11.68.12l-8.76,3.07c.08,0,.01.94,1.3.92.88-.02,10.16-1.49,7.74,2.1-.65.96-10.01-1.32-12.18.57-.12-1.43.82-2.93,2.13-3.42-2.75.49-3.45.98-7.21,2.14ZM2578.03,868.7l17.66-12.04c12.25-5.86,26.27-8.16,39.85-8.56,2.31-.07,3.11.23,3.39,2.65-15.49-1.14-29.95,3.28-44.08,9.27.17,1.95,2.79.92,4.35.85,7.2-.3,14.09-2.38,20.73-2.29,2.18.03,3.79-.31,1.88,2.32-3.99-.24-7.79,1.15-11.63,1.5-7.02.64-9.94.58-17.51,2.36-1.86.44-3.85-.25-5.4.17-2.58.7-5.7,3.91-9.25,3.76ZM2563.18,879.6c-1.5-3.45-.01-2.56,2.52-3.39,4.42-1.46,7.9-3.93,12.4-4.83,6.26-1.25,14.67-1.08,21.59-2.17,2.71-.43,5.77-3.37,8.84.77l-29.74,3.95-15.62,5.67ZM2554.37,887.5c3.89-2.63,8.33-4.05,12.98-4.82,8.02-1.33,21.5-1.42,30-1.52,2.35-.03,3.34-2.11,3.76,1.82l-30.51,1.55-16.23,2.97ZM2577.69,894.88c-2.16.34-4.09-.92-6.08-.82-7.04.36-13.86,2.07-20.91,2.56l-9.4,3.34c3.84-4.52,13.63-6.57,19.28-7.35,6.08-.84,13.45.87,18.11.38,2.33-.24,7.06-8.36,8.15-2.02-3.43.38-5.82,3.38-9.15,3.9ZM2534.29,909.41c-.91-2.14,2.58-2.03,4.11-2.48,6.51-1.92,10.67-2.08,17.32-2.02,1.89.02,3.93-1.12,5.14,1.37l-26.56,3.12ZM2528.42,920.61c-1.97.09-3.89,1.17-5.16-1.33,6.95-1.65,13.37-1.21,20.49-2.84,2.14-.49,3.87.16,2.59,2.03-.57.83-15.34,2.03-17.92,2.15ZM2515.25,935.16c-.89-2.04,4.23-2.74,5.44-2.91,2.02-.29,3.92-.88,5.12,1.4l-10.55,1.5ZM2493.09,949.42l-.07-2.71,8.65-.99c.91,2.09-2.64,2.12-4.12,2.49-1.5.37-2.98.84-4.47,1.21ZM2521.46,959.18l7.87-13.81,1.65.94-7.87,13.81-1.65-.94ZM2534.91,958.25l10.21-17.86,1.64.94-10.21,17.86-1.64-.94ZM2549.64,951.62l5.73-12.82,2.12.95-5.73,12.82-2.12-.95ZM2564.56,945.03c-2.06-1.35,3.48-8.96,4.03-10.28,2.16-5.14,3.88-10.64,5.91-15.86.7-1.79-.95-3.16,2.59-3.32.32,2.92-11.19,30.34-12.53,29.46ZM2579.68,932.68c.49-2.1,2.62-5.87,4.11-7.55l6.87-20.1c1.43,11.06-7.55,20.73-9.29,31.31-2.36.84-2.01-2.26-1.69-3.66ZM2593.51,925.5l7.09-25.04,3.29-7.27c1.57,2.59.05,3.72-.51,5.63-2.57,8.78-5.39,17.79-7.16,26.62l-2.71.06ZM2604.48,920.45l9.12-30.88,3.3-4.03c-4.9,11.29-4.91,24.99-12.42,34.91ZM2631.51,893.89c-.53-3.43-.34-8.06,2.66-10.32.37,3.11-.23,8.11-2.66,10.32ZM2623.39,895.17l-4.17,8.92,4.47-19.52,2.71-4.37-3.01,14.97ZM2654.16,857.45l-1.99,8.37-2.55-.61,1.99-8.37,2.55.61ZM2661.72,843.83c-46.69,31.51-87.5,72.39-136.73,100.68l-31.33,17.1c-.79-1.72,1.73-2.4,2.94-3.15,12.82-7.98,25.09-16.52,37.75-24.75,18.48-12.03,36.4-22.36,53.9-35.98,30.43-23.68,68.03-60.34,104.36-73.01,1.76-.61,1.65-3.33,2.59,1.1-11.36,4.43-23.37,11.19-33.5,18.02ZM2822.21,829.02c-3.89-.11-13.66-3.14-18.07-4.35-9.45-2.58-18.94-6.07-27.22-9.84-2.83-1.29-23.19-3.47-27.52-3.72-12.45-.74-24.72-7.96-36.27-10.07-9.89-1.81-20.41-5.16-30.97-8.19-8.52-2.44-22.11-5.13-29.65-8.25-1.83-.76-3.63-1.41-3.8-3.71l50.47,12.54c25.31,9.97,52.89,13.45,79.09,19.95,16.55,4.11,33.78,7.55,50.3,11.89,1.04.27,2.44.69,2.72,1.83-3.1-.21-6.39,1.99-9.08,1.91ZM2694.03,944.84l2.1.9-7.38,17.28-2.1-.9,7.38-17.28ZM2678.24,962.51l-2.1-.85,3.86-9.56,2.1.85-3.86,9.56ZM2709.85,933.84c-.03-3.9.63-7.58,3.78-10.22l-5.06,22.42-2.71,4.37,3.99-16.57ZM2719.55,945.3l3.35-16.94,3.73-12.41c.99,4.84-.91,10.64-2.07,15.51-1.08,4.54-1.87,10.53-5,13.83ZM2731.85,935.1l6.75-33.35,2.42-3.41c-.3,7.22-3.02,13.67-4.58,20.54-1.19,5.22-.27,12.21-4.59,16.22ZM2743.66,920.84c.33-3.34,1.82-7.13,2.23-10.58l4.99-15.99c.9,10.09-5.98,19.89-5.46,30.27-2.34.89-1.89-2.32-1.76-3.7ZM2759.62,901.96c-2.07,4.29-2.22,10-5.72,13.42l4.52-19.5,3.83-10.19-2.63,16.27ZM2769.8,893.23l1.04-11.25c.93,3.27,1.93,8.69-1.04,11.25ZM2810.65,836.86l26.53-5.9c34.41.99,69.47,5.04,103.41,11.35,5.38,1,14.59,2.31,19.27,3.99,1.18.42,2.2,1.19,3.29,1.79.46.91-1.03,1.18-1.73,1.14-8.37-.45-17.99-5.46-26.24-3.26l-31.72-5.61,7.94,4c-1.5,2.37-6.44.85-8.38-.41-1.97-1.28-3.57-4.52-4.25-4.82-.71-.31-8.9-.05-11.16-.26-21.55-1.99-43.53-8.35-66.6-2.24l-10.36.22ZM2718.75,876.98c8.24-2.53,17.57-3.76,26.2-3.36,2.35.11,3.24-1.6,3.61,2.08-5.43-.02-11.69-.01-17.06.63-4.13.5-9.59,4.45-12.75.64ZM2710.66,890.07c-2.68.94-9.35,6.93-9.89,1.4,10.6-1.97,22.09-7.27,32.54-8.87,1.17-.18,4.08,1.31,6.09-.28-.31,4.39-2.41,2.14-5.19,2.36-6.24.49-17.57,3.29-23.56,5.39ZM2691.01,904.79c9.52-6.83,20.07-7.78,31.34-9.6-.03,2.87-1.14,2.65-3.26,3.01-3.45.6-9.94.44-12.58,1.31-1.3.43-2.38,1.8-3.69,2.28-5.26,1.93-9.24,3.05-13.88,6.6-1.62-3.45.25-2.31,2.07-3.61ZM2687.77,914.2c-.91-2.14,2.58-2.03,4.11-2.49,7.07-2.09,14.36-2.8,21.06-5.73.12,2.5-1.77,3.09-3.69,3.8-6.72,2.49-14.7,1.6-21.48,4.41ZM2694.68,921.92c2.63-.65,3.44-1.92,3.87,1.68l-14.69,3.98-1.32-2.36c4.04-1.04,8.07-2.3,12.13-3.31ZM2675.24,928.6l6.03-3.02.7,2.54c-2.49.35-4.26,1.34-6.03,3.02l-.7-2.54ZM2670.71,942.15c-.8-1.49,1.85-2.76,2.85-3.21,2.57-1.15,5.23-1.8,7.94-2.46.8,1.73-3.14,2.65-4.58,3.3-2.03.92-3.8,2.18-6.21,2.37ZM2654.92,957.34c1.85-.68,2.23-2.71,4.7-.5l-8.76,3.06c-.91-2.05,2.44-1.97,4.06-2.56ZM2654.91,968.15c33.27-29.69,64.37-61.76,98.85-90.01,18.41-15.08,37.92-27.05,59.2-37.79.16,1.76-1.58,3.37-2.9,4.26-10.79,7.3-23.49,11.87-34.74,20-37.58,27.17-68.92,62.59-104.41,92.22l-20.4,16.88,4.4-5.56Z"/>
  </g>
</svg>