<?xml version="1.0" encoding="UTF-8"?>
<svg id="Layer_2" data-name="Layer 2" xmlns="http://www.w3.org/2000/svg" xmlns:xlink="http://www.w3.org/1999/xlink" viewBox="0 0 760.46 150">
  <defs>
    <style>
      .cls-1 {
        filter: url(#drop-shadow-1);
      }

      .cls-2 {
        fill: #979d1b;
      }

      .cls-3 {
        fill: #fff;
      }
    </style>
    <filter id="drop-shadow-1" x="-86.63" y="-86.57" width="950" height="339" filterUnits="userSpaceOnUse">
      <feOffset dx="7.82" dy="7.82"/>
      <feGaussianBlur result="blur" stdDeviation="31.26"/>
      <feFlood flood-color="#000" flood-opacity="1"/>
      <feComposite in2="blur" operator="in"/>
      <feComposite in="SourceGraphic"/>
    </filter>
  </defs>
  <g id="Layer_1-2" data-name="Layer 1">
    <g class="cls-1">
      <g>
        <path class="cls-2" d="M760.43,67.99c.07-.43.03-.85-.13-1.26-.38-.99-7.98-4.73-9.49-5.42-18.7-8.49-36.18-10.41-56.31-5.91-1.93.43-3.99,1.39-5.92,1.82-7.31,1.62-13.56,2.35-21.01,2.77-1.11.06-2.01-.49-2.96.23-.27-.92.34-1.11.93-1.56,6.06-4.59,20.59-6.77,28.25-9.03,16.43-4.85,32.08-14.74,42.65-28.3,1.63-2.1,4.98-6.48,5.71-8.82.25-.8.56-1.69.47-2.54-.37-1.03-3.43-.53-4.37-.33-4.18.87-10.14,3.09-14.31,4.54-10.56,3.67-21.04,8.45-30.01,15.16-15.39,11.52-23.87,26.41-43.85,31.6-7.86,2.04-16.44,2.25-24.54,4.01-4.05.88-8.03,2.12-12,3.3-.11-.61.95-.85,1.44-1.12,1.24-.69,2.46-1.2,3.69-2,4.51-2.93,7.68-5.54,12.75-7.99,10.02-4.85,19.62-8.11,28.58-15.09,11.2-8.72,21.97-21.26,27.05-34.7.85-2.25,1.94-5.05,1.11-7.34-2.33-.04-4.53.94-6.66,1.8-17.61,7.09-31.98,17.85-43.32,32.9-8.46,11.23-14.38,24.02-26.76,31.96-7.6,4.88-15.92,6.95-24.48,9.38-.34-1.18.19-.8.81-1.21,5.36-3.5,11.55-7.71,16.75-11.45,14.86-10.69,26.42-29.27,25.81-48.13-.01-.32-.7-3.24-.81-3.53-.74-1.85-3.84.95-4.84,1.78-5.44,4.5-14.89,16.86-18.64,23.05-8.89,14.67-11.48,30.99-26.63,41.45-.95.66-1.97,1.26-3.01,1.83l-.85,3.9c14.84-6.16,30.25-11.04,46.13-14.81,1.8-.43,3.52-1.41,5.42-1.33l.19-.97.45-.04c.04.25-.03.7.11.85.27.3,5.15-1.21,6.07-1.39,5.99-1.14,13.12-2.22,19.16-3.01,4.25-.56,9.01-.84,13.32-1.12.55-.04,1.68-.49,1.64.32-4.8.56-9.65.99-14.39,1.76-26.71,4.34-53.36,10.83-78.44,21.19l-.9,4.12c2.19.14,4.38.82,6.57,2.27,3.44,2.29,5.87,6.11,8.61,8.99,6.36,6.69,13.35,12.87,21.4,17.56,2.4,1.4,5.23,3.52,8.03,2.8.59-3.14-.04-6.23-.86-9.27-3.35-12.37-17.61-23.73-30.43-24.53-1.96-.12-4.59.34-6.41.29-1.18-.03-2.34-.24-3.5-.41-1.01-.72,2.46-2.24,2.9-2.45,4.15-1.96,12.1-5.08,16.53-5.17,7.67-.17,15.98,1.43,22.26,5.94,7.93,5.7,15.1,14.14,22.76,20.5,12.95,10.76,27.33,17.96,43.84,22.28,1.35.35,6.83,2.08,6.59-.2-.11-1.1-3.08-6.73-3.84-8.1-10.58-19.03-30.21-33.39-51.48-37.96-6.34-1.36-12.79-1.64-19.16-2.54-4.64-.65-8.95-2.16-13.7-1.95-.77.03-1.34-.33-.76-.86,2.75-.33,5.34-1.62,8-2.41,7.1-2.1,17.55-4.66,24.86-5.24,7.55-.6,21.44,2.05,27.97,6,8.4,5.07,16.11,12.69,24.53,17.99,15.07,9.48,34.55,14.61,52.39,14.06,2.12-.06,5.92.07,6.96-1.75-.02-.79-6.8-6.3-7.93-7.21-19.07-15.3-40.63-23.12-64.63-27.43-6.72-1.21-13.55-1.47-20.22-2.8-1.04-.21-2.8-.36-3.34-1.34,1.87-.4,3.78-.64,5.67-.97,17.27-3.05,23.67-2.19,40.21,2.4,19.19,5.32,33.35,9.54,53.5,3.76,2.6-.75,5.17-2.19,7.92-2.61l.95-.94ZM693.62,78.09c-1.89-.81-4.23.12-6.24.07-.15-.61,1.19-1,1.56-1.06,1.2-.18,3.34.66,4.83.06l-.15.93ZM697.9,80.86c-1.92.57-4.05.98-6.04,1.08.57-1.61,2.9-1.04,4.3-1.27,1-.17,1.86-.81,2.93-.72.17.58-.77.79-1.18.92ZM703.37,81.43l-6.98,1.99-.78-.87c2.59-.46,5.1-1.11,7.76-1.12ZM710.84,84.95c-3.1-1.17-6.55-.39-9.72-.09-.53.05-1.7.46-1.64-.33,3.72-1.18,7.68-1.15,11.51-.51l-.15.93ZM716.76,86.76c-1.01-.39-2.57.68-2.94.71l-7.57.64-.04-.46c.68.19,1.27-.53,1.57-.6,2.71-.59,6.15-.26,8.95-.76l.04.46ZM720.48,89.68l-8.26.7c-.27.02-2.52-.87-2.18-1.2.67-.31,1.04.35,1.19.36,3.06.13,6.73-.86,9.87-.84.06.29-.53.97-.61.98ZM725.15,92.98c-1.96.12-3.85-.43-5.8-.45-.9-.01-1.32.56-1.23-.8,1.92.5,3.67.15,5.69.57.49.1,1.39.02,1.34.68ZM732.42,96.99c-2.45-.6-5.04-.59-7.5-.98-.83-.13-1.09-.1-.99-1.07,2.28.48,4.57.65,6.85,1.22.61.15,1.41-.03,1.64.83ZM721.42,99.42l.43-.5,3.23,2.73-.43.5-3.23-2.73ZM714.09,97.51l.42-.51,2.24,1.88-.42.51-2.24-1.88ZM707.5,94.98c-.63-.64-1.25-1.23-1.77-1.97l.89-.3c.24,1.26,1.68,1.82,2.11,3.05-1.19.39-.8-.33-1.24-.78ZM701.47,91.75l1.27,1.27,2.41,3.96c-1.91-1-2.94-3.32-3.67-5.23ZM696.98,90.86l.7-.39,2.49,4.5-.7.39-2.49-4.5ZM690.89,86.87l.89-.3c-.09.89,2.91,4.13,2.69,4.39-1.16.36-.8-.23-1.24-.78-.87-1.07-1.51-2.23-2.34-3.31ZM684.59,83.48l1.19,3.13c-.72-.11-1.19-.97-1.43-1.58-.16-.41-.57-1.61.24-1.55ZM680.27,81.53c1.2.55,2.04,2.26,2.14,3.52-1.05-.59-1.99-2.36-2.14-3.52ZM662.7,70.54c3.13,1.05,6.29,2.12,9.38,3.28,11.83,4.45,22.78,10.59,34.57,15.09,9.53,5.12,19.62,8.96,29.75,12.71.57.21,1.39.09,1.58.91-.8.24-1.35-.14-2.04-.35-2.74-.87-5.54-1.87-8.25-2.84-16.42-5.85-31.91-13.98-47.74-21.19-5.1-2.32-10.84-4.93-16.13-6.66-.71-.23-1.24.42-1.11-.93ZM652.1,89.93l-6.68-1.17-4.78-.4c.54-.89,2.03-.49,2.92-.43,2.91.2,5.77.95,8.69,1.06l-.15.93ZM659.63,94.37c-2.39-.1-5.35-.54-7.53-1.45-.7-.29-1.13.14-1-1.06,2.26,1.07,4.8,1.22,7.2,1.82.5.12,1.38.05,1.33.69ZM665.57,98.96l-8-1.37-2.37-.98c2.53.05,5.4.41,7.84,1.05.88.23,2.12.36,2.52,1.3ZM670.29,102.71c-2.12-.11-4.3-.52-6.34-1.07l-4.3-1.71c2.33-.26,4.16,1.24,6.5,1.64,1.51.26,3.23.37,4.75.18.1.74.32,1.02-.6.97ZM675.03,106.94c-2.82-.57-5.7-.46-8.44-1.38-.34-.11-1.76-.27-1.01-1.05.16-.17,2.96.82,3.67.95,1.97.35,4.58-.12,5.77,1.49ZM677.75,111.79c-1.92-1.31-4.48-1.07-6.51-2.13-.66-.34-1.29-.42-1.18-1.38,1.95,1.2,4.41,1.29,6.52,2.12.69.27,1.26.51,1.17,1.39ZM681.39,114.93l-.33.74-3.01-1.36.33-.74,3.01,1.36ZM669.72,115.09c-.81-.25-3.3-2.63-1.15-2.52.51,2.2,3.22,3.23,3.26,5.73l-2.11-3.22ZM665.87,114.51l-2.66-5.18c1.03.42,1.63,1.81,2.17,2.73.8,1.38,1.8,3.21,2.16,4.76l-1.67-2.31ZM657.91,106.77l.89-.3c.71,1.44,1.24,3.04,2,4.45.79,1.46,2,2.81,2.45,4.42-2.73-2.08-3.21-6-5.34-8.56ZM655.83,109.49c1.85-.17,1.69,2.42,2.61,3.47-1.16.33-.81-.16-1.21-.81-.54-.86-.92-1.78-1.39-2.67ZM654.39,106.39c-.18-.46-.85-1.84.09-1.87.16,1.72,1.48,2.98,2.23,4.43-.73.9-2.18-2.23-2.31-2.56ZM649.24,102.65c1.01.55,1.63,2.16,2.21,3.19.75,1.33,1.51,2.9,2.12,4.3-1.27.33-.78-.22-1.11-.94-1.05-2.29-2.58-4.21-3.22-6.55ZM635.67,92.8l.71-.32,1.37,3.05-.71.32-1.37-3.05ZM633.01,91.09l1.65,3.09c-1.35.34-.76-.26-1.04-1.02-.25-.68-.62-1.33-.6-2.08ZM618.77,81.2l7.96,2.93c1.4.67,2.68,1.57,4.08,2.24,13.02,6.27,25.74,13.76,37.27,22.21,2.58,1.89,5.44,3.89,8.06,5.87,1.86,1.41,4.6,3.63,6.21,5.26.34.34,1.29.81.58,1.34-1.55-1.18-2.92-2.62-4.48-3.78-12.77-9.47-28.42-19.72-42.34-27.59-3.14-1.77-7.17-3.76-10.45-5.29-2.24-1.04-5.06-1.57-6.89-3.19ZM598.93,92.59c-.74.08-1.3-.27-2.08-.31-1-.04-2.49.74-3.08-.64,1.6.23,3.98-.64,5.16.95ZM603.37,95.91l-5.16-.94c1.48-.57,4.13-.34,5.16.94ZM604.03,98.17c-1-.38-2.06-.44-3.11-.63-.8-.14-1.28.51-1.17-.86,1.39.58,4.12-.58,4.28,1.49ZM607.97,101.06l-3.83-1.52c1.37-.07,3.13.2,3.83,1.52ZM610.04,103.66c-.91-.13-2.24-.75-3.04-1.2-.49-.27-1.15-.64-1.33-1.2.91.12,2.24.75,3.04,1.2.49.27,1.15.64,1.33,1.2ZM613.18,108.02c-1.44-.17-3.08-1.28-3.9-2.44,1.44.17,3.08,1.28,3.9,2.44ZM602.83,105.66c-.04-.64-.12-1.24-.38-1.84-.55-1.29-2.2-1.6-2.36-3.01,3.66,2.47,6.34,5.91,5.98,10.59l-.99-2.11c-.34-1.39-.3-4.72-2.26-3.62ZM599.75,102.23c2.02,1.12,1.4,3.98,2.34,5.81-1.33.31-.83-.2-.99-1.08-.3-1.63-.89-3.15-1.34-4.73ZM596.68,98.79c2.73.14,1.93,2.6,1.76,4.47-1.15,0-.18-1.85-.3-2.45-.13-.66-1.6-1.87-1.46-2.02ZM591.25,94.63v2.77c-.88-.48-.58-1.06-.65-1.81-.07-.77-.82-.96.65-.96ZM585.32,90.04c3.4,1.34,6.95,3.05,10.09,4.96,6.51,3.95,11.58,10.24,16.13,16.23.79,1.04,1.86,2.43,2.23,3.67-1.94-1.13-2.97-3.44-4.4-5.16-1.01-1.22-2.26-2.74-3.39-4.05-5.47-6.35-11.99-11.22-19.66-14.6-.67-.3-1.14.18-1.01-1.05ZM601.29,54.95c.36-1.4-.37-3.85.98-4.7.14,1.18-.17,2.26-.19,3.47-.01.9.56,1.32-.8,1.24ZM607.17,47.98l-1.26-4.05c1.62.54.97,2.75,1.26,4.05ZM609.18,39.03c.05.99.22,1.99.26,2.99.03.75-.29,1.32-.86.76-.14-.66-.08-1.3-.05-1.96.02-.41.04-1.86.65-1.79ZM611.14,40.25c-.09-1.3-.25-2.6-.33-3.9-.06-.94-.44-1.3.82-1.22.04.73-.34,1.37-.32,2.11.02.86,1.09,2.58-.17,3.01ZM614.33,34.63l-.67,2.63-.18-2.49.67-2.63.18,2.49ZM621.71,37.42l-3.53,2.12-.44-.73,3.53-2.12.44.73ZM616.07,43.99c.38-1.25,1.87-1.87,3.06-2.1-.43,1.06-2,1.85-3.06,2.1ZM612.37,49.39c.05-.72.78-.94,1.29-1.26,1.09-.67,2.35-1.52,3.53-1.92-.96,1.63-3.12,2.51-4.81,3.18ZM610.77,52.3l3.55-1.69c-.23.81-1.43,1.48-2.13,1.82-.44.21-1.43.74-1.42-.13ZM596.18,65.55c4.4-5.58,8.96-10.64,12.92-16.58,5.04-7.56,10.04-16.72,13.82-24.98.25-.54.35-1.3,1.04-1.47l-2.55,7.01c-6.29,11.8-12.56,24.01-22.08,33.44l-3.16,2.58ZM638.35,43.84c-.23.7.42,1.24-.93,1.11.25-1.56.57-3.76,1.9-4.78-.02,1.25-.58,2.49-.97,3.67ZM643.2,36.84c-.5.31-1.56,6.12-2.8,5.09l1.87-5.24.93.15ZM647.99,27.88l-2.06,6.14c-.83.7-.42,2.7-1.82,2.51,1.04-2.34,1.79-4.84,2.85-7.18.24-.54.35-1.3,1.04-1.47ZM651.36,29.45l-.63,2.24-2.19,2.62c.56-1.62,1.82-3,1.91-4.78l.91-.08ZM656.83,21.92c-1.18,2.4-1.58,5.28-2.45,7.74-.2.56-.37,1.3-1.03,1.47l.83-3.77,2.82-7.63-.18,2.19ZM659.27,24.61l1.11-4.82.68-1.34c.04,2.01-.14,4.76-1.78,6.16ZM666.23,14.08l-3.06,7.42c.02-2.66,1.67-5.03,2.13-7.58l.93.15ZM669.38,13.13l-1.9,4.78c-.18-1.34.56-2.47.97-3.67.24-.69-.42-1.24.93-1.11ZM678.72,14.19l2.68-1.15c-.19.91-2.83,3.27-2.68,1.15ZM676.12,16.25c-.32-.21,1.75-1.8,2.14-2.03.64.64-1.38,2.18-2.14,2.03ZM675.93,19.26l-5.76,3.04c-.36-1.31.29-.76.94-1.1,1.89-1.02,3.73-2.16,5.63-3.15l-.81,1.21ZM670.92,25.71c-2.26,1-4.91,1.4-6.94,2.66l-.3-.89,8.98-3.07c.06.58-1.29,1.11-1.73,1.3ZM668.18,30.21c-2.98,1.34-6.09,1.43-9.17,2.28,1.05-1.91,3.98-1.44,5.6-1.88,1.44-.39,2.76-1.33,4.31-1.48l1.71-1.32c.88.77-2.05,2.22-2.45,2.4ZM659.5,35.44c-.61.17-2.56,2.14-2.55,0l9.94-2.69c.16.64-.74.71-1.21.9-1.01.4-2.1.86-3.12,1.2-1.03.35-2.23.35-3.07.59ZM651.29,41.14c-.63.11-.91.56-1.3-.49l9.02-2.61c.16.64-.72.68-1.19.91-1.96.91-4.4,1.81-6.53,2.2ZM640.52,48.85c.2-1.84,3.38-1.79,3.88-2.29.12-.12.03-.53.08-.75,1.98.78,3.92-.6,5.86-1.02.3,1.19-.11.83-.93,1.11-1.89.65-4.08.67-5.91,1.42-1.07.44-1.83,1.4-2.98,1.53ZM626.38,56.52c2.27-2.48,5.15-4.34,7.74-6.46.51-.42.82-1.05,1.31-1.45,12.1-9.94,23.72-19.15,35.11-30.03,3.05-2.91,6.03-6.02,8.94-9.08.48-.5.66-1.17,1.53-1.05-1.78,2.35-3.61,4.82-5.65,6.95-6.46,6.75-13.69,12.93-20.33,19.49l-28.64,21.64ZM684.94,40.62l-1.51,3.39-.65-.29,1.51-3.39.65.29ZM690.24,38.61c-.62.3-2.25,4.73-3.11,3.98l3.42-6.29c-.12-.55.51-1.52,1.04-1.01.38.36-1.28,2.65-1.36,3.33ZM696.38,31.64l-3.85,9.11c-.47-.05-.94-.31-.79-.87.3-1.08,1.39-2.4,1.89-3.53.43-.98.58-2.01,1.04-2.96.35-.74.7-1.83,1.71-1.75ZM700.26,30.13l-2.83,5.29-.71-.38,2.83-5.29.71.38ZM707.76,24.2c-2.4,2.62-3.06,6.44-5.72,8.8l3.37-6.74,2.35-2.06ZM708.51,30.61c-.3.62.22,1.16-1.04,1.01l4.73-9.64c-.45,3.07-2.32,5.87-3.68,8.63ZM717.21,20.88l-3.67,6.06.48-1.94,3.45-6.25-.26,2.12ZM721.68,19.33c-1.2,1.53-2.01,3.28-3.03,4.92-.35.57.13,1.14-1.09.97-.2-.17,2.06-4.14,2.39-4.59.44-.6.88-1.37,1.74-1.3ZM729.66,15.41l-4.69,4.56c.1-1.78,2.12-3.02,3.21-4.13.16-.17.06-.62.14-.69.27-.2,1.43-.51,1.34.26ZM728.18,24.96c-1.78.49-3.69.61-5.46,1.21.1-.95.89-.84,1.52-1.06,1.71-.61,3.44-.83,5.25-.89.18.7-.78.6-1.31.75ZM724.08,29.66c-1.8.61-4.16.92-6.05,1.07l2.88-1.23c1.67-.5,3.44-.35,4.72-1.73.27.99-.78,1.63-1.55,1.89ZM721.52,32.61c-1.85.73-3.03.69-4.84,1.03-.89.17-3.67,1.74-3.51-.19,3.32.05,6.35-1.12,9.56-1.73.16.64-.74.71-1.21.89ZM712.75,36.68c-.75.05-1.42.51-1.89.54-1.58.09-3.51-.35-5.22.11-.14-.7,1.51-.75,2.03-.83,3.13-.53,6.84.35,9.82-1.09.23,2.17-3.45,1.19-4.74,1.28ZM707.36,41.34l.39-.95-7.39.16c.91-1.72,3.52-.41,4.8-.39,1.93.04,3.92-.34,5.71-.96l-2.12,1.22c-.03,1.03-.41.9-1.4.92ZM697.19,44.05c-.75.03-1.32-.29-.76-.86l2.95-.22,3.09.63c-1.75.09-3.52.39-5.28.45ZM690.2,46.03c1.55.43,2.85.19,4.4.09.55-.04,1.68-.48,1.64.32-1.6.11-3.21.31-4.82.41-.94.06-1.3.44-1.22-.82ZM672.23,52.17c4.7-1.1,8.76-4.43,12.97-6.74,14.26-7.85,29.07-15.17,42.16-24.93l6.55-4.06-1.27,1.08.51.83c-10.35,6.12-20.13,13.52-30.71,19.48-6.64,3.74-13.65,7.01-20.49,10.41-2.94,1.46-5.87,3.73-9.02,4.75-.87.28-.65-.12-.71-.81ZM738,66.78l.37-.75,7.23,3.54-.37.75-7.23-3.54ZM729.89,67.16c.98-.4,6.1,3.41,5.86,3.66-.78.08-1.72-.57-2.36-.98-1.13-.74-2.42-1.82-3.49-2.67ZM725.45,69.14c-1.58-1.66-4.11-2.01-5.43-3.91l7.43,4.07,1.33,1.19-3.33-1.35ZM714.72,65.55l.44-.7,9.22,5.75-.44.7-9.22-5.75ZM711.14,66.73l.44-.66,3.54,2.34-.44.66-3.54-2.34ZM707.33,64.1l.43-.5,3.23,2.73-.43.5-3.23-2.73ZM705.86,56.26l-3.74,2.6-.74-.84,4.47-1.77ZM718.88,55.95c-2.38.94-4.83,1.87-7.28,2.59.06-.77.82-.91,1.39-1.17,2.15-.97,4.83-1.61,7.1-2.32.16.64-.74.71-1.21.9ZM726.21,56.38c-.31,1.36-1.83.93-2.8,1.26-1.73.58-3.5,1.4-5.23,2-.79.27-1.12.2-1.45-.61l9.48-2.65ZM730.3,58.33c-2.03.62-4.09,1.18-6.08,1.91,1.43-2.36,4.79-2.08,7.15-2.91.34,1.39-.29.76-1.07,1ZM735.47,60.58c-1.28.31-2.69.36-4.02.44-.56.03-1.68.49-1.64-.32l6.84-1.04c.18.56-.81.83-1.18.92ZM742.02,63.39l-3.22-.18.05-.95,3.22.18-.05.95ZM750.66,66.78c-6.14-.23-12.22-1.44-18.33-2.26-12.87-1.71-28.61-3.58-41.69-3.66-1.08,0-2.12,1.31-1.99-.38.84-.02,1.7-.23,2.54-.23,8.82.06,17.02.65,25.75,1.32,10.34.8,20.58,2.7,30.87,4.28l2.84.92Z"/>
        <path class="cls-2" d="M.99,68.93c2.75.41,5.32,1.86,7.92,2.61,20.15,5.78,34.31,1.56,53.5-3.76,16.55-4.58,22.94-5.45,40.21-2.4,1.89.33,3.79.57,5.67.97-.54.98-2.31,1.13-3.34,1.34-6.67,1.33-13.51,1.59-20.22,2.8-24,4.32-45.56,12.13-64.63,27.43-1.13.91-7.91,6.42-7.93,7.21,1.04,1.82,4.85,1.69,6.96,1.75,17.84.54,37.32-4.58,52.39-14.06,8.42-5.29,16.13-12.91,24.53-17.99,6.53-3.94,20.42-6.6,27.97-6,7.31.58,17.77,3.14,24.86,5.24,2.66.79,5.25,2.08,8,2.41.57.53.01.89-.76.86-4.75-.21-9.06,1.3-13.7,1.95-6.38.9-12.82,1.18-19.16,2.54-21.27,4.57-40.91,18.93-51.48,37.96-.76,1.38-3.73,7-3.84,8.1-.24,2.29,5.23.56,6.59.2,16.51-4.32,30.89-11.52,43.84-22.28,7.66-6.37,14.82-14.8,22.76-20.5,6.27-4.51,14.59-6.1,22.26-5.94,4.43.1,12.38,3.21,16.53,5.17.44.21,3.91,1.72,2.9,2.45-1.16.17-2.33.38-3.5.41-1.82.04-4.46-.42-6.41-.29-12.83.8-27.08,12.16-30.43,24.53-.82,3.04-1.46,6.14-.86,9.27,2.8.72,5.63-1.4,8.03-2.8,8.05-4.69,15.04-10.88,21.4-17.56,2.74-2.88,5.17-6.7,8.61-8.99,2.18-1.45,4.38-2.12,6.57-2.27l-.9-4.12c-25.08-10.36-51.73-16.85-78.44-21.19-4.74-.77-9.59-1.2-14.39-1.76-.04-.81,1.09-.36,1.64-.32,4.31.28,9.07.56,13.32,1.12,6.04.79,13.17,1.87,19.16,3.01.92.17,5.8,1.69,6.07,1.39.14-.16.07-.6.11-.85l.45.04.19.97c1.91-.09,3.63.9,5.42,1.33,15.89,3.77,31.3,8.65,46.13,14.81l-.85-3.9c-1.05-.57-2.06-1.18-3.01-1.83-15.15-10.46-17.74-26.77-26.63-41.45-3.75-6.19-13.2-18.55-18.64-23.05-1-.83-4.09-3.62-4.84-1.78-.12.3-.8,3.21-.81,3.53-.62,18.86,10.95,37.44,25.81,48.13,5.2,3.74,11.39,7.95,16.75,11.45.62.4,1.15.03.81,1.21-8.56-2.44-16.88-4.5-24.48-9.38-12.38-7.94-18.3-20.73-26.76-31.96-11.34-15.05-25.71-25.81-43.32-32.9C76.86.94,74.67-.04,72.33,0c-.83,2.29.26,5.09,1.11,7.34,5.08,13.44,15.84,25.98,27.05,34.7,8.96,6.97,18.56,10.24,28.58,15.09,5.06,2.45,8.23,5.06,12.75,7.99,1.23.8,2.45,1.31,3.69,2,.49.27,1.55.51,1.44,1.12-3.97-1.18-7.95-2.42-12-3.3-8.1-1.75-16.69-1.96-24.54-4.01-19.98-5.19-28.46-20.08-43.85-31.6-8.97-6.71-19.45-11.49-30.01-15.16-4.18-1.45-10.13-3.68-14.31-4.54-.94-.19-4-.7-4.37.33-.09.85.22,1.74.47,2.54.73,2.34,4.07,6.72,5.71,8.82,10.56,13.57,26.21,23.45,42.65,28.3,7.65,2.26,22.19,4.44,28.25,9.03.59.45,1.2.63.93,1.56-.95-.72-1.85-.17-2.96-.23-7.45-.42-13.7-1.14-21.01-2.77-1.93-.43-3.99-1.39-5.92-1.82-20.13-4.5-37.62-2.58-56.31,5.91-1.52.69-9.11,4.44-9.49,5.42-.16.41-.2.83-.13,1.26l.95.94ZM66.7,77.16c1.49.6,3.63-.24,4.83-.06.36.05,1.71.45,1.56,1.06-2.01.05-4.34-.88-6.24-.07l-.15-.93ZM61.38,79.94c1.06-.09,1.93.55,2.93.72,1.39.24,3.73-.34,4.3,1.27-1.99-.1-4.12-.51-6.04-1.08-.41-.12-1.35-.33-1.18-.92ZM64.86,82.55l-.78.87-6.98-1.99c2.66,0,5.17.66,7.76,1.12ZM49.48,84.02c3.83-.64,7.79-.67,11.51.51.05.79-1.11.38-1.64.33-3.17-.3-6.62-1.08-9.72.09l-.15-.93ZM43.74,86.3c2.8.5,6.23.17,8.95.76.29.06.88.78,1.57.6l-.04.46-7.57-.64c-.37-.03-1.93-1.1-2.94-.71l.04-.46ZM39.37,88.71c3.14-.02,6.81.97,9.87.84.14,0,.52-.67,1.19-.36.34.33-1.92,1.22-2.18,1.2l-8.26-.7c-.08,0-.67-.68-.61-.98ZM36.66,92.3c2.03-.43,3.78-.08,5.69-.57.08,1.36-.33.79-1.23.8-1.95.02-3.85.57-5.8.45-.05-.66.85-.57,1.34-.68ZM29.68,96.15c2.28-.56,4.57-.73,6.85-1.22.1.97-.16.94-.99,1.07-2.46.39-5.05.38-7.5.98.23-.87,1.02-.68,1.64-.83ZM35.81,102.16l-.43-.5,3.23-2.73.43.5-3.23,2.73ZM44.13,99.39l-.42-.51,2.24-1.88.42.51-2.24,1.88ZM51.72,95.76c.43-1.23,1.87-1.79,2.11-3.05l.89.3c-.52.74-1.14,1.33-1.77,1.97-.44.45-.05,1.17-1.24.78ZM55.31,96.99l2.41-3.96,1.27-1.27c-.74,1.91-1.76,4.24-3.67,5.23ZM60.99,95.36l-.7-.39,2.49-4.5.7.39-2.49,4.5ZM67.23,90.18c-.44.54-.08,1.13-1.24.78-.22-.26,2.78-3.5,2.69-4.39l.89.3c-.83,1.08-1.47,2.24-2.34,3.31ZM76.11,85.03c-.24.61-.71,1.47-1.43,1.58l1.19-3.13c.81-.06.41,1.14.24,1.55ZM78.05,85.05c.11-1.26.94-2.97,2.14-3.52-.16,1.16-1.1,2.93-2.14,3.52ZM96.65,71.48c-5.29,1.73-11.03,4.34-16.13,6.66-15.82,7.21-31.32,15.34-47.74,21.19-2.71.97-5.51,1.97-8.25,2.84-.69.22-1.24.59-2.04.35.19-.82,1.01-.7,1.58-.91,10.14-3.75,20.22-7.59,29.75-12.71,11.78-4.5,22.74-10.64,34.57-15.09,3.09-1.16,6.25-2.23,9.38-3.28.13,1.35-.4.7-1.11.93ZM108.22,88.99c2.92-.11,5.78-.86,8.69-1.06.89-.06,2.38-.46,2.92.43l-4.78.4-6.68,1.17-.15-.93ZM102.16,93.68c2.4-.6,4.94-.75,7.2-1.82.13,1.21-.3.77-1,1.06-2.18.91-5.14,1.35-7.53,1.45-.05-.65.83-.57,1.33-.69ZM97.42,97.65c2.44-.64,5.32-1,7.84-1.05l-2.37.98-8,1.37c.4-.95,1.65-1.07,2.52-1.3ZM89.57,101.74c1.52.19,3.24.08,4.75-.18,2.34-.4,4.17-1.9,6.5-1.64l-4.3,1.71c-2.04.56-4.22.96-6.34,1.07-.92.05-.7-.22-.6-.97ZM91.21,105.45c.72-.13,3.51-1.12,3.67-.95.75.78-.67.93-1.01,1.05-2.74.92-5.62.81-8.44,1.38,1.19-1.6,3.8-1.14,5.77-1.49ZM83.89,110.4c2.1-.83,4.57-.92,6.52-2.12.11.96-.52,1.04-1.18,1.38-2.03,1.06-4.59.82-6.51,2.13-.09-.87.48-1.11,1.17-1.39ZM82.09,113.57l.33.74-3.01,1.36-.33-.74,3.01-1.36ZM88.63,118.3c.04-2.51,2.75-3.53,3.26-5.73,2.15-.11-.34,2.26-1.15,2.52l-2.11,3.22ZM92.92,116.82c.36-1.55,1.36-3.38,2.16-4.76.53-.92,1.14-2.32,2.17-2.73l-2.66,5.18-1.67,2.31ZM97.21,115.33c.45-1.61,1.66-2.95,2.45-4.42.76-1.41,1.29-3.02,2-4.45l.89.3c-2.14,2.56-2.61,6.49-5.34,8.56ZM103.24,112.16c-.4.65-.05,1.13-1.21.81.91-1.05.76-3.64,2.61-3.47-.47.89-.85,1.81-1.39,2.67ZM103.75,108.95c.75-1.45,2.07-2.71,2.23-4.43.93.03.27,1.42.09,1.87-.13.33-1.58,3.46-2.31,2.56ZM108,109.21c-.33.72.17,1.27-1.11.94.61-1.4,1.37-2.97,2.12-4.3.58-1.03,1.19-2.64,2.21-3.19-.64,2.35-2.17,4.27-3.22,6.55ZM123.42,95.85l-.71-.32,1.37-3.05.71.32-1.37,3.05ZM126.85,93.16c-.28.75.31,1.35-1.04,1.02l1.65-3.09c.01.75-.35,1.4-.6,2.08ZM134.8,84.4c-3.28,1.53-7.31,3.52-10.45,5.29-13.92,7.87-29.57,18.12-42.34,27.59-1.56,1.16-2.94,2.6-4.48,3.78-.71-.53.24-1,.58-1.34,1.62-1.63,4.35-3.86,6.21-5.26,2.62-1.98,5.48-3.98,8.06-5.87,11.53-8.46,24.25-15.95,37.27-22.21,1.39-.67,2.68-1.57,4.08-2.24l7.96-2.93c-1.83,1.63-4.65,2.15-6.89,3.19ZM166.69,91.64c-.6,1.38-2.08.59-3.08.64-.78.03-1.34.39-2.08.31,1.18-1.58,3.56-.71,5.16-.95ZM162.25,94.96l-5.16.94c1.04-1.29,3.68-1.51,5.16-.94ZM160.72,96.68c.1,1.37-.37.72-1.17.86-1.05.18-2.11.25-3.11.63.16-2.07,2.89-.9,4.28-1.49ZM156.32,99.54l-3.83,1.52c.7-1.32,2.45-1.59,3.83-1.52ZM151.75,102.46c.8-.44,2.13-1.07,3.04-1.2-.18.57-.83.93-1.33,1.2-.8.44-2.13,1.07-3.04,1.2.18-.57.83-.93,1.33-1.2ZM151.18,105.58c-.82,1.16-2.46,2.27-3.9,2.44.82-1.16,2.46-2.27,3.9-2.44ZM155.38,109.28l-.99,2.11c-.37-4.67,2.32-8.11,5.98-10.59-.16,1.42-1.81,1.72-2.36,3.01-.26.6-.33,1.2-.38,1.84-1.96-1.1-1.92,2.23-2.26,3.62ZM159.37,106.95c-.16.89.33,1.39-.99,1.08.94-1.83.32-4.69,2.34-5.81-.45,1.58-1.05,3.1-1.34,4.73ZM162.31,100.81c-.12.6.85,2.45-.3,2.45-.16-1.87-.96-4.33,1.76-4.47.13.15-1.33,1.36-1.46,2.02ZM169.86,95.58c-.07.75.23,1.33-.65,1.81v-2.77c1.47,0,.72.18.65.96ZM174.14,91.1c-7.67,3.37-14.19,8.25-19.66,14.6-1.12,1.3-2.37,2.83-3.39,4.05-1.43,1.72-2.45,4.04-4.4,5.16.37-1.24,1.44-2.63,2.23-3.67,4.55-5.99,9.63-12.28,16.13-16.23,3.13-1.9,6.69-3.61,10.09-4.96.14,1.23-.33.76-1.01,1.05ZM158.37,53.71c-.01-1.21-.33-2.28-.19-3.47,1.36.85.63,3.3.98,4.7-1.36.08-.79-.34-.8-1.24ZM154.56,43.93l-1.26,4.05c.29-1.3-.36-3.51,1.26-4.05ZM151.93,40.82c.03.66.09,1.3-.05,1.96-.57.57-.89,0-.86-.76.04-1,.2-2,.26-2.99.61-.08.63,1.38.65,1.79ZM149.16,37.23c.02-.74-.36-1.38-.32-2.11,1.26-.08.88.28.82,1.22-.08,1.3-.24,2.61-.33,3.9-1.26-.43-.19-2.15-.17-3.01ZM146.32,32.14l.67,2.63-.18,2.49-.67-2.63.18-2.49ZM139.18,36.7l3.53,2.12-.44.73-3.53-2.12.44-.73ZM141.33,41.88c1.19.24,2.68.85,3.06,2.1-1.06-.25-2.63-1.04-3.06-2.1ZM143.27,46.21c1.18.4,2.44,1.25,3.53,1.92.51.31,1.23.53,1.29,1.26-1.7-.66-3.85-1.54-4.81-3.18ZM148.27,52.43c-.71-.33-1.9-1.01-2.13-1.82l3.55,1.69c0,.87-.98.34-1.42.13ZM161.13,62.97c-9.52-9.43-15.79-21.64-22.08-33.44l-2.55-7.01c.69.17.79.93,1.04,1.47,3.78,8.26,8.78,17.43,13.82,24.98,3.96,5.94,8.52,10.99,12.92,16.58l-3.16-2.58ZM121.14,40.17c1.33,1.03,1.66,3.22,1.9,4.78-1.35.13-.7-.41-.93-1.11-.39-1.18-.95-2.42-.97-3.67ZM118.19,36.69l1.87,5.24c-1.25,1.03-2.3-4.78-2.8-5.09l.93-.15ZM113.51,29.35c1.06,2.34,1.81,4.84,2.85,7.18-1.4.19-1-1.81-1.82-2.51l-2.06-6.14c.69.17.79.93,1.04,1.47ZM110.02,29.52c.09,1.78,1.35,3.16,1.91,4.78l-2.19-2.62-.63-2.24.91.08ZM103.46,19.72l2.82,7.63.83,3.77c-.66-.17-.83-.91-1.03-1.47-.86-2.46-1.26-5.34-2.45-7.74l-.18-2.19ZM99.41,18.46l.68,1.34,1.11,4.82c-1.64-1.4-1.83-4.15-1.78-6.16ZM95.16,13.93c.46,2.55,2.11,4.92,2.13,7.58l-3.06-7.42.93-.15ZM92.01,14.24c.41,1.2,1.16,2.33.97,3.67l-1.9-4.78c1.35-.13.7.42.93,1.11ZM79.07,13.03l2.68,1.15c.15,2.11-2.49-.24-2.68-1.15ZM82.2,14.22c.38.23,2.45,1.81,2.14,2.03-.76.15-2.77-1.39-2.14-2.03ZM83.73,18.05c1.91.98,3.74,2.13,5.63,3.15.65.35,1.29-.21.94,1.1l-5.76-3.04-.81-1.21ZM87.81,24.41l8.98,3.07-.3.89c-2.03-1.27-4.69-1.67-6.94-2.66-.45-.2-1.79-.73-1.73-1.3ZM89.83,27.81l1.71,1.32c1.55.15,2.87,1.09,4.31,1.48,1.62.44,4.54-.03,5.6,1.88-3.08-.85-6.19-.94-9.17-2.28-.4-.18-3.33-1.64-2.45-2.4ZM97.9,34.85c-1.02-.35-2.11-.8-3.12-1.2-.46-.18-1.37-.26-1.21-.9l9.94,2.69c0,2.13-1.94.17-2.55,0-.84-.24-2.04-.24-3.07-.59ZM102.64,38.95c-.47-.22-1.36-.27-1.19-.91l9.02,2.61c-.39,1.04-.67.6-1.3.49-2.13-.38-4.56-1.28-6.53-2.2ZM116.96,47.32c-1.83-.75-4.02-.77-5.91-1.42-.82-.28-1.23.07-.93-1.11,1.94.42,3.88,1.8,5.86,1.02.05.22-.04.63.08.75.51.5,3.68.45,3.88,2.29-1.15-.13-1.91-1.1-2.98-1.53ZM105.44,34.88c-6.64-6.56-13.87-12.73-20.33-19.49-2.04-2.13-3.87-4.6-5.65-6.95.87-.11,1.05.55,1.53,1.05,2.91,3.06,5.89,6.16,8.94,9.08,11.39,10.88,23.01,20.09,35.11,30.03.49.4.8,1.03,1.31,1.45,2.59,2.12,5.47,3.98,7.74,6.46l-28.64-21.64ZM76.17,40.33l1.51,3.39-.65.29-1.51-3.39.65-.29ZM68.86,35.28c.54-.5,1.17.46,1.04,1.01l3.42,6.29c-.86.74-2.48-3.69-3.11-3.98-.08-.68-1.74-2.97-1.36-3.33ZM65.8,33.39c.45.95.6,1.98,1.04,2.96.5,1.13,1.59,2.44,1.89,3.53.15.56-.31.82-.79.87l-3.85-9.11c1.02-.08,1.37,1.01,1.71,1.75ZM60.92,29.74l2.83,5.29-.71.38-2.83-5.29.71-.38ZM55.05,26.27l3.37,6.74c-2.67-2.36-3.32-6.18-5.72-8.8l2.35,2.06ZM48.27,21.98l4.73,9.64c-1.27.15-.74-.4-1.04-1.01-1.36-2.76-3.23-5.56-3.68-8.63ZM42.99,18.76l3.45,6.25.48,1.94-3.67-6.06-.26-2.12ZM40.52,20.63c.32.45,2.58,4.42,2.39,4.59-1.22.17-.74-.41-1.09-.97-1.02-1.64-1.83-3.38-3.03-4.92.85-.07,1.3.7,1.74,1.3ZM32.14,15.15c.08.06-.02.52.14.69,1.09,1.12,3.11,2.36,3.21,4.13l-4.69-4.56c-.09-.76,1.08-.46,1.34-.26ZM30.98,24.21c1.82.06,3.54.28,5.25.89.62.22,1.41.11,1.52,1.06-1.77-.59-3.68-.72-5.46-1.21-.52-.14-1.49-.05-1.31-.75ZM34.83,27.77c1.28,1.38,3.05,1.22,4.72,1.73l2.88,1.23c-1.9-.15-4.25-.46-6.05-1.07-.77-.26-1.82-.89-1.55-1.89ZM37.73,31.72c3.21.62,6.24,1.78,9.56,1.73.16,1.93-2.62.36-3.51.19-1.81-.35-2.99-.3-4.84-1.03-.46-.18-1.37-.25-1.21-.89ZM42.97,35.39c2.98,1.45,6.7.57,9.82,1.09.52.09,2.17.14,2.03.83-1.71-.46-3.64-.01-5.22-.11-.46-.03-1.14-.49-1.89-.54-1.29-.09-4.97.89-4.74-1.28ZM51.7,40.41l-2.12-1.22c1.79.62,3.79,1,5.71.96,1.28-.02,3.9-1.33,4.8.39l-7.39-.16.39.95c-.99-.03-1.37.11-1.4-.92ZM57.99,43.6l3.09-.63,2.95.22c.56.57,0,.89-.76.86-1.76-.06-3.53-.36-5.28-.45ZM69.04,46.85c-1.61-.1-3.22-.3-4.82-.41-.04-.8,1.09-.36,1.64-.32,1.55.1,2.85.34,4.4-.09.08,1.26-.28.88-1.22.82ZM87.52,52.98c-3.15-1.02-6.08-3.29-9.02-4.75-6.83-3.4-13.84-6.67-20.49-10.41-10.58-5.95-20.36-13.36-30.71-19.48l.51-.83-1.27-1.08,6.55,4.06c13.1,9.76,27.9,17.08,42.16,24.93,4.2,2.31,8.26,5.64,12.97,6.74-.05.69.16,1.09-.71.81ZM15.23,70.32l-.37-.75,7.23-3.54.37.75-7.23,3.54ZM27.08,69.84c-.64.42-1.58,1.07-2.36.98-.24-.25,4.87-4.05,5.86-3.66-1.08.86-2.36,1.94-3.49,2.67ZM31.67,70.49l1.33-1.19,7.43-4.07c-1.32,1.9-3.85,2.25-5.43,3.91l-3.33,1.35ZM36.52,71.3l-.44-.7,9.22-5.75.44.7-9.22,5.75ZM45.78,69.06l-.44-.66,3.54-2.34.44.66-3.54,2.34ZM49.9,66.84l-.43-.5,3.23-2.73.43.5-3.23,2.73ZM59.08,58.02l-.74.84-3.74-2.6,4.47,1.77ZM40.38,55.05c2.27.7,4.95,1.35,7.1,2.32.57.26,1.33.4,1.39,1.17-2.45-.73-4.9-1.65-7.28-2.59-.46-.18-1.37-.26-1.21-.9ZM43.74,59.03c-.33.81-.67.88-1.45.61-1.73-.6-3.5-1.42-5.23-2-.97-.33-2.49.1-2.8-1.26l9.48,2.65ZM29.09,57.33c2.36.83,5.71.55,7.15,2.91-1.99-.73-4.05-1.29-6.08-1.91-.78-.24-1.4.38-1.07-1ZM23.81,59.66l6.84,1.04c.04.81-1.09.36-1.64.32-1.33-.08-2.74-.14-4.02-.44-.37-.09-1.36-.36-1.18-.92ZM18.39,62.44l3.22-.18.05.95-3.22.18-.05-.95ZM12.65,65.86c10.3-1.59,20.53-3.49,30.87-4.28,8.73-.67,16.94-1.26,25.75-1.32.84,0,1.7.21,2.54.23.13,1.69-.91.37-1.99.38-13.08.08-28.81,1.95-41.69,3.66-6.11.81-12.19,2.03-18.33,2.26l2.84-.92Z"/>
      </g>
      <g>
        <path class="cls-3" d="M262.17,4.53c1.19-.32,2.35-.26,3.46.18,1.11.44,2.11,1.07,2.99,1.91.88.84,1.57,1.79,2.09,2.87.52,1.07.78,2.09.78,3.04,0,.48-.14,1.16-.42,2.03-.28.88-.64,1.77-1.08,2.69-.44.92-.86,1.75-1.25,2.51-.4.76-.72,1.21-.96,1.37-.56.56-1.13.94-1.73,1.13-.6.2-1.18.32-1.73.36-.56.04-1.12.1-1.67.18-.56.08-1.07.28-1.55.6-.64.24-1.43.46-2.39.66-.96.2-1.91.48-2.87.84-.96.36-1.89.86-2.81,1.49-.92.64-1.65,1.55-2.21,2.75-.24.88-.64,2.51-1.19,4.9-.56,2.39-1.12,4.86-1.67,7.4-.64,3.03-1.31,6.33-2.03,9.91,0,.88.22,1.55.66,2.03.44.48.97.88,1.61,1.19.64.32,1.31.52,2.03.6.72.08,1.35.12,1.91.12h3.7c.24,0,.54.08.9.24.36.16.73.32,1.13.48.4.24.84.44,1.31.6v2.39c0,.24-.18.66-.54,1.25s-.8,1.19-1.31,1.79c-.52.6-1.04,1.12-1.55,1.55-.52.44-.94.66-1.25.66h-5.61c-2.31,0-3.84.36-4.6,1.08-.76.72-1.13,1.91-1.13,3.58-.16.48-.32.92-.48,1.31-.16.4-.28.78-.36,1.13-.08.36-.12.66-.12.9,0,2.79-.16,5.39-.48,7.82-.32,2.43-.48,4.16-.48,5.2,0,.32-.1,1.09-.3,2.33-.2,1.24-.44,2.59-.72,4.06-.28,1.47-.52,2.89-.72,4.24-.2,1.36-.3,2.31-.3,2.87l-.36,5.73c0,.24-.06.68-.18,1.31-.12.64-.24,1.31-.36,2.03-.12.72-.22,1.41-.3,2.09-.08.68-.12,1.17-.12,1.49,0,1.35-.06,2.41-.18,3.16-.12.76-.28,1.37-.48,1.85-.2.48-.36.9-.48,1.25-.12.36-.18.82-.18,1.37,0,.32-.14,1.02-.42,2.09-.28,1.08-.6,2.25-.96,3.52-.36,1.27-.76,2.51-1.19,3.7-.44,1.19-.82,2.07-1.13,2.63-.96,1.19-1.75,2.25-2.39,3.16-.64.91-1.27,2.29-1.91,4.12-.48.24-1.29.9-2.45,1.97-1.16,1.08-2.41,2.21-3.76,3.4-1.36,1.19-2.69,2.27-4,3.22-1.31.95-2.45,1.43-3.4,1.43-.88,0-1.57.06-2.09.18-.52.12-1.02.28-1.49.48-.48.2-.93.36-1.37.48-.44.12-1.02.18-1.73.18h-.96c-.48,0-.9-.04-1.25-.12-.36-.08-.62-.04-.78.12-.32.16-.66.26-1.02.3-.36.04-.78.06-1.25.06-.4,0-1-.04-1.79-.12-.8-.08-1.61-.16-2.45-.24-.84-.08-1.61-.16-2.33-.24-.72-.08-1.19-.12-1.43-.12-.32,0-.96-.1-1.91-.3-.95-.2-1.93-.52-2.93-.96-.99-.44-1.87-.96-2.63-1.55-.76-.6-1.13-1.33-1.13-2.21,0-.24.18-.7.54-1.37.36-.68.78-1.41,1.25-2.21.48-.8.96-1.55,1.43-2.27.48-.72.84-1.19,1.07-1.43,0-.32.34-.82,1.02-1.49.68-.68,1.49-1.33,2.45-1.97.95-.64,1.95-1.21,2.99-1.73,1.04-.52,1.87-.78,2.51-.78h2.03c.16.16.4.36.72.6.16.16.38.34.66.54.28.2.5.38.66.54l2.99.96c.56.16,1.07.28,1.55.36.4.16.84.26,1.31.3.48.04.84.06,1.08.06h2.63c1.67,0,3.13-.38,4.36-1.13,1.24-.76,2.45-1.81,3.64-3.16.4-.08.84-.8,1.31-2.15.48-1.35.99-2.99,1.55-4.9.56-1.91,1.09-4,1.61-6.27.52-2.27.99-4.42,1.43-6.45.44-2.03.78-3.8,1.02-5.31.24-1.51.36-2.47.36-2.87v-2.27c0-.16.08-.84.24-2.03.16-1.19.38-2.65.66-4.36.28-1.71.6-3.6.96-5.67.36-2.07.7-4.1,1.02-6.09.32-1.99.64-3.82.95-5.49.32-1.67.6-2.99.84-3.94,0-.56.04-1.17.12-1.85.08-.68.2-1.29.36-1.85.16-.64.32-1.27.48-1.91,0-1.03-.46-1.79-1.37-2.27-.92-.48-1.95-.84-3.1-1.07-1.16-.24-2.19-.52-3.11-.84-.92-.32-1.37-.91-1.37-1.79,0-.56.06-1.13.18-1.73.12-.6.5-1.13,1.13-1.61.48-.56,1.15-.93,2.03-1.13.88-.2,1.75-.36,2.63-.48.87-.12,1.69-.34,2.45-.66.76-.32,1.29-.88,1.61-1.67.32-.4.64-1.15.95-2.27.32-1.11.6-2.43.84-3.94.24-1.51.48-3.14.72-4.9.24-1.75.44-3.4.6-4.96.16-1.55.28-2.94.36-4.18.08-1.23.12-2.13.12-2.69.4-.64.84-1.49,1.31-2.57.48-1.07.72-2.09.72-3.04s.24-1.93.72-2.93c.48-1,1.05-1.97,1.73-2.93.68-.96,1.39-1.83,2.15-2.63.76-.79,1.45-1.43,2.09-1.91,1.11-1.11,2.03-2.15,2.75-3.1.72-.96,1.67-1.99,2.87-3.11.56-.24,1.07-.58,1.55-1.01.48-.44.97-.85,1.49-1.25.52-.4,1.08-.74,1.67-1.02.6-.28,1.33-.42,2.21-.42h2.03Z"/>
        <path class="cls-3" d="M298.71,5.49c2.31,0,3.76.72,4.36,2.15.6,1.43.9,3.07.9,4.9v2.27c0,1.12-.36,2.31-1.07,3.58-.72,1.27-1.59,2.45-2.63,3.52-1.04,1.07-2.13,1.99-3.28,2.75-1.15.76-2.13,1.13-2.93,1.13-1.04,0-1.91-.16-2.63-.48-.72-.32-1.39-.48-2.03-.48-1.67,0-3.4.52-5.19,1.55-1.79,1.04-2.93,2.71-3.4,5.02-.64,1.19-.94,2.25-.9,3.16.04.92-.1,1.85-.42,2.81-.72,1.67-1.45,3.84-2.21,6.51-.76,2.67-1.13,5.16-1.13,7.46,0,.24-.06.64-.18,1.19-.12.56-.26,1.16-.42,1.79-.16.72-.32,1.47-.48,2.27v3.7l-1.67,9.67c.16,1.12.14,2.41-.06,3.88-.2,1.47-.5,3.16-.9,5.08-.4,1.91-.8,3.98-1.19,6.21-.4,2.23-.68,4.58-.84,7.05,0,.48.1,1.25.3,2.33.2,1.07.58,1.61,1.13,1.61.72,0,1.49-.24,2.33-.72.84-.48,1.65-1.07,2.45-1.79.79-.72,1.61-1.47,2.45-2.27.84-.79,1.61-1.51,2.33-2.15,1.51-1.51,3.06-2.88,4.66-4.12,1.59-1.23,3.14-1.85,4.66-1.85l.72.95c0,.88-.24,1.89-.72,3.05-.48,1.16-1.08,2.33-1.79,3.52-.72,1.19-1.51,2.31-2.39,3.34-.88,1.04-1.71,1.83-2.51,2.39-1.59,1.12-2.89,2.47-3.88,4.06-1,1.59-2.33,3.22-4,4.9-.56,1.19-1.41,2.17-2.57,2.93-1.16.76-2.29,1.45-3.4,2.09-1.19.48-2.65,1.09-4.36,1.85-1.71.76-3.16,1.14-4.36,1.14-.88,0-1.49-.14-1.85-.42-.36-.28-.58-.7-.66-1.25-.08-.56-.06-1.27.06-2.15.12-.88.18-1.95.18-3.22v-7.64c0-1.11.22-2.23.66-3.34.44-1.11.66-2.19.66-3.22v-2.39c0,.64.08.34.24-.9.16-1.23.36-3.06.6-5.49.24-2.43.44-5.31.6-8.66.16-3.34.24-6.85.24-10.51,0-.48.22-1.17.66-2.09.44-.91.66-1.65.66-2.21v-4.3c.48-2.31.84-4.58,1.08-6.81.24-2.23.48-4.42.72-6.57s.56-4.32.96-6.51c.4-2.19,1.03-4.4,1.91-6.63.64-2.15,1.67-4.22,3.11-6.21,1.43-1.99,2.71-4.14,3.82-6.45.56-1.03,1.17-1.99,1.85-2.87.68-.88,1.53-1.59,2.57-2.15,1.11-1.83,2.65-3.28,4.6-4.36,1.95-1.07,3.84-1.61,5.67-1.61h8.96Z"/>
        <path class="cls-3" d="M327.5,52.3c1.67,0,2.87.48,3.58,1.43.72.96,1.07,2.27,1.07,3.94,0,.32-.12,1.01-.36,2.09-.24,1.07-.54,2.27-.9,3.58-.36,1.31-.74,2.65-1.13,4-.4,1.35-.72,2.43-.96,3.22,0,.64-.04,1.29-.12,1.97-.08.68-.36,1.57-.84,2.69-.64.48-.96,1.25-.96,2.33v2.33l-.36,6.33v4.66c0,.24.02.66.06,1.25.04.6.12,1.19.24,1.79.12.6.34,1.12.66,1.55.32.44.76.66,1.31.66l1.67-2.63c.48-.4,1.03-.9,1.67-1.49.64-.6,1.27-1.17,1.91-1.73.72-.64,1.43-1.31,2.15-2.03.48,0,.87.2,1.19.6.32.4.48.84.48,1.31l-.48.96c-.32.64-.64,1.12-.95,1.43-.56,1.59-1.27,2.97-2.15,4.12-.88,1.15-1.83,2.27-2.87,3.34-1.04,1.08-2.09,2.17-3.16,3.28-1.08,1.12-2.09,2.39-3.05,3.82l-2.63,3.7c0,.72-.22,1.45-.66,2.21-.44.76-.96,1.35-1.55,1.79-.6.44-1.23.64-1.91.6-.68-.04-1.21-.5-1.61-1.37-.48-1.43-.72-2.85-.72-4.24s.12-2.75.36-4.06c.24-1.31.48-2.57.72-3.76.24-1.19.36-2.35.36-3.46v-6.69c0-.4-.28-.68-.84-.84-.32-.08-.6-.12-.84-.12s-.84.7-1.79,2.09c-.96,1.39-2.05,2.99-3.28,4.78-1.24,1.79-2.49,3.6-3.76,5.43-1.27,1.83-2.31,3.15-3.11,3.94-.24.32-.62.78-1.13,1.37-.52.6-1.07,1.18-1.67,1.73s-1.25,1.05-1.97,1.49c-.72.44-1.36.66-1.91.66-1.12,0-2.03-.4-2.75-1.19-.72-.8-1.28-1.73-1.67-2.81-.4-1.07-.7-2.15-.9-3.22-.2-1.07-.3-1.85-.3-2.33l-.36-8.6,1.67-13.97c0-.24.12-.79.36-1.67.24-.87.56-1.83.95-2.87.4-1.03.85-2.05,1.37-3.04.52-.99,1.05-1.81,1.61-2.45,2.31-2.15,4.54-4.78,6.69-7.88,1.03-1.43,2.03-2.47,2.99-3.11.96-.64,1.91-1.13,2.87-1.49.96-.36,1.91-.64,2.87-.84.95-.2,2.03-.62,3.22-1.25.48,0,1.09-.26,1.85-.78.76-.52,1.45-1.01,2.09-1.49h5.37l2.27-1.07ZM312.21,65.56c-1.43,1.19-2.79,2.57-4.06,4.12-1.27,1.55-2.39,3.13-3.34,4.72-.96,1.59-1.71,3.09-2.27,4.48-.56,1.39-.84,2.49-.84,3.28,0,.4-.04,1.13-.12,2.21-.08,1.07-.04,2.19.12,3.34.16,1.16.46,2.19.9,3.11.44.92,1.21,1.37,2.33,1.37,1.03,0,2.25-.91,3.64-2.75,1.39-1.83,2.71-3.9,3.94-6.21,1.23-2.31,2.27-4.46,3.11-6.45.84-1.99,1.25-3.18,1.25-3.58,0-.32.04-1.09.12-2.33.08-1.23.02-2.43-.18-3.58-.2-1.15-.64-1.99-1.31-2.51-.68-.52-1.77-.26-3.28.78Z"/>
        <path class="cls-3" d="M356.76,66.99c.32,1.35.66,2.49,1.01,3.4.36.92.68,1.79.96,2.63.28.84.52,1.71.72,2.63.2.92.3,2.01.3,3.28l.72,5.25c0,1.19.06,2.09.18,2.69.12.6.26,1.13.42,1.61.16.4.34,1,.54,1.79.2.8.46,1.19.78,1.19.4,0,.8-.4,1.19-1.19.4-.8.8-1.27,1.19-1.43.48-.48,1.15-1.03,2.03-1.67.88-.64,1.31-1.39,1.31-2.27,0-1.03.44-2.05,1.31-3.05.88-.99,1.31-1.77,1.31-2.33,0-1.11-.06-2.09-.18-2.93-.12-.84-.18-2.05-.18-3.64,0-.48-.18-1.03-.54-1.67-.36-.64-.78-1.25-1.25-1.85-.48-.6-.9-1.21-1.25-1.85-.36-.64-.54-1.19-.54-1.67,0-1.03.1-1.77.3-2.21.2-.44.46-.79.78-1.07.32-.28.68-.62,1.07-1.02s.76-1.15,1.07-2.27c.4-1.67,1.11-2.96,2.15-3.88,1.03-.91,2.31-1.97,3.82-3.16,1.19.56,1.93,1.1,2.21,1.61.28.52.66,1.1,1.13,1.73,1.19,1.51,1.99,2.79,2.39,3.82.4,1.04.6,2.31.6,3.82v4.66c0,.4.06.72.18.95.12.24.18.92.18,2.03,0,1.51-.2,2.91-.6,4.18-.4,1.27-1.07,2.75-2.03,4.42,0,.48-.06.8-.18.96-.12.16-.24.28-.36.36-.12.08-.24.2-.36.36-.12.16-.18.48-.18.96-.48.56-.88,1.08-1.19,1.55-.32.4-.58.84-.78,1.31-.2.48-.3.88-.3,1.19,0,.24-.18.56-.54.96-.36.4-.74.86-1.13,1.37-.4.52-.78,1.06-1.13,1.61-.36.56-.54,1.12-.54,1.67-.88,1.12-1.65,2.03-2.33,2.75-.68.72-1.33,1.41-1.97,2.09-.64.68-1.31,1.39-2.03,2.15-.72.76-1.47,1.65-2.27,2.69-1.12,1.36-2.05,2.73-2.81,4.12-.76,1.39-1.53,2.67-2.33,3.82-.8,1.15-1.71,2.11-2.75,2.87-1.04.76-2.39,1.14-4.06,1.14-.56,0-1.04-.08-1.43-.24-.4-.16-.6-.76-.6-1.79l.96-5.61c-.48-1.03-.76-1.89-.84-2.57-.08-.68-.12-1.25-.12-1.73,0-1.67.06-3.14.18-4.42.12-1.27.18-2.47.18-3.58,0-1.03-.08-1.95-.24-2.75-.16-.79-.36-1.55-.6-2.27-.24-.72-.44-1.39-.6-2.03-.16-.64-.24-1.39-.24-2.27,0-.24-.2-.97-.6-2.21-.4-1.23-.82-2.59-1.25-4.06-.44-1.47-.86-2.87-1.25-4.18-.4-1.31-.6-2.13-.6-2.45,0-1.03-.6-1.85-1.79-2.45s-2.35-.9-3.46-.9c-.64,0-1.1.08-1.37.24-.28.16-.56.36-.84.6-.28.24-.64.44-1.07.6-.44.16-1.13.24-2.09.24-.48,0-.92-.2-1.31-.6-.24-.24-.44-.48-.6-.72,0-1.03.38-2.07,1.13-3.1.76-1.03,1.49-1.55,2.21-1.55,1.11-1.03,2.21-2.05,3.28-3.04,1.08-.99,2.29-1.77,3.64-2.33.24-.32.66-.8,1.25-1.43.6-.64,1.27-1.25,2.03-1.85.76-.6,1.51-1.13,2.27-1.61.76-.48,1.45-.72,2.09-.72,1.03,0,1.79.36,2.27,1.07.48.72.78,1.55.9,2.51.12.95.18,1.91.18,2.87s.08,1.67.24,2.15l2.03,5.73Z"/>
        <path class="cls-3" d="M406.68,53.38c1.11,0,2.49.04,4.12.12,1.63.08,3,.36,4.12.84,1.19,0,1.97.48,2.33,1.43.36.96.82,2.03,1.37,3.22.32.32.7.76,1.13,1.31.44.56.84,1.13,1.19,1.73s.66,1.21.9,1.85c.24.64.36,1.19.36,1.67l-.96,10.63c0,2.23-.48,4.7-1.43,7.4-.96,2.71-2.35,5.14-4.18,7.29-.64.64-1.1,1.33-1.37,2.09-.28.76-.56,1.53-.84,2.33-.28.8-.6,1.61-.95,2.45-.36.84-.86,1.65-1.49,2.45-.48.56-1.02,1.24-1.61,2.03-.6.8-1.24,1.61-1.91,2.45-.68.84-1.39,1.59-2.15,2.27-.76.68-1.53,1.18-2.33,1.49-1.19.64-2.19,1.19-2.99,1.67-.8.48-1.51.87-2.15,1.19-.64.32-1.3.54-1.97.66-.68.12-1.41.18-2.21.18-1.19,0-2.31-.28-3.34-.84-1.04-.56-1.93-1.29-2.69-2.21-.76-.91-1.37-1.95-1.85-3.1-.48-1.15-.72-2.33-.72-3.52v-8c0-.48-.16-.91-.48-1.31-.32-.4-.48-1.51-.48-3.34-.08-2.31.48-5.09,1.67-8.36,1.19-3.26,2.61-6.47,4.24-9.61,1.63-3.14,3.26-5.93,4.9-8.36,1.63-2.43,2.88-3.92,3.76-4.48.87-.56,1.61-1.17,2.21-1.85.6-.68,1.17-1.29,1.73-1.85s1.13-1.02,1.73-1.37c.6-.36,1.37-.54,2.33-.54ZM407.27,66.99c-1.27,0-2.57.54-3.88,1.61-1.31,1.08-2.53,2.31-3.64,3.7-1.12,1.39-2.11,2.79-2.99,4.18-.88,1.39-1.47,2.41-1.79,3.04l-1.19,4.54c-.32,1.12-.58,2.19-.78,3.22-.2,1.04-.3,1.67-.3,1.91v2.27c.32.24.6.72.84,1.43.24.72.54,1.43.9,2.15.36.72.78,1.36,1.25,1.91.48.56,1.15.84,2.03.84,1.59-.72,3.06-1.43,4.42-2.15,1.11-.64,2.21-1.31,3.28-2.03,1.07-.72,1.81-1.43,2.21-2.15.48-1.11,1.02-2.43,1.61-3.94.6-1.51,1.17-2.94,1.73-4.3-.16-.64.02-1.27.54-1.91.52-.64.78-1.23.78-1.79v-3.34c0-.4-.1-1.09-.3-2.09-.2-.99-.52-2.03-.95-3.11-.44-1.07-.98-2.01-1.61-2.81-.64-.79-1.35-1.19-2.15-1.19Z"/>
        <path class="cls-3" d="M442.15,52.66c.88-.16,1.45-.04,1.73.36.28.4.93.84,1.97,1.31.88.48,1.63,1.04,2.27,1.67.64.64.95,1.39.95,2.27-.08.4-.16.84-.24,1.31-.16,1.04-.08,2.03.24,2.99,0,.72-.14,1.57-.42,2.57-.28,1-.34,1.81-.18,2.45.16.32.4.64.72.96.24.24.5.46.78.66.28.2.54.22.78.06.79-.16,1.65-.91,2.57-2.27.91-1.35,1.81-2.87,2.69-4.54.87-1.67,1.75-3.3,2.63-4.9.87-1.59,1.67-2.67,2.39-3.22l3.7-.96c.48-.16,1.02-.2,1.61-.12.6.08,1.05.12,1.37.12,1.51.88,2.47,2.09,2.87,3.64.4,1.55.68,2.77.84,3.64.08,1.12-.3,2.59-1.13,4.42-.84,1.83-1.89,3.34-3.16,4.54-.56.32-1.07.58-1.55.78-.48.2-.95.38-1.43.54-.4,0-.7-.02-.9-.06-.2-.04-.46-.14-.78-.3-.4-.16-.78-.26-1.13-.3-.36-.04-.78-.06-1.25-.06-1.04,0-2.01.4-2.93,1.19-.92.8-1.81,1.63-2.69,2.51-1.35,1.67-2.41,3.56-3.16,5.67-.76,2.11-1.13,4.08-1.13,5.91-.56.56-1.22,1.25-1.97,2.09-.76.84-1.33,1.81-1.73,2.93-.48,1.12-.7,2.27-.66,3.46.04,1.19-.18,2.35-.66,3.46.08.96.08,2.05,0,3.28-.08,1.24-.22,2.53-.42,3.88-.2,1.35-.46,2.65-.78,3.88-.32,1.24-.68,2.33-1.07,3.28-.56.4-1.24.76-2.03,1.08-.8.32-1.63.56-2.51.72-.96.24-1.99.4-3.1.48-.4,0-.92-.32-1.55-.96-.32-.32-.6-.64-.84-.96l-1.67-3.34c-.08-.56,0-1.51.24-2.87.24-1.35.52-2.73.84-4.12.32-1.39.62-2.65.9-3.76.28-1.11.42-1.75.42-1.91,1.75-2.63,2.91-5.39,3.46-8.3.56-2.91,1.15-5.79,1.79-8.66l-.95-7.88c-.4-1.03-.9-1.55-1.49-1.55s-1.22.08-1.85.24c-1.27.24-2.19.58-2.75,1.01-.56.44-1.04.9-1.43,1.37-.4.48-.84.94-1.31,1.37-.48.44-1.31.74-2.51.9-.64,0-1.04-.4-1.19-1.19-.16-.79-.32-1.51-.48-2.15-.16-.72-.04-1.41.36-2.09.4-.68.93-1.31,1.61-1.91.68-.6,1.45-1.19,2.33-1.79.88-.6,1.67-1.21,2.39-1.85.96-1.03,1.79-2.17,2.51-3.4.72-1.23,1.43-2.39,2.15-3.46.72-1.08,1.53-1.99,2.45-2.75.91-.76,2.09-1.21,3.52-1.37Z"/>
        <path class="cls-3" d="M491.35,53.38c1.67,0,3.08.3,4.24.9,1.15.6,2.09,1.41,2.81,2.45.72,1.04,1.23,2.23,1.55,3.58.32,1.35.44,2.79.36,4.3,0,2.15-.8,3.88-2.39,5.19-1.59,1.31-3.22,2.45-4.9,3.4-1.51,1.04-3.13,1.95-4.84,2.75-1.71.8-3.3,1.67-4.78,2.63-1.47.96-2.71,2.07-3.7,3.34-1,1.27-1.53,2.91-1.61,4.9v5.02c-.16,1.36.12,2.69.84,4,.72,1.31,1.63,1.97,2.75,1.97.08.08.4-.04.96-.36.56-.32,1.17-.7,1.85-1.13.68-.44,1.35-.9,2.03-1.37.68-.48,1.17-.84,1.49-1.08,1.19-.56,2.13-1.01,2.81-1.37.68-.36,1.17-.46,1.49-.3.56,0,1.03.08,1.43.24.4.16.6.76.6,1.79-.16,1.75-.92,3.44-2.27,5.08-1.35,1.63-2.83,3.15-4.42,4.54-1.59,1.39-3.15,2.61-4.66,3.64-1.51,1.04-2.51,1.79-2.99,2.27-1.35,1.19-2.61,1.83-3.76,1.91-1.16.08-2.33.12-3.52.12-.72-.08-1.45-.4-2.21-.95-.76-.56-1.43-1.21-2.03-1.97-.6-.76-1.06-1.53-1.37-2.33-.32-.79-.44-1.47-.36-2.03v-2.03c0-.56-.16-1.15-.48-1.79-.16-.32-.32-.6-.48-.84l.36-2.39v-1.91c0-.32.08-1.17.24-2.57.16-1.39.36-2.91.6-4.54.24-1.63.46-3.18.66-4.66.2-1.47.34-2.45.42-2.93.32-.24.48-.48.48-.72s-.04-.48-.12-.72c-.08-.24-.12-.54-.12-.9s.16-.78.48-1.25c0-.96.2-1.95.6-2.99.24-.56.48-1.11.72-1.67l1.67-3.94c.16-1.75.99-3.56,2.51-5.43,1.51-1.87,3.28-3.56,5.31-5.08,2.03-1.51,4.12-2.73,6.27-3.64,2.15-.91,3.98-1.29,5.49-1.13ZM485.98,62.34c-.4,0-.8.3-1.19.9-.4.6-.8,1.25-1.19,1.97-.4.88-.8,1.79-1.19,2.75-.08.4-.2.86-.36,1.37-.16.52-.28,1-.36,1.43-.08.44-.04.8.12,1.07.16.28.48.42.96.42.4.08.99,0,1.79-.24.79-.24,1.61-.6,2.45-1.08.84-.48,1.59-1.05,2.27-1.73s1.05-1.41,1.13-2.21v-2.03c0-.4-.12-.76-.36-1.08-.24-.32-.52-.56-.84-.72-.32-.24-.72-.44-1.19-.6l-2.03-.24Z"/>
        <path class="cls-3" d="M559.42,5.49h3.34c.32,0,.64.24.95.72.32.48.56,1.04.72,1.67.24.72.44,1.47.6,2.27v3.34c0,2.79-.96,5.14-2.87,7.05-1.91,1.91-4.38,2.87-7.4,2.87-.16-.16-.36-.32-.6-.48-.48-.32-.92-.48-1.31-.48-.56,0-1.12.08-1.67.24-.56.16-1,.4-1.31.72-.48.48-1.02,1.36-1.61,2.63-.6,1.28-1.15,2.61-1.67,4-.52,1.39-.98,2.71-1.37,3.94-.4,1.24-.64,2.05-.72,2.45l-.6,2.99c-.48,1.35-.98,2.55-1.49,3.58-.52,1.04-.96,2.11-1.31,3.22-.36,1.12-.66,2.31-.9,3.58-.24,1.27-.36,2.79-.36,4.54-.32.56-.7,1.69-1.13,3.4-.44,1.71-.84,3.51-1.19,5.37-.36,1.87-.66,3.58-.9,5.14-.24,1.55-.36,2.45-.36,2.69v2.27c0,.4-.06,1.04-.18,1.91-.12.88-.24,1.79-.36,2.75s-.24,1.85-.36,2.69c-.12.84-.18,1.37-.18,1.61-.24.88-.38,1.67-.42,2.39-.04.72-.02,1.31.06,1.79.08.64.2,1.16.36,1.55,0,.24-.06.68-.18,1.31-.12.64-.18,1.31-.18,2.03s.08,1.33.24,1.85c.16.52.56.78,1.19.78,1.03,0,2.09-.36,3.16-1.07,1.08-.72,2.05-1.53,2.93-2.45.88-.91,1.65-1.73,2.33-2.45.68-.72,1.17-1.08,1.49-1.08.48,0,.94.24,1.37.72.44.48.66,1.04.66,1.67-.8.88-1.47,1.75-2.03,2.63-.56.8-1.04,1.61-1.43,2.45-.4.84-.6,1.69-.6,2.57-.32.88-.8,1.73-1.43,2.57-.64.84-1.35,1.73-2.15,2.69-.8.96-1.57,1.93-2.33,2.93-.76,1-1.41,2.01-1.97,3.05,0,.24-.18.54-.54.9s-.78.7-1.25,1.01c-.48.32-.98.62-1.49.9-.52.28-.9.46-1.13.54-1.83,1.35-3.38,2.35-4.66,2.99-1.27.64-1.91.52-1.91-.36-.8.4-1.36.3-1.67-.3-.32-.6-.54-1.47-.66-2.63-.12-1.15-.14-2.47-.06-3.94.08-1.47.14-2.85.18-4.12.04-1.27.02-2.35-.06-3.22-.08-.87-.32-1.31-.72-1.31-.64,0-1.45.42-2.45,1.25-1,.84-2.05,1.85-3.16,3.05-.72.64-1.55,1.55-2.51,2.75-.95,1.19-1.93,2.37-2.93,3.52-1,1.15-1.95,2.17-2.87,3.05-.92.88-1.61,1.31-2.09,1.31-.8,0-1.59-.22-2.39-.66-.8-.44-1.49-.98-2.09-1.61-.6-.64-1.09-1.37-1.49-2.21-.4-.84-.6-1.69-.6-2.57v-7.29c0-.24.08-.81.24-1.73.16-.91.36-1.93.6-3.04.24-1.27.52-2.67.84-4.18,0-.32.06-.76.18-1.31.12-.56.26-1.07.42-1.55.24-.56.48-1.15.72-1.79v-.96c.16-.79.32-1.59.48-2.39.16-.64.28-1.27.36-1.91.08-.64.12-1.08.12-1.31.48-1.19.82-2.31,1.02-3.34.2-1.03.66-2.15,1.37-3.34.24-1.75.85-3.26,1.85-4.54.99-1.27,2.17-2.43,3.52-3.46,1.35-1.03,2.73-2.01,4.12-2.93,1.39-.91,2.65-1.93,3.76-3.04.48,0,.91-.04,1.31-.12.8-.16,1.47-.56,2.03-1.19,1.43-.24,2.57-.44,3.4-.6.84-.16,1.51-.42,2.03-.78.52-.36.87-.82,1.07-1.37.2-.56.34-1.39.42-2.51l.96-3.34,1.07-7.29.96-4.66c0-.24.08-.79.24-1.67.16-.88.36-1.79.6-2.75.24-.96.48-1.85.72-2.69.24-.84.4-1.33.48-1.49.16-.4.24-.72.24-.95v-1.08c0-.32.12-.79.36-1.43.24-.64.52-1.35.84-2.15.32-.8.68-1.57,1.07-2.33.4-.76.76-1.45,1.08-2.09.79-1.03,1.67-2.23,2.63-3.58.95-1.35,1.95-2.63,2.99-3.82,1.03-1.19,2.11-2.25,3.22-3.16,1.11-.91,2.27-1.49,3.46-1.73h.95c1.19,0,1.93-.16,2.21-.48.28-.32.66-.48,1.13-.48l4.66.95ZM524.55,66.64c-1.59,0-3.15.52-4.66,1.55-1.51,1.04-2.85,2.31-4,3.82-1.15,1.51-2.09,3.07-2.81,4.66-.72,1.59-1.07,2.99-1.07,4.18,0,.32-.1,1.18-.3,2.57-.2,1.39-.24,2.79-.12,4.18.12,1.39.54,2.57,1.25,3.52.72.95,1.99,1.19,3.82.72,1.51-.4,2.96-1.39,4.36-2.99,1.39-1.59,2.59-3.46,3.58-5.61.99-2.15,1.75-4.4,2.27-6.75.52-2.35.73-4.52.66-6.51,0-.64-.12-1.19-.36-1.67-.16-.4-.46-.78-.9-1.13-.44-.36-1.01-.54-1.73-.54Z"/>
      </g>
    </g>
  </g>
</svg>