<?xml version="1.0" encoding="UTF-8"?>
<svg id="Layer_2" data-name="Layer 2" xmlns="http://www.w3.org/2000/svg" viewBox="0 0 735.36 489.97">
  <defs>
    <style>
      .cls-1 {
        fill: #ffeac5;
      }
    </style>
  </defs>
  <g id="Layer_1-2" data-name="Layer 1">
    <path class="cls-1" d="M110.27,361.79c5.44,4.47,12.47,6.25,19.13,8.21,54.93,16.21,109.08,17.66,164.09,3.3,41.04-10.72,79-29.88,123.15-25.49,27.11,2.7,50.67,13.38,75.48,23.65-1.42,3.43-1.97,1.54-4.19,1.34-19.24-1.76-41.76-3.39-61.07-4.27-55.17-2.52-117.32,19.76-151.18,65.53-.57.77-4.41,8.96-4.69,9.88-1.7,5.76,10.85,4.94,14.77,4.86,21.28-.46,66.79-12.02,87.25-19.63,48.51-18.05,85.18-51.81,140.6-48.18,22.07,1.45,45.58,11.68,67.42,16.04.85,3.8-2.08,1.72-3.59,1.84-24.64,1.89-46.96-2.61-71.12,5.43-30.12,10.02-54.28,33.55-67.01,62.6-2.22,5.06-7.09,18.55-2.62,22.65,2.54,1.1,6.83-.2,9.49-1.28,23.43-9.5,55.64-26.47,75.76-41.61,25.97-19.55,38.52-41.37,74.74-41.69,39.03-.35,83.6,14.51,123.61,16.27,4.83.21,13.08,1.21,14.82-4.35,1.51-4.82-3.83-21.68-9.46-23.84-43.19.46-86.26-2.84-128.68-11.31-24.21-4.84-52.55-8.38-61.42-35.64-3.86-11.85-2.45-25.43-3.53-37.38-2.52-27.72-7.46-55.44-17.74-81.61-3.06-7.8-5.8-18.12-13.77-21.66-7.27,6.31-11.58,14.82-15.33,23.55-15.23,35.52-2.79,89.11,26.05,115.01,4.4,3.95,11.49,7.8,15.73,11.32,2.73,2.27,5.09,4.96,7.51,7.53,1.03,3.6-10.02.69-11.45.36-13.49-3.14-38.12-10.64-48.78-18.71-18.45-13.97-35.13-33.3-41.53-55.72-8.08-28.34-9.25-61.71-15.44-91.1-10.47-49.7-31.02-93.65-61.97-134.79-2.54-3.37-12.24-17.71-15.96-11.86-1.8,2.83-5.32,21.68-6.08,26.36-10.62,64.82,8.93,135.55,50.69,186.2,12.44,15.09,27.17,27.83,40.58,41.89,9.76,10.23,17.13,21.86,28.76,30.26,1.9,1.37,2.55,3.28.2,3.46-7.12-4.36-15.67-6.16-23.44-9.27-20.72-8.31-50.24-21.85-68.62-34.16-18.99-12.72-46.88-45.01-54.94-66.56-10.37-27.73-14.35-60.2-24.35-88.48-17.9-50.65-54.38-99.25-97.6-131.37-5.13-3.81-13.88-11.24-19.75-8.9-1.43,1.89,4.29,27.62,5.26,31.89,16.46,71.91,52.83,130.77,101.52,185.91,13.63,15.43,29.31,28.84,42.6,44.48,2.07,2.43,5.95,6.1,5.4,9.43-5.18-2.56-10.14-5.57-15.23-8.31-46.57-25.11-60.08-39.14-90.64-80.97-35.44-48.52-61.03-85.01-119.52-109.07-7.55-3.1-16.35-4.5-23.62-8.66l-4.01.44c-.98.88-1.67,1.95-2.06,3.21-.94,3.05,10.01,26.13,12.31,30.6,28.34,55.08,66.1,92.37,122.15,119.43,5.37,2.59,12.04,4.18,17.42,6.78,20.32,9.85,36.47,19.84,54.88,32.8,2.75,1.94,3.84,4.93,7.43,5.01-1.1,2.68-2.88,1.99-5.11,1.95-22.93-.49-61.4-22.54-83.73-31.53-47.96-19.3-103.49-25.22-153.88-12.9-7.8,1.91-23.91,6.02-30.01,10.18-2.09,1.43-4.49,2.95-5.86,5.13-1.06,3.13,7.13,7.67,9.72,8.97,11.51,5.78,29.76,11.67,42.36,16.06,31.86,11.09,65.59,19.4,99.37,20.32,57.98,1.57,105.92-17.76,162.9,7.36,22.41,9.88,43.12,25.46,65.56,36.48,11.22,5.51,22.95,10.03,34.55,14.67-.88,1.65-3.83.23-5.51-.04-4.23-.69-8.07-1.78-12.48-2.19-16.17-1.52-28.55-1.28-45.12-4.96-32.79-7.29-61.59-17.54-95.85-17.82-42.83-.35-91.79,9.15-128.96,31.44-6.22,3.73-14.04,8.31-16.36,15.27ZM194.86,273.57l-1-1.91,9.92-5.2,1,1.91-9.92,5.2ZM168.12,271.84c-.23-1.56,7.99-3.88,9.44-5.33,2.03.47,14.16-6.97,14.8-3.61l-19.87,8.49c-.74,1.54-4.04,2.65-4.37.44ZM150,271.5l26.16-14.33c1.03,1.01,1.64,2.5.23,3.53-2.74,2-7.79,3.07-11.08,4.8-2.87,1.51-5.14,3.65-7.99,5.06-2.2,1.09-5.08,3.03-7.33.93ZM138.96,270.06l-.97-2.24,16.61-7.21.97,2.24-16.61,7.21ZM109.14,267.77c10.6-1.7,19.29-9.51,30.02-10.11l-20.6,9.62-9.42.48ZM94.49,264.74c6.81-6.4,16.5-9.54,24.87-13.52,1.87-.89,1.66-3.17,4.37-.44l-29.24,13.96ZM75.99,262.48l4.58-4.54,20.03-7.48-4.76,3.7-19.86,8.33ZM87.88,247.04c.16.76-12.63,5.95-14.24,6.39-2.15.6-4.66,1.59-6.55-.17,5.72-1.37,10.89-3.98,16.38-5.96,1.89-.68,1.84-2.94,4.41-.26ZM40.87,247.56l19.64-2c-3.57,4.01-10.67,3.16-15.34,3.76-.7.09-1.32,1.36-1.62,1.36-1.01-.02-4.33-1.48-2.69-3.12ZM77.44,235.12c-2.01,2.06-3.69.31-5.58-.32-5.2-1.76-9.69-4.46-14.09-7.72.89-1.99,2.99.04,4.5.68,5.11,2.18,9.87,5.45,15.17,7.36ZM97.08,233.13l-9.12-2.49c-4.9-1.94-8.79-5.63-14.4-4.76,1.22-2.86,4.9-2.38,7.2-1.56,5.41,1.93,11.56,5.61,16.32,8.81ZM113.67,235.77c-7.76-6.32-17.12-9.25-25.85-13.8.82-1.82,3.09-.29,4.53.15,5.75,1.73,8.46,4.05,13.38,6.62,2.42,1.26,11.94,2.77,7.94,7.03ZM120.7,228.93c1.87,1.28,4.33,1.46,5.48,2.26,3.92,2.74,7.64,7.39,12.55,9.52-.96,1.92-4.98-1.07-6.36-1.83-8.38-4.61-15.53-13.65-25.28-15.81,3.53-5.56,10.39,3.64,13.62,5.85ZM142.17,228l-2.71,1.53,17.77,13.45c-5.37,2.37-9.11-5.63-12.08-8.08-4.49-3.69-9.91-6.54-15.32-8.42l7.3,1.09c1.99-2.39,2.65-1.35,5.04.43ZM171.31,240.62c1.83,1.35,2.59,3.17.19,3.46l-7.4-5.01-6.12-7.27c4.32,3.07,9.06,5.68,13.34,8.83ZM191.55,249.03c-2.87-3.91-6.4-5.79-10.25-8.44-1.38-.95-4.88-2.01-3.28-3.84,4,2.73,8.18,5.28,12.17,8.06,2.34,1.63,3.89,1.39,1.35,4.22ZM245.57,268.14c-13.19-6.2-29.03-5.93-43.3-8.33-48.43-8.14-97.16-18.55-146.42-19.97l-23.1-2.67,5.01-.17.34-2.92c35.94,4.92,72.95,5.71,109.12,11.43,22.71,3.6,45.43,8.98,67.96,13.73,9.68,2.04,20.87,2.17,30.23,5.66,2.59.96,1.33,1.5.15,3.24ZM243.51,166.8c2.96,5.46,10.22,7.64,14.88,11.52-.77,1.73-4.7.13-5.66-.42-3.17-1.81-6.66-7.82-11.31-9.17l2.09-1.93ZM254.87,160.99c-4.36,2.74-8.81-2.99-12.55-5.04-2.67-1.46-5.93-1.56-8.28-3.77.69-1.7,3.31-.43,4.51.05,5.6,2.24,11.43,5.26,16.31,8.76ZM246.94,149l.21,3.53c-6.99-3.77-14.15-6.92-20.46-11.89l20.25,8.36ZM215.62,118.33c5.14,8.58,14.76,13.19,22.81,18.41,1.35.88,4.88,2.08,3.28,3.85-11.02-4.17-20.32-11.64-28.19-20.34l2.09-1.92ZM232.4,119.43l-.77,1.15c-1.26-1.72-4.02-1.12-4.82-1.52-7.53-3.69-15.02-10.9-22.59-14.96l.77-1.15c1.67,2.82,7.36,3.2,8.3,3.82l19.11,12.66ZM222.53,102.89c.67.44,4.32,6.78,2.91,6.92-2.16-.52-1.81-2.79-2.13-3.07-6.99-6.05-17.52-10.57-24.91-16.5.4-.81,3.08-1.3,3.27-1.17l20.85,13.81ZM196.81,72.53c4.85,3.38,8.3,8.22,12.88,11.93,2.11,1.71,4.16,1.14,1.42,4.2-3.61-4.76-8.41-7.21-12.4-12.02-.96-1.16-3.27-2.65-1.91-4.11ZM187.1,49.43c4.67,6.01,10.81,10.83,15.91,16.35,1.71,1.86,2.39,2.29.34,4.4-4.5-5.41-9.59-10.11-13.94-15.71-1.17-1.5-3.4-2.56-2.31-5.04ZM217.69,64.27l-1.95.39-2.51-12.51,1.95-.39,2.51,12.51ZM229.5,82.92l-1.79-8.65,1.95-.4,1.79,8.65-1.95.4ZM250.51,119.76l-.62-5.38,1.73-13.88c2.66,5.94.72,13.36-1.11,19.26ZM242.28,100.84c.28,2.69.66,5.24.49,7.97l-2.68-.95c1.79-3.44-.57-7.46.72-11.18,3.55,1.3,1.28,2.28,1.47,4.16ZM259.46,130.28l-2.38-.39,2.54-15.31,2.38.39-2.54,15.31ZM263.72,150.17c1.9-1.94.84-15.22,1.87-15.42,3.41,1.33,1.46,2.05,1.49,4.16.05,4.15-.61,8.09-.67,12.21l-2.68-.95ZM278.44,167.73c-.38,1.28-1.67,4.86-3.48,3.21l3.05-9.64c1.49,1.62,1,4.53.43,6.43ZM281.53,183.64c-1.82-3.55-.59-9.16,1.52-12.33,1.38,3.35.28,9.29-1.52,12.33ZM302.51,242.53c-5.43-8.34-10.91-16.77-16.04-25.31-19.65-32.67-34.07-67.72-53.52-100.41-12.97-29.96-29.63-57.93-46.59-85.78-.95-1.55-3.11-2.81-2.03-5.1,2.33.94,2.95,2.85,4.17,4.66,4.86,7.19,9.6,14.81,14.21,22.18,27.89,44.59,49.32,92.83,73.25,139.52,7.72,15.05,16.39,31.96,25.67,45.96,1.24,1.87,3.71,1.33.88,4.28ZM363.89,216.54l13.62,15.28,10.56,9.88c-2.95,1.1-5.71-2.63-7.71-4.45-6.5-5.93-11.87-13.07-18.57-18.79l2.1-1.92ZM354.39,191.91c5.46,4.7,11.65,11.28,15.1,17.53,1.1,1.99,2.94,1.77.38,4.38-3.34-6.77-9.07-11.87-13.63-17.78-.94-1.22-3.18-2.7-1.84-4.13ZM348.93,169.96l16.35,18.23,3.76,6.75c-5.89-4.84-12-11.09-16.59-17.18-1.64-2.18-4.35-4.81-3.53-7.8ZM344.8,152.23c4.81,4.23,9.2,9.27,12.99,14.42l6.97,12.11c-5.99-3.75-7.51-10.71-12.3-16.04-3.1-3.45-6.95-6.93-10.9-9.32,1.16-1.94,1.15-3,3.23-1.17ZM341.5,133.37c5.59,6.63,12.61,11.76,17.37,19.07.59.91,3.66,3.95.43,4.38-.71.09-5.46-7.47-6.92-9.12-4.02-4.52-11.06-8.3-10.88-14.33ZM344.16,116.79c2.09,6.69,8.6,10.92,11.42,17.23.91,2.04,2.25,3.41.2,5.47-2.38-6.48-8.03-11.31-11.45-17.22-1.12-1.93-2.03-3.58-.17-5.47ZM343.59,101.43l4.58,8.86-2.17,1.12-4.58-8.86,2.17-1.12ZM369.32,124.03c1.45,2.12,2.88,12.38-1.99,8.11,2.91-6.15-1.58-13.66,3.02-19.66l-1.03,11.56ZM377.7,124.01l-.37,8.59-3.41,17.23c-1.66-2.91-.48-7.34-.01-10.52.69-4.76,1.75-10.96,3.8-15.3ZM381.67,165.81l-2.68-.95c1-4.73,2.76-9.53,3.61-14.28.88-4.94.52-10.39,2.47-15.03,2.58,10.03-3.66,20.2-3.39,30.26ZM388.6,162.9c3.42-.76.98,9.36.68,10.38-.42,1.43-1.45,5.95-3.71,4.27,2.84-4.35,2.08-9.81,3.03-14.65ZM393.4,154.36c-.34,3.04-1.14,5.94-1.7,8.91-4.69-3.05.53-8.9.34-13.09,3.36,1.4,1.62,1.9,1.36,4.18ZM394.47,191.78c-1.37-3.21.19-8.15.75-11.68.72-4.55,1.85-9.68,3.03-14.15,3.64,1.6,1.44,1.97.87,4.29-1.8,7.38-1.77,14.79-4.65,21.54ZM411.21,249.53l1.9-10.4c3.82,1.73,1.31,2.05.56,4.36-.68,2.08-1.02,4.29-2.46,6.05ZM408.14,240.5l-2.29-.58,2.46-9.79,2.29.58-2.46,9.79ZM426.4,299.58l-13.34-21.85c-2.05-4.19-3.41-8.74-5.45-12.93-19.07-39.21-35.14-80.74-46.57-122.34-2.56-9.31-5.58-19.38-8.08-28.98-1.78-6.81-4.07-17.2-4.84-24.08-.16-1.43-1.53-4.34,1.14-4.24,1.44,5.69,2,11.67,3.52,17.33,12.47,46.31,30.29,99.85,48.48,144.55,4.1,10.07,9.92,22.3,14.82,32.08,3.34,6.66,9.04,13.18,10.32,20.46ZM494.63,309.8c1.91,1.19,2.56,3.08,4.35,4.63,2.29,1.98,7.27,2.9,6.1,7.28-3.35-3.54-10.62-5.95-10.45-11.91ZM490.34,293.63l10.44,11.9c-4.57-1.44-10.4-6.92-10.44-11.9ZM493.03,287.06c1.65,2.77,4.05,4.91,6.18,7.3,1.64,1.84,3.98,1.17,1.17,4.23-2.2-3.98-10.85-6.34-7.35-11.53ZM489.12,272.82l6.2,10.76c-3.38-2.4-7.03-6.32-6.2-10.76ZM489.09,262.8c1.91,2,3.89,5.98,4.94,8.52.66,1.58,1.52,3.65.88,5.33-1.91-1.99-3.89-5.98-4.94-8.52-.66-1.58-1.52-3.65-.88-5.33ZM489.82,246.61c3.09,3.11,4.9,8.79,4.67,13.08-3.09-3.11-4.9-8.79-4.67-13.08ZM511.34,258.78c-1.81,3.92-8.13,11.73-1.44,12.79-1.09,1.6-2.05,3.16-2.56,5.06-1.11,4.08,2.21,7.89-.06,11.54-4.02-12.71-3.94-25.86,5.68-36.23l-1.62,6.84ZM516.41,271.77c-2.35,4.41-3.79,9.12-5.67,13.69-2.67-6.43,4.13-12.03,5.35-18.12,3.71,1.75,1.6,2.03.33,4.43ZM511.56,299.33c-6.19-5.44.32-9.76,4.2-13.87,2.72,2.14-3.04,4.71-3.88,6.36-.93,1.81.28,7.41-.32,7.52ZM516.63,319.36l5.17-6.57c1.19,2.81-.6,3.61-1.85,5.52-1.29,1.95.15,3.8-3.32,1.05ZM522.08,341.31c-5.52-9.54-10.73-20.24-14.58-30.62-7.99-21.54-8.22-45.91-7.77-68.6.08-3.93.14-9.22,1.6-12.85,2.49,6.31.57,13.7.73,20.44.11,4.78.22,10.72.43,15.91,1.05,25.25,7.34,49,19.18,71.34,1.04,1.96,3.03,1.72.41,4.38ZM514.3,441.15c1.47-2.06,2.7-4.36,4.22-6.39.95-1.26.79-2.34,2.29-.96-2.9,2.37-2.02,8.71-6.52,7.35ZM498.91,454.3c2.9-5.88,5.43-11.8,9.59-16.99l-6.48,16.86-3.11.13ZM498.78,443.79l-3.74,6.27c-2.86-4.67,3.55-9.13,5.36-13.11l-1.63,6.84ZM478.9,459.36l6.89-15.43c1.82.82.29,3.09-.15,4.53-.61,2.03-1.39,4.62-2.27,6.48-.61,1.29-2.55,6.01-4.47,4.42ZM462.29,446.7l5-5.03c6.3,2.35-4.86,6.28-5,5.03ZM487.44,423.79l.84,2.29-9.11,3.34-.84-2.29,9.11-3.34ZM492.52,417.31l17.68-1.93.27,2.48-17.68,1.93-.27-2.48ZM511.51,412.64c-2.17,1.91-5.4-.96-6.55,2.31l-2.31-1.53c2.75-2.42,5.62-3.01,8.85-.79ZM525.07,408.91l-.17,2.14-11.16-.9.17-2.13,11.16.9ZM541.94,409.47c-4.64,2.23-9.7,3.71-14.31,6.04-11.14,5.63-26.43,14.75-36.67,21.86-11.51,8-23.71,19.84-34.12,29.47-1.03.95-2.75,3.18-4.12,1.86,9.38-11.45,21.12-20.49,32.58-29.61,9.65-7.68,16.55-11.28,26.46-17.9,1.57-1.05,2.48-3.39,3.74-3.91.39-.16,1.53.78,2.71.34,6.21-2.31,11.78-6.13,18.26-7.92,1.95-.54,3.28-2.52,5.47-.22ZM557.35,406.34c.2.72-9.51,2.7-9.62,1.95-.28-1.94,7.99-4.08,9.62-1.95ZM407.44,403.7c1.88-3.07,4.65-5.03,6.94-7.86,1.71-2.11,1.14-4.16,4.2-1.43-3.48,2.65-6.33,9.82-11.14,9.28ZM387.03,411.85c-2.84-4.31,2.85-8.33,4.6-11.95l-4.6,11.95ZM370.1,417.3c1.73-2.45,3.21-5.12,4.99-7.55,1.35-1.84,3.18-2.58,3.45-.19-.9,1.81-2.23,3.22-3.55,4.72-.81.93-3.6,4.33-4.9,3.01ZM357.01,421.96c1.27-1.8,3.38-2.61,4.71-4.39,1.57-2.09,2.25-8.15,6.04-6.82-2.21,3.24-4.27,6.63-6.52,9.86-1.63,2.34-1.39,3.89-4.22,1.35ZM345.46,424.31l4.24-6.24,6.5-4.97-4.24,6.24-6.5,4.97ZM349.77,399.23l-.33,2.54-12.32-1.6.33-2.54,12.32,1.6ZM363.08,392.66c-3.24,2.25-7.92.91-11.17-.75,3-1.7,8.19-.65,11.17.75ZM381.94,386.82c-1.48,1.61-3.61.78-5.39.56-3.82-.45-8.4-.82-11.94-2.06,5.33-2.06,12.07-.11,17.34,1.5ZM391.19,382.93l-11.57-2.66c2.07-1.49,6.16-.84,8.46-.31,1.43.33,4.77.92,3.11,2.97ZM450.52,378.91c-20.86,4.97-41.12,8.38-61.61,15.01-26.07,8.44-55.05,20.75-79.47,33.22-1.58.81-3.26,2.42-5.2,1.53l19.15-11.82c36.96-16.14,74.66-33.27,114.83-37.75l12.3-.19ZM173.67,195.52l13.71.84.18,3.36-13.89-4.2ZM142.29,171.87c7.39,2.23,14.91,4.62,22.07,7.5-1.59,1.71-3.64.63-5.47.17-6.89-1.73-14.44-5.22-21.13-7.81.81-1.82,3.09-.29,4.53.14ZM134.75,159.39c5.18,1.85,10.9,3.25,16.12,5.05,2.37.82,3.03,1.63,2.3,4.16l-27.39-11.48c3.28-2.64,6.06,1.23,8.98,2.27ZM119.73,144.83c5.98,2.33,11.87,4.86,17.96,6.87-7.81,2.9-15.22-4.03-22.36-6.49,1.8-3.91,2.11-1.27,4.4-.38ZM122.05,136.33c1.38.96,4.89,2,3.28,3.83l-18.14-10.35c.61-1.66,3.47-.45,4.51.03,3.61,1.68,7.05,4.19,10.35,6.48ZM101.5,110.94l7.28,6.46-1.9,2.14-7.28-6.46,1.9-2.14ZM106.86,88.52l10.49,21.92-2.27,1.08-10.49-21.92,2.27-1.08ZM130.23,105.09c2,1.27,3.01,4.56,3.75,6.75,1.3,3.87,2.31,8.82,3.26,12.87-3.07-.91-8.05-19.48-7-19.62ZM147,124.24l-.92-5.32,5.36,9.43c.64,6.88,5.97,12.46,5.53,19.43l-9.96-23.54ZM159.07,126.09l11.05,30.87-2.35.84-11.05-30.87,2.35-.84ZM176.78,148.71l4,12.15-2.26.75-4-12.15,2.27-.75ZM182.92,174.59l-2.51-12.51,1.95-.39,2.51,12.51-1.95.39ZM218.3,213.11c2.54,2.03,7.47.86,3.99,4.61-2.02-1.52-4.46-2.62-6.43-4.2-20.75-16.65-39.05-33.42-58.44-51.35-22.98-21.25-43.62-44.91-65.01-67.94l-5-7.5c14.1,12.06,26.2,26.3,39.13,39.67,27.24,28.16,60.97,62.04,91.76,86.72ZM713.44,409.72l6.04-1.34,4.74.15c.46,2.72-9.32,3.23-10.78,1.19ZM704.19,408.59c-.05-.27,1.12-1.52,1.52-2.31l6.56,2.67c.39,1.29-7.79,1.16-8.09-.37ZM668.73,406.78c-.44-2.59,9.44-2.68,10.78-1.19l-10.78,1.19ZM381.31,316.3l-2.27,1.92-1.15-.76c.38-.68,1.38-1.59,1.33-2.22-.08-1.21-14.46-6.78-16.97-8.09-16.3-8.53-35.18-19.31-50.95-28.75-11.11-6.65-22.89-14.9-33.61-22.31-1.38-.95-4.89-2-3.28-3.83,12.4,7.65,24.68,15.73,37.34,22.78,94.39,52.62,195.59,96.16,302.85,114.53,24.05,4.12,49.7,6.52,74.02,9.02,11.17,1.15,23.83,0,34.42,4.16l-12.34.92c-110.22-4.85-214.48-33.91-314.08-80.37-5.05-2.36-10.96-3.25-15.31-7.02ZM159.09,345.86l-8.49-2.29c2.14-1.8,12.8-2.43,8.49,2.29ZM169.1,345.83c.34,1.1-7.52.97-8.85.8-.31-2.7,7.34-2.58,8.85-.8ZM194.52,342.67c-1.62,3.77-2.11,1.24-4.29.86-6.37-1.13-12.87-1.86-19.22-3.1l4.18-1.36,19.32,3.6ZM220.54,339.91l-.95,2.68-27-9.55c.93-1.47,5.11-.21,6.54.16,7.2,1.87,14.23,5.89,21.41,6.7ZM239.99,339.46c-6.06,2.54-12.1-4.04-16.76-6.03-4.14-1.77-9.01-2.03-12.96-4.57l-6.53-.08c-.66-3.47,9.01-1.42,10.3-1.1,9.55,2.4,17.07,8.01,25.95,11.78ZM250.4,336.34l-28.55-12.25c.81-1.82,3.09-.29,4.53.14,3.14.95,6.58,1.91,9.63,3,3.09,1.1,5.92,3.34,8.36,4.35,1.77.73,10.05-.26,6.04,4.76ZM276.6,337.03l-26.23-10.71c.82-1.82,2.99-.27,4.52.09,6.36,1.52,13.79,3.94,19.55,7.03,1.7.91,3.19.39,2.16,3.59ZM314.35,335.38c-3.93,3.98-11.34-2.09-13.48-1.85-.52.06-1.07,1.19-1.6,1.64-3.23-5.55-10.4-5.93-15.77-8.57,1.52-3.37,1.83-1.76,4.28-.9,5.7,2,10.91,6.05,16.65,7.72,3.35.97,6.95.12,9.92,1.96ZM300.94,358.16c2.4-2.92,6.05-4.8,9.17-6.86,1.87-1.23,1.33-3.71,4.28-.89-3.51,3.24-8.38,7.82-13.46,7.75ZM287.45,360.89l-1.92-2.1c1.77.21,15.14-11.57,16.16-6.8l-14.24,8.9ZM257.43,371l16.38-10.65c3.26-.1,6.05-5.59,9.01-2.52-6.85,3.59-13.31,8.1-20.19,11.64-1.58.82-3.26,2.42-5.2,1.53ZM254.69,362.52l-2.3-1.53,5.68-4.11,10.1-2.1c-4.35,2.78-9.92,3.7-13.47,7.74ZM220.83,373.42l4.52-4.86c7.28-3.46,13.63-9.53,20.27-13.72,1.52-.96,3.3-2.39,5.19-1.55l-9.03,7.35-20.96,12.78ZM208.87,368.83c3.67-4.83,9.24-10.99,15.75-11.23l-11.64,9.33-4.12,1.9ZM190.37,371.58l-1.92-2.1,21.15-11.83c-5.03,6.24-13.37,8.76-19.23,13.93ZM179.19,365.84l13.45-7.75c-2.07,3.5-5.96,4.79-9.17,6.86-1.85,1.2-1.32,3.73-4.28.88ZM142.93,355.15c8.61-2.23,17.56-4.64,26.38-5.86,27.93-3.87,56.6-4.95,84.59-8.02l108.27,2.44c-10.02,1.62-20.32.62-30.41.79-1.99.03-3.9.94-5.82.98-47.25.86-91.96.88-139.28,5.3-12.67,1.18-25.52,2.95-38.14,4.74-2.06.29-3.75,1.51-5.59-.37Z"/>
  </g>
</svg>