<?xml version="1.0" encoding="UTF-8"?>
<svg id="Layer_2" data-name="Layer 2" xmlns="http://www.w3.org/2000/svg" viewBox="0 0 154.58 161.56">
  <g id="Layer_1-2" data-name="Layer 1">
    <g>
      <path d="M151.31,80.78C151.31,38.05,118.17,3.41,77.29,3.41S3.26,38.05,3.26,80.78s33.14,77.37,74.03,77.37,74.03-34.64,74.03-77.37M154.58,80.78c0,44.61-34.6,80.78-77.29,80.78S0,125.39,0,80.78,34.6,0,77.29,0s77.29,36.17,77.29,80.78"/>
      <path d="M136.1,104.03l5.53,4.26c.57.85-.62,2.3-.49,3.31l-1.05-.06-9.03-3.58.31-1.97,7.25,2.63c-.11-1.07-2.01-1.2-2.17-1.35-.08-.08-.16-.65-.67-1.11-.86-.77-2.44-1.65-3.45-2.16l.63-2.29,7.87.98c.1-.38-.59-.54-.84-.6-1.53-.39-1.87-.62-3.25-1.22-.67-.29-2.98-.7-2.82-1.6l.77-1.52,9.6,4.13-1.11,3.11-7.08-.98Z"/>
      <path d="M29.89,26.97l.2.67,7.05,6.76-1.4,1.46-5.21-4.93,3.75,6.47c-.08.86-.56,1.38-1.39,1.45-.94.08-1.42-.73-2.14-1.07-1.4-.67-1.47-.37-2.47-1.52-.11-.13-1.51-.69-1.85-.71l5.03,5.12-1.11,1.46-2.52-1.96-5.18-5.43,2.04-2.45,6.46,3.59c.12-.13-.6-1.5-.68-1.59-.13-.13-.56-.07-.75-.36-.17-.26-.13-.68-.3-1-.6-1.09-1.29-2.17-2.03-3.16v-.27c.2-.33,2.13-3.08,2.51-2.5"/>
      <path d="M90.72,11.81c-.38-.09-.5.9-.57,1.21-.09.39-.03.8-.12,1.19-.43,1.82-1.08,3.64-1.2,5.5l-2.21-.5,2.52-10.7,3.15.66c.05,1.36-.08,2.75,0,4.11.02.35.31.65.33,1,.04.56-.35,1.36-.02,2.13.4-.03.52-.46.69-.76.88-1.58,1.79-3.5,2.47-5.16l3.47.84-2.53,10.35-1.89-.33,1.57-7.57-1.53,2.52-1.95,4.39-2.19-.32v-8.56Z"/>
      <path d="M18.55,104.36c-.29-1.01.75-2.03-.17-2.62-2.76-.2-6.57,2.43-4.25,5.43,1.11,1.44,2.35,1.28,3.89.75,1.93-.66,3.26-2.47,2.42-4.55-.88-.18-.61.3-.63.99h-1.26ZM19.49,99.75v-1.98c.55,0,1.7-.17,1.88.5.19.68-.25,1.12-.31,1.64-.17,1.36.73,1.78,1.12,2.79,1.34,3.46-.26,6.42-3.54,7.53-4.56,1.54-7.65-1.98-7.04-6.7.16-1.24,2.01-2.91,3.06-3.38,1.58-.72,3.17-1.03,4.82-.4"/>
      <path d="M114.04,27.29c1.42-1.27,2.15-3.49,3.32-4.93.23-.28.51-.72.9-.65.5.1,1.39.77,1.11,1.43l-5.8,8.75c-.37-.56-1.52-.87-1.7-1.5-.27-.99.24-1.72.29-2.59.1-1.68-.1-3.44-.01-5.12l-3.64,5.27-1.7-1.15,5.66-9.06,1.87,1.18c.19,2.83-.11,5.6-.29,8.37"/>
      <path d="M50.38,13.46l4.42,9.88c-1.57.71-2.2.88-3.74-.06-.07-1.36-2.16-.35-2.3-1.86l-2.47-1.38,2.83,6.09-2.21.82-4.41-9.88c.92-.09,1.32-.86,2.32-.62.3.07,1.98,1.16,2.4,1.45.88.59,1.78,1.46,2.74,2.08.46.3.82.77,1.36.72l-3.15-6.42,2.2-.82Z"/>
      <path d="M74.65,10.83l-2.19.31c-.13-1.49-1.78-1.52-2.96-1.25-1.37.31-1.94,2.11-2.11,3.4.42.99.21,1.88.81,2.8,1.21,1.88,4.28,1.58,5.18-.45l-.3-.85-2.03.32c-.7-.46-.48-1.2-.49-1.97l4.26-.64c.78.49.35,1.33.47,2.12.12.86.66,1.82.17,2.82-1.55,1.2-4.02,2.26-5.95,1.9-.99-.19-1.79-.91-2.68-1.32-1.87-2.93-2.61-6.77.41-9.18,2.16-1.72,7.32-1.64,7.41,1.98"/>
      <path d="M109.31,17.41c-.41.47-4.61-2.44-5.66-1.97l-.64,1.97,4.73,1.98-.63,1.97-5.04-2.31-.92,2.48c-.01.55,4.87,2,5.31,2.96l-.61,1.49-7.56-3.29,4.1-10.21.76.03,6.49,3.09c.6.45-.45,1.19-.32,1.82"/>
      <path d="M131.68,39.15c-.76,1.66.61,3.22.89,4.83.75,4.3-4.02,5.58-6.4,2.08-1.52-2.23-1.47-4.22.31-6.25l1.4,1.51c.2.71-1.01,1.38-.58,2.91.3,1.06,2.75,2.33,3.11,1.01.45-1.64-2.31-4.39-.77-6.74,1.24-1.89,3.47-1.83,4.89-.18,1.23,1.42,2.47,4.26.78,5.78-.32.29-.33.48-.8.17-1.81-1.21-.07-2.37-.77-3.81-.19-.38-1.67-1.76-2.06-1.31"/>
      <path d="M36.7,128.1c-.37.11-1.35,1.42-1.42,1.83.22,1.31.97,1.81,2.19,1.28l.9-1.38c.03-1.03-.54-2.08-1.67-1.74M31.16,130.71l2.18,1.34c-.53,3.81,3.12.86,2.86.64-3.14.22-4.22-3.9-2.06-5.94,1.56-1.47,3.61-.99,5.06.33,2.84,2.6.79,6.51-1.75,8.4-3.19,2.38-7.63-.99-6.3-4.77"/>
      <path d="M144.24,64.46c-.19.19-1.66.94-1.84.71.11-.75-.51-1.35-.29-2.11.11-.38.78-.67.89-1.05.44-1.55-1.97-4.41-2.18-1.63-.09,1.16.14,2.51,0,3.63-.36,2.97-4.09,4.3-5.83,1.81-1.09-1.57-1.71-4.6-.63-6.25.3-.45,1.72-1.84,2.21-1l.45,1.45c-.99,1.02-1.47,1.43-1.25,3.01.09.67,1,1.9,1.69,1.77.6-.11,1-.55,1.1-1.17.3-1.82-.62-5.19,1.3-6.21.9-.48,1.96-.44,2.85,0,1.49.74,2.51,3.9,2.15,5.56-.03.14-.57,1.42-.63,1.48"/>
      <path d="M85.99,8.19l-.32,1.97-5.67-.32v2.31l5.04.33v1.98l-5.36-.33v2.97l5.67.33v1.98l-8.2-.66c.5-1.82.21-3.59.32-5.43.02-.34.3-.65.32-.99.08-1.47-.05-2.97,0-4.45,2.78-.21,5.46.29,8.19.33"/>
      <path d="M100.47,139.62c-2.55-.45-2.04,1.51-1.41,3.28.31.85,1.43,3.27,2.52,2.95,1.25-.37.35-3.09.02-3.95-.32-.82-.92-1.44-1.13-2.28M99.75,137.35c1.33-.26,2.64.47,3.41,1.6.84,1.23,2,4.61,1.69,6.04-.51,2.34-3.65,3.5-5.64,2.69-2.03-.83-3.42-5.14-3.14-7.26.2-1.56,2.32-2.8,3.68-3.07"/>
      <path d="M42.5,140.59c.44-.04.96.09,1.38-.04.86-.26,2.61-3.46,2.72-4.41.15-1.39-.67-2.02-1.75-1.16-.55.44-2.27,3.13-2.36,3.79-.07.57.05,1.23,0,1.82M44.28,132.41c1.67-.38,4.41,1.33,4.8,3.13.44,2.09-1.91,6.86-3.94,7.31-3.08.7-5.59-1.79-5.16-5.06.2-1.54,2.76-5.03,4.3-5.38"/>
      <path d="M146.5,90.2c.19,2.2-.55,4.29-.95,6.42-.28,1.53.29,2.28-1.88,1.47l.93-5.92c-.74.25-1.59-.62-2.21-.17-.52.37-.88,4.21-.94,5.11h-1.89s.95-5.6.95-5.6l-2.68-.65-1.13,5.73-.44.5-1.42-.31,1.26-8.23c1.48-.25,2.84.41,4.25.66.86.15,1.99.17,2.83.33,1.1.22,2.15.85,3.31.66"/>
      <path d="M52.3,145.5c.09.09.62.07.79.34,1.16.23,3.09-4.7,2.5-5.92-.77-1.6-2.06,0-2.54.99-.24.51-1.08,2.7-1.11,3.14-.02.28.25,1.34.36,1.45M52.79,137.35c3.05-.68,5.91,1.29,5.47,4.73-.14,1.05-1.35,4.02-2.05,4.78-2.02,2.21-6.49.54-6.79-2.47-.04-.42.25-2.12.37-2.59.11-.42.63-1.69.83-2.09.36-.72,1.44-2.19,2.16-2.35"/>
      <path d="M119.39,127.09c-.34-.06-.54.12-.8.32-.46.37-3.02,2.27-2.35,2.98,1.19.31.86-.6,1.57-1.16,1.29-.56,2.88-.86,4.1,0,.2.14,1.04.98,1.12,1.14.62,1.25.42,2.8-.33,3.96-.32.5-2.08,2.13-2.55,2.27-.94.28-2.74.2-3.27-.78l1.57-1.66c.71-.47,1.8.89,2.51-.68.32-1.96-1.96-3.44-2.98-1.46-.18.35-.1.86-.19.96-.07.08-1.87,1.06-2,1.02l-2.69-4.76,4.58-4.13c.44-.14,2.05,1.71,1.72,1.97"/>
      <path d="M13.82,80.65l-3.78,1.48c1.07.81,2.54,1.08,3.78,1.48v-2.97ZM17.92,76.7v2.29s-2.2.68-2.2.68c.15.97-.35,4.33.3,4.78,1.82.5,2.54.52,2.22,2.79-.52.56-4.98-1.56-5.9-1.91-1.67-.64-3.5-.96-4.99-2.03l-.13-2.31c2.99-1.16,5.91-2.52,8.91-3.69.54-.21.85-.91,1.79-.6"/>
      <path d="M90.72,148.5l3.78-.66.32,2.3-7.88,1.65c-.09-1.15.11-2.41.67-3.41,1.02-1.82,3.43-3.15,3.1-5.47-1.47-.72-2.35-.07-2.2,1.64h-2.83c-.05-1.43.41-2.67,1.67-3.36,1.22-.67,4.5-1.07,5.43.07,1.36,1.66.71,3.59-.47,5.12-.25.33-1.98,1.75-1.58,2.13"/>
      <path d="M9.41,99.09l-.32-2.31c1.64-.11,3.27-.63,4.88-.99.73-.17,1.56,0,2.37-.49,1.68-1.04,1.13-4.17-.8-4.14l-7.4,1.33-.32-2.3c1.16.18,2.21-.43,3.31-.66.29-.06.64.05.94,0,1.84-.33,4.01-1.42,5.68,0,.55.47,1.32,1.75,1.41,2.47.11.9.22,2.75-.06,3.57-.48,1.42-1.4,1.75-2.69,2.13-2.28.68-4.72.83-7.02,1.39"/>
      <path d="M40.61,26.31l-3.47-1.81.94,3.46c1.07.1,2.02-.71,2.52-1.65M46.28,27.95l-1.73,1.01-2.21-1.29-3.3,2.28.6,2.75-1.72,1.51c-.37-.23-.36-.48-.47-.83-.78-2.53-1.52-5.69-2.14-8.3-.21-.89-.48-1.79-.36-2.71.88,0,1.11-1.26,2-.99l8.69,5.75.64.81Z"/>
      <path d="M60.46,17.08c.29-.28-1.26-2.42-1.57-2.81-.23-.29-.61-.7-.95-.81v4.28l2.52-.66ZM65.51,20.05l-2.5.31c-.78-2.88-3.43-1.08-5.37-.63l-.02,2.61-2.19.67c-.27-1,.25-2.02.32-2.8.17-2.24.11-4.71.31-6.92.06-.67.44-1.45.46-2.16l2.06-.5,6.46,8.41.47.99Z"/>
      <path d="M13.82,49.69l.96-2.29,5.02-.35c.16-.14-2.05-3.29-2.17-3.83-.23-1.05.51-1.47.59-2.43.38-.47,1.36,1.23,1.53,1.53.77,1.32,1.45,3.67,2.41,4.73.49.54,3.94,2.15,3.94,2.46l-1.11,1.81c-.6.17-2.89-1.85-3.76-1.98-1.23-.17-3.74-.09-5.06,0-.77.05-1.49.55-2.35.34"/>
      <path d="M137.04,51.67l4.71.35.96,2.28-7.04-.94-4.14,1.93-1.11-1.81c0-.46,3.35-1.56,3.95-2.13,1.16-1.11,2.32-3.95,3.35-5.39.23-.32.44-.63.74-.88l1.05,2.14-2.46,4.45Z"/>
      <path d="M13.82,54.96l8.19,2.97-.63,2.31-8.04-3.23-.78.27c.6.87-.25,1.67-.32,2.63l-1.89-.33,2.84-8.56,1.57.84-.94,3.12Z"/>
      <path d="M124.12,29.6c.06.36-.11.57-.3.84-.97,1.31-2.68,2.64-3.8,3.93-.46.53-.73,1.39-1.42,1.81l-1.72-1.48c.61-.42.84-1.14,1.25-1.66.86-1.06,4.23-3.95,4.4-4.97.1-.58-1.52-1.71-1.87-2.28.26-.96.89-1.5,1.73-.81,2,1.63,3.71,3.56,5.51,5.44l-1.4,1.15c-.44-.32-2.03-2.42-2.38-1.97"/>
      <path d="M114.04,141.25l-2.35.98-3.16-5.26-1.58,2.3c-.67.2-1.05-1.38-1.36-1.81.84-1.45,1.81-2.61,1.53-4.43l1.72-.99c.41,0,3.48,5.8,3.98,6.7.46.81,1.35,1.52,1.22,2.52"/>
      <path d="M147.13,78.67v8.89h-1.89v-3.29c-.77-.05-1.59.08-2.36,0-.38-.04-.72-.32-1.25-.35-1.26-.07-3.72.29-4.72,0-.72-.21-.71-2.05,0-2.26.74-.22,4.04-.1,5.03-.04.53.03.87.31,1.25.35,2.96.29,2.36-.63,2.36-3.29h1.58Z"/>
      <path d="M67.08,140.92l-1.9,10.21-2.83-.33,1.26-6.59-2.83.66.33-2.29c.07-.08,1.66-.26,1.99-.4.57-.24,1.78-1.53,1.97-1.58.28-.06,1.4.6,2.01.31"/>
      <path d="M19.18,67.8l-.94,7.58c-3.51,0-6.9-1.03-10.4-1.32v-2.31l8.82,1.32.63-5.6,1.89.33Z"/>
      <path d="M20.13,64.18c.04.64-.23,1.16-.33,1.81-.07.43.23.58-.47.51l-9.92-2.65.31-2.3,10.4,2.64Z"/>
      <rect x="75.59" y="149.15" width="2.84" height="2.97"/>
      <rect x="75.59" y="144.88" width="2.84" height="2.63"/>
      <polygon points="142.71 72.74 147.12 74.4 147.28 77.03 140.62 73.77 136.1 74.39 136.1 72.09 140.21 71.61 146.02 66.82 146.48 69.25 142.71 72.74"/>
      <path d="M53.22,102.39c-.07.44.17.74.36,1.1,1.04,1.93,2.61,3.44,3.71,5.32l-3.61,2.44-4.26-4.08-3.45-4.63c-.58-.33-1.19-.26-1.58.34,1.05.91,1.56,2.34,2.37,3.45,10.89,14.82,31.44,19.65,47.22,10.5,5.72-3.32,10.53-8.23,14.07-13.95.29-.79-1.17-.55-1.58-.34-1.19,1.29-2.02,2.95-3.13,4.3-.49.59-3.4,3.75-3.78,3.95-.28.16-.48.2-.8.17-.15-.01-2.4-1.3-2.67-1.5-1.36-1.03.07-1.91.78-2.81.47-.6.69-1.08,1.14-1.76.53-.79,1.4-1.36,1.22-2.51h-1.88c-.02.25.04.53-.06.76-.23.56-3.32,4.76-3.6,4.82l-5.81-2.12c-.74-.5.2-1.77.38-2.59.07-.3.42-.7-.21-.88-1.2-.34-1.64,2.36-2.52,2.92-.94-.47-2.12-.46-3.16-.61-1.25-.19-2.54-.47-3.78-.66-.45-.07-.96.04-1.42,0,.03-.84.15-1.48-.78-1.65-1.25-.23-.71.65-.8,1.65-2.77.33-5.53.63-8.3,1.04-.19.03-.43.39-.51.28-.45-1.31-.84-3.38-2.52-2.97l.94,3.29-6.15,2.33-.48-.17-3.77-5.29-1.58-.16ZM53.21,62.53h-20.64s-.47.46-.47.49v8.4h4.73v18.44h-5.04c-.07.26.31.39.31.5v8.4h21.11v-8.89h-4.72v-18.44h4.72v-8.89ZM118.71,94.43c.08-.09,1.12-1.56,1.27-1.8,3.21-5.31,3.51-15.53,1.15-21.21-4.13-9.95-19.29-11.43-27.26-6.08-7.05,4.72-8.18,17.54-4.9,24.87,4.83,10.79,21.35,12.08,29.17,4.44.14-.14.45-.11.56-.22M62.04,85.26h-6.46s-.47.46-.47.5v13.01h7.56c.05-.69-.08-1.46,0-2.13.04-.35.49-.12.79-.17.29.05,0,.44.34.68,3.38,2.29,11.26,2.86,15.04,1.57,6.8-2.32,9.96-10.44,5.72-16.73-.18-.27-1.06-1.51-1.15-1.6-.17-.17-1.53-1.29-1.85-1.53-3.62-2.73-10.29-3.52-14.58-5.18-1.17-.45-2.19-.86-1.78-2.38.3-1.11,3.95-.96,4.86-.85,3.28.39,6.43,2.31,8.51,4.94h6.78v-12.19h-7.25c-.11.41.36,2.31-.47,1.97-1.03-.42-2.22-1.42-3.3-1.82-4.59-1.71-10.72-1.46-14.94,1.21-1.73,1.1-2.74,2.26-3.52,4.23-.57,1.45-.62,2.31-.78,3.8-.04.36-.32.66-.32.99s.29.63.32.99c1.14,11.1,12.89,10.05,20.07,13.94.31.17.82.05,1.03.57l-.32,1.45c-1.08-.07-2.29.56-3.29.67-2.13.25-5.69-.82-7.52-2.02-1.23-.8-2.92-2.38-3.04-3.91M104.33,53.92c-1.1-1.06-2.33-2.99-3.68-4.24-16.88-15.65-43.49-11.72-55.78,7.92-.14.23-.65,1.14-.48,1.32l1.58-.16c2.28-3.09,4.53-6.4,7.71-8.43.92.59,1.88,1.12,2.8,1.7.28.18.58.36.5.77l-2.78,4.02-.99,2.09,1.55-.04.08-.56.53-.1c-.06-.78.34-.99.82-1.6.87-1.09,1.61-2.27,2.55-3.3l6.12,2.3-.95,3.29,1.56-.02,1.14-2.6c1.15-.34,2.39.51,3.44.64,1.05.13,2.12.22,3.15.33.66.08,1.38-.05,2.05,0,.08.39-.19,1.6.16,1.65.45.06.95-.04,1.41,0v-1.65l8.81-.98.97,2.61,1.55.02-.94-3.29,6.11-2.29c1.46,1.65,3.08,3.51,3.99,5.56l1.55.02c.23-1.11-.68-1.62-1.1-2.31-.26-.42-.38-.92-.64-1.31-.54-.79-1.45-1.68-2.04-2.49-.24-.84,2.74-2.02,3.3-2.48,1.26,0,4.05,3.92,5.21,4.79l2.66,3.47,1.43.32c.24-.23-.88-1.94-1.11-2.3-.72-1.08-1.53-1.96-2.29-2.69M130.69,80.78c0,30.83-23.91,55.81-53.4,55.81s-53.41-24.99-53.41-55.81,23.91-55.82,53.41-55.82,53.4,24.99,53.4,55.82"/>
      <path d="M109.26,89.16c-.07.07-1.56.94-1.73.99-.54.16-1.26,0-1.84.38-1.19.12-3.06-.35-4.06-1.03-1.84-1.25-1.47-3.76-2.09-5.72-.03-2.77,0-5.52.32-8.23.1-.9.65-2.32,1.25-2.97.99-1.09,2.68-.99,3.95-1.48,1.9.57,3.79.49,4.74,2.64.26.59.71,2.19.78,2.81.23,2.14.2,6.73.01,8.91-.04.46-.25,1.49-.39,1.9-.1.28-.83,1.7-.94,1.82"/>
      <polygon points="75.59 105.68 75.59 114.57 72.42 114.75 69.77 110.95 67.71 106.83 71.02 106.01 75.59 105.68"/>
      <path d="M77.17,105.68h2.05l5.83,1.15-2.68,5.1c-.78.5-1.39,2.47-2.03,2.82-1.03.55-2.09-.45-3.16-.17v-8.89Z"/>
      <path d="M70.86,115.56l-2.34.98c-1.79-1.31-3.7-2.49-5.39-3.93-.62-.52-1.49-1.29-2.05-1.81-.36-.35-.04-.62-.72-.85-.39-.13-.22-.29-.21-.64l5.81-1.97,4.91,8.22Z"/>
      <path d="M92.29,108.97c.27,1.31-.96,1.55-1.59,2.13-.33.31-.38.53-.92,1-1.27,1.12-4.61,4.14-6.16,4.14-1.03,0-2.52-1.1-1.41-1.84,1.31-.88.8-1.91,1.3-2.42.11-.11.49-.06.75-.36.65-.76,1.27-2.74,1.89-3.63.17-.25.41-.47.66-.65l5.48,1.63Z"/>
      <path d="M68.34,118.85l1.15-.94c2.05-1.21,3.66-1.49,5.94-1.69.33-.03.63-.34.94-.34s.61.31.95.34c1.42.13,2.64.19,4.04.72.51.19,2.72,1.33,2.73,1.75-.97.95-2.48.69-3.62.82-.39.05-.72.31-1.24.35-3.63.25-7.39-.11-10.89-1"/>
      <path d="M97.33,111.95v.96c-.37-.04-.54.18-.79.34-1.91,1.22-3.75,2.52-5.82,3.47-.83.38-3.2,1.41-3.95,1.48-.41.04-.98-.08-1.11-.5-.13-.41,1.24-1.36,1.58-1.64,1.03-.82,2.34-1.61,3.31-2.47.63-.56,2.75-3.16,3.17-3.28.98-.29,2.52,1.61,3.59,1.63"/>
      <path d="M58.13,110.32c.31-.1.5-.04.77.13.68.44,1.63,1.84,2.35,2.49.97.88,2.28,2.01,3.32,2.79.46.34,2.72,1.29,2.52,1.98-.27.91-2.22.23-2.85.02-2.92-.97-6.28-3.13-8.81-4.95-.41-.29-.35-.36,0-.67.78-.67,1.97-1.01,2.71-1.78"/>
      <path d="M75.27,46.73v8.89c-.98-.07-2.03.1-3,0-1.1-.11-2.87-.48-4.05-.71-.14-.02-.77-.27-.84-.45.03-.79,2.98-5.46,3.64-6.41.3-.43.82-.65.8-1.3l3.44-.02Z"/>
      <path d="M76.85,47.06c1.02-.31,2.1-.56,3.16-.17,1.9,2.31,3.4,5.02,4.72,7.75-2.64.43-5.21,1-7.88.99v-8.56Z"/>
      <path d="M86,53.96l-4.42-8.22c1.73-.74,1.93-.87,3.58.05,2.45,1.36,4.75,3.79,6.82,5.72.11.36-.23.63-.52.77-.74.35-4.97,2.22-5.46,1.68"/>
      <path d="M70.55,45.74l-4.42,8.22c-.57.64-4.99-1.67-5.98-1.64-.12-.51.11-.54.32-.82,1.89-2.61,5.24-4.48,7.75-6.39,1.05-.33,1.33.81,2.33.63"/>
      <path d="M83.78,42.44l-.95,1.15c-3.73,1.85-7.11,2.32-11.11,1.09-1.28-.39-2.19-1.07-3.38-1.58-.1-.77-.02-.52.42-.71.74-.31.99-.17,1.63-.28,3.07-.5,4.81-.59,7.88-.33,1.84.16,3.7,0,5.52.66"/>
      <path d="M65.71,43.13l1.06,1.12c-3.06,1.96-5.8,4.41-8.35,7.05l-3.31-2.11c-.1-.36.25-.62.47-.83.43-.42,1.69-1.24,2.26-1.59,2.42-1.49,5.28-2.53,7.88-3.64"/>
      <path d="M97.02,49.36c-1.08-.08-2.42,1.89-3.29,1.63-.23-.07-.83-.86-1.14-1.14-1.17-1.06-2.67-2.47-4.09-3.62-.72-.58-1.83-1.07-2.51-1.66-.36-.32-.74-.58-.64-1.15.55,0,.64-.34,1.26-.18,2.39.63,8.17,3.41,9.94,5.12.31.3.56.5.47.99"/>
    </g>
  </g>
</svg>