<?xml version="1.0" encoding="UTF-8"?>
<svg id="Layer_2" data-name="Layer 2" xmlns="http://www.w3.org/2000/svg" viewBox="0 0 336.24 153.36">
  <defs>
    <style>
      .cls-1 {
        fill: #fff;
      }
    </style>
  </defs>
  <g id="Layer_1-2" data-name="Layer 1">
    <g>
      <polygon class="cls-1" points="41.22 134.77 36.53 134.77 36.53 131.72 49.36 131.72 49.36 134.77 44.69 134.77 44.69 153.05 41.22 153.05 41.22 134.77"/>
      <path class="cls-1" d="M54.23,147.29v-15.57h3.47v15.78c0,1.89.98,2.8,2.77,2.8s2.8-.91,2.8-2.8v-15.78h3.35v15.57c0,3.84-2.16,6.06-6.22,6.06s-6.19-2.25-6.19-6.06"/>
      <polygon class="cls-1" points="72.57 131.72 76.93 131.72 82.38 145.77 82.38 131.72 85.52 131.72 85.52 153.05 81.99 153.05 75.68 136.69 75.68 153.05 72.57 153.05 72.57 131.72"/>
      <rect class="cls-1" x="91.62" y="131.72" width="3.47" height="21.33"/>
      <path class="cls-1" d="M100.45,147.66v-.91h3.26v.91c0,1.58.98,2.74,2.8,2.74s2.8-1.07,2.8-2.74c0-2.01-.79-2.65-3.93-4.11-3.81-1.8-4.84-3.56-4.84-6.46,0-3.35,2.16-5.67,6.12-5.67s6,2.29,6,5.73v.58h-3.29v-.55c0-1.65-.88-2.8-2.71-2.8-1.65,0-2.65,1.1-2.65,2.65,0,1.83.88,2.47,3.99,3.96,3.84,1.8,4.78,3.6,4.78,6.58,0,3.47-2.19,5.79-6.25,5.79s-6.09-2.29-6.09-5.7"/>
      <rect class="cls-1" x="118.15" y="131.72" width="3.47" height="21.33"/>
      <path class="cls-1" d="M136.41,148.91h-5.64l-.85,4.14h-3.29l4.72-21.33h4.69l4.78,21.33h-3.56l-.85-4.14ZM135.77,145.89l-2.19-10.54-2.16,10.54h4.36Z"/>
      <polygon class="cls-1" points="145.82 131.72 150.18 131.72 155.63 145.77 155.63 131.72 158.77 131.72 158.77 153.05 155.24 153.05 148.93 136.69 148.93 153.05 145.82 153.05 145.82 131.72"/>
      <path class="cls-1" d="M172.51,147.29v-9.81c0-3.87,2.26-6.06,6.31-6.06s6.31,2.19,6.31,6.06v9.81c0,3.87-2.25,6.06-6.31,6.06s-6.31-2.19-6.31-6.06M181.65,147.45v-10.12c0-1.86-1.01-2.86-2.83-2.86s-2.83,1.01-2.83,2.86v10.12c0,1.86,1.01,2.86,2.83,2.86s2.83-1.01,2.83-2.86"/>
      <polygon class="cls-1" points="190.88 131.72 194.36 131.72 194.36 150.01 201.82 150.01 201.82 153.05 190.88 153.05 190.88 131.72"/>
      <rect class="cls-1" x="206.85" y="131.72" width="3.47" height="21.33"/>
      <polygon class="cls-1" points="215.32 131.72 218.88 131.72 222.33 148.97 225.8 131.72 229.12 131.72 224.49 153.02 219.95 153.02 215.32 131.72"/>
      <polygon class="cls-1" points="234.12 131.72 245.39 131.72 245.39 134.77 237.59 134.77 237.59 140.71 243.9 140.71 243.9 143.76 237.59 143.76 237.59 150.01 245.39 150.01 245.39 153.05 234.12 153.05 234.12 131.72"/>
      <path class="cls-1" d="M258.31,147.29v-9.81c0-3.87,2.26-6.06,6.31-6.06s6.31,2.19,6.31,6.06v9.81c0,3.87-2.25,6.06-6.31,6.06s-6.31-2.19-6.31-6.06M267.45,147.45v-10.12c0-1.86-1.01-2.86-2.83-2.86s-2.83,1.01-2.83,2.86v10.12c0,1.86,1.01,2.86,2.83,2.86s2.83-1.01,2.83-2.86"/>
      <rect class="cls-1" x="276.68" y="131.72" width="3.47" height="21.33"/>
      <polygon class="cls-1" points="286.25 131.72 289.72 131.72 289.72 150.01 297.19 150.01 297.19 153.05 286.25 153.05 286.25 131.72"/>
      <path class="cls-1" d="M4.15,95.97l-3.44-24.93c0-.26.97-.7,1.06-.09,3.52,25.02,14.27,23.79,22.38,23.79,9.69,0,16.65-5.64,16.65-12.6,0-17.27-39.38-12.6-39.38-32.25,0-12.51,10.31-16.48,18.5-16.48,6.87,0,13.74.97,20.53.97l2.82,23.08c0,.35-1.06.18-1.06-.09-3.44-23-15.86-21.94-21.94-21.94-6.7,0-11.81,3.08-11.81,10.04,0,19.38,39.38,10.13,39.38,30.84,0,13.74-12.78,20.44-23.35,20.44-6.52,0-10.66-.79-17.53-.79h-2.82Z"/>
      <path class="cls-1" d="M53.66,72.8c0-14.19,9.43-24.32,23.52-24.32s23.7,10.13,23.7,24.32-9.52,24.23-23.7,24.23-23.52-10.04-23.52-24.23M92.69,72.71c0-13.04-5.73-22.73-15.51-22.73s-15.33,9.69-15.33,22.82,5.64,22.73,15.33,22.73,15.51-9.69,15.51-22.82"/>
      <path class="cls-1" d="M119.56,89.19c0,2.47.79,4.23,2.82,4.23,1.5,0,2.82-.97,4.41-3,.26-.44,1.32.44,1.15.79-2.29,3.17-6.26,5.64-9.96,5.64-5.82,0-6.61-4.93-6.61-7.4v-47.58c0-5.2-.53-8.81-5.73-8.55-.44,0-.44-1.15-.09-1.23,3.7-.7,8.9-1.32,12.69-2.03.88-.18,1.32-.09,1.32.62v58.5Z"/>
      <path class="cls-1" d="M146.35,89.19c0,2.47.79,4.23,2.82,4.23,1.5,0,2.82-.97,4.41-3,.26-.44,1.32.44,1.15.79-2.29,3.17-6.26,5.64-9.96,5.64-5.81,0-6.61-4.93-6.61-7.4v-29.25c0-5.2-.53-8.81-5.73-8.55-.44,0-.44-1.15-.09-1.23,3.7-.7,8.9-1.32,12.69-2.03.88-.18,1.32-.09,1.32.62v40.18Z"/>
      <polygon class="cls-1" points="200.36 49.63 180.53 96.06 177.19 96.06 157.71 49.63 166.61 49.63 182.47 87.6 198.42 49.63 200.36 49.63"/>
      <path class="cls-1" d="M227.5,48.48c11.28,0,17.18,7.75,17.18,14.1,0,4.41-3,8.02-9.25,8.02h-24.49v1.67c0,8.81,5.46,19.74,17.89,19.74,7.75,0,12.51-5.46,16.21-11.45.26-.44,1.06.35.97.62-4.58,9.25-10.13,15.77-20,15.77-13.48,0-23.26-10.22-23.26-23.61,0-14.36,10.57-24.85,24.76-24.85M231.28,69.28c4.41,0,6.96-4.23,6.96-8.72,0-5.2-3.35-10.75-11.1-10.75-8.19,0-14.8,9.07-16.21,19.47h20.35Z"/>
      <path class="cls-1" d="M256.48,96.06v-35.95c0-5.2-.53-8.81-5.73-8.55-.44,0-.44-1.15-.09-1.23,3.7-.7,8.9-1.32,12.69-2.03.88-.18,1.32-.09,1.32.62v9.43l2.47-2.47c5.11-5.11,6.26-7.49,11.1-7.49,2.03,0,4.85.88,6.26,2.29,2.56,2.55-.18,6.43-3.08,6.43-.79,0-1.59-.26-2.29-.97-1.67-1.67-3.44-3.44-5.29-3.44-.88,0-1.76.35-2.64,1.23l-6.52,6.43v35.68h-8.19Z"/>
      <path class="cls-1" d="M290.23,85.75c0-6.87,4.23-12.16,19.12-16.04,3-.79,6.43-1.5,10.31-2.2v-4.49c0-8.64-5.2-12.69-10.92-12.69-6.26,0-9.87,4.93-9.87,11.45,0,2.29-1.94,3.44-3.79,3.44s-3.88-1.15-3.88-3.52c0-7.93,13.83-13.22,20.18-13.22,8.19,0,16.48,2.47,16.48,15.33v25.55c0,2.47.79,4.23,2.82,4.23,1.5,0,2.82-.97,4.41-3,.26-.44,1.32.44,1.15.79-2.29,3.17-6.17,5.64-9.87,5.64-5.82,0-6.61-4.93-6.61-7.4v-6.43h-.18c-1.94,6.17-7.31,13.74-15.77,13.74-7.4,0-13.57-4.32-13.57-11.19M319.65,79.94v-11.1c-3.96.62-7.22,1.41-9.87,2.2-11.1,3.61-11.72,8.99-11.72,12.51,0,5.29,4.23,8.72,9.07,8.72,6.08,0,10.22-4.93,12.51-12.33"/>
      <path class="cls-1" d="M168.64.28c-.95-.53-1.7-.26-2.33.51-3.02,3.49-7.22,6.26-11.29,8.26-.96.45-3.79,1.74-4.54,2.2-.67.38-1.38.84-2.11,1.02-1.05.21-2.17.01-3.23-.14-1.23-.23-2.54-.73-3.77-.93-.73-.13-1.42-.08-2.15-.13-1.37-.15-2.72-.12-4.12.03-4.17.33-8.2,2-11.56,4.44-3.25,2.17.59,2.04,2.31,2.31,6.12.76,11.45-.74,17.1-2.89.26-.04,4.91-2.46,3.79-.99-2.25,2.95-3.98,6.13-5.28,8.83-.1-.02-.19-.03-.29-.05-.64-.04-2.21.18-2.87.5-.96.48-1.79,1.17-2.42,2.03-1.23,1.55-1.62,3.55-1.65,5.51-.04,3.73,1.41,8.03,4.65,10.11,1.45.9,3.06,1.01,4.62.33h.02c1.83-.71,3.05-2.42,3.74-4.2,1.94-4.55.55-11.92-4.35-13.84,1.3-2.75,2.96-5.7,4.8-7.52,3.77-3.75,7.33-4.89,9.04-5.7,1.29-.61,2.52-.93,3.76-1.56.8-.42,1.41-.54.87.71-1.45,2.96-2.57,6.3-2.32,9.59.34,4.25,1.99,8.25,4.3,11.79.52.84,1.05,1.64,1.52,2.49.35.62.67,1.31.99,1.94.16.32.52.99.87.7.71-.9.59-2.41.73-3.5.42-3.59.02-7.19-.85-10.7-.88-3.64-4.16-9.41-3.65-12.95.18-1.15,1-2.01,1.78-2.8,1.03-1.06,2.23-2.01,3.37-2.96.93-.74,2.22-1.55.51-2.43"/>
      <path class="cls-1" d="M0,112.61c110.64-2.18,222.69-2.19,333.34,0-110.64,2.19-222.69,2.18-333.34,0"/>
    </g>
  </g>
</svg>