<?xml version="1.0" encoding="UTF-8"?>
<svg id="Layer_2" data-name="Layer 2" xmlns="http://www.w3.org/2000/svg" xmlns:xlink="http://www.w3.org/1999/xlink" viewBox="0 0 576.42 259.45">
  <defs>
    <style>
      .cls-1 {
        filter: url(#drop-shadow-1);
      }

      .cls-2 {
        fill: #fff;
      }

      .cls-3 {
        fill: #506300;
      }

      .cls-4 {
        fill: #3b4f36;
      }
    </style>
    <filter id="drop-shadow-1" x="-67.64" y="-94.89" width="780" height="464" filterUnits="userSpaceOnUse">
      <feOffset dx="33.68" dy="6.74"/>
      <feGaussianBlur result="blur" stdDeviation="33.68"/>
      <feFlood flood-color="#333" flood-opacity=".7"/>
      <feComposite in2="blur" operator="in"/>
      <feComposite in="SourceGraphic"/>
    </filter>
  </defs>
  <g id="Layer_1-2" data-name="Layer 1">
    <g class="cls-1">
      <g>
        <path class="cls-4" d="M370.12,29.61c-4.38,1.03-10.62,2.09-14.32,4.65-.91.63-2.45,1.75-.97,2.44.45.21.73-.16.83-.1,4.2,2.44,11.4,4.11,16.51,6.56,9.28,4.45,18.76,9.62,28.59,13.65,2.75,1.13,6.31,1.93,8.93,3.13,1.13.52,1.69,1.62,3.23,1.53,2.28-.14,3.61.39,5.86.96,5.84,1.49,11.89,2.37,17.88,3.04,15.24,1.71,27.47-.71,41.63-6.41,6.83-2.75,12.03-6.37,18.25-9.88,1.67-.94,4.58-2.91,6.25-3.4.44-.13,1.42-.17,1.86-.01-.36.8-.99,1.72-1.29,2.5-2.94,7.76-5.55,15.68-9.24,23.22-2.69,5.49-5.34,9.33-11.32,11.41-7.75,2.69-13.47,2.44-21.32,1.23-13.32-2.04-26.52-5.41-40.01-7.26-12.09-1.65-24.56-2.32-36.81-1.98-5.19.14-9.05.5-14.15,1.24-3.5.51-7.07.79-10.54,1.33-6.27.98-12.29,2.84-18.48,4.04-.1.05-.25.02-.35.07-1.88.6-10.22,2.45-10.47,4.47-.07.53.86,1.26,1.24,1.39,2.14.74,5.15.86,7.27,1.42,13.36,3.49,25.83,9.41,39.11,13.42,4.73,1.43,10.81,3.24,15.49,3.83,2.45.31,5.46,1.46,7.98,1.83,9.92,1.46,21.43,2.85,31.44,1.31,2.34-.36,5.11-.64,7.31-1.08l7.42-1.47c.31-.09.63-.18.94-.27,1.26-.43,3.08-1.18,4.39-1.51,8.82-2.21,16.55-6.02,24.27-10.85,2.25-1.41,4.08-3.18,5.92-4.66.74-.6,4.8-3.63,5.35-3.25.19,2.73-.94,5.72-2.05,8.22-2.45,5.52-4.82,11.36-7.89,16.97-2.87,5.26-5.86,10.73-9.63,15.15-5.04,5.91-13.77,13.25-21.16,15.58-.4.13-.73.51-1.12.68-1.92-.8-2.31-3.17-3.21-4.65-5.1-8.46-16.83-16.76-26.47-19.06-21.74-5.18-45.1.41-63.73,12.36-11.76,7.54-19.19,15.49-26.62,26.89-2.18,3.34-4.08,7.26-5.22,10.91-2.07,6.62-3.42,11.47-2.32,18.51.02.15-.3,1.17-.25,1.68.67.21.62,1.29.74,1.87.38,1.82.67,3.67,1.08,5.47,2.32,10.11,11.37,18.17,20.54,22.15,21.69,9.42,49.65,4.71,70.19-5.77,10.68-5.44,22.33-13.76,29.12-23.54.77-1.11.53-.7,1.26-1.43.18-.18,1.05-2.43,1.35-2.94,5.07-8.86,7.87-18.9,6.71-29.2-.15-1.33-.66-2.7-.79-4.05,1.4-.45,2.5-1.53,3.76-2.26,9.69-5.61,22.68-14.56,28.37-24.48.45-.79-.08-1.19,1.58-1.22-.66,1.56-.7,3.31-1.04,4.97-1.61,7.77-4.6,15.05-6.43,22.65-3.85,15.96-7.83,32.44-8.69,49.04-.22,4.35-.31,9.92.3,13.94.15.98-.05,2.65.03,3.72.88,10.79,2.9,21.34,5.55,31.89.6,2.39.88,5.71,2.07,7.88.21.37,1.44,1.43,1.76,1.39,2.16-1.08,2.59-2.76,3.72-4.49,9.77-15,16.47-32.15,19.17-49.98.35-2.31,1.07-6.37,1.09-8.4.09-8.78.3-18.03-.77-26.75-.67-.21-.62-1.29-.74-1.87-.41-1.98-1.34-5.16-1.01-6.96.99-5.29-6.3-19.76-8.05-25.75-1.18-4.03-1.52-8.45-2.39-12.35-.1-.47-.54-.89-.57-1.31-.05-.58.27-4.46.42-4.85.11-.3.54-.3.64-.59.25-.7.13-1.7.57-2.55,1.61-3.14,3.59-6.46,4.29-10.07l1.69-2.38c.5,1.38.1,2.85.24,4.25.55,5.68,2.03,11.66,3.34,17.23,5.31,22.49,13.08,43.18,29.14,60.24,11.14,11.84,25.78,22.23,40.63,29.44,1.61.78,4.17,2.08,5.88,2.65.6.2,1.25.21,1.86.32.25-.07.62-.72.65-1.01.09-.96-.75-4.43-1.04-5.61-3.13-12.76-10.53-24.3-17.43-35.25-10.55-16.72-23.2-32.26-36.87-46.4-4.92-5.08-10.22-11.13-15.12-16.84-3.44-4.01-4.92-6.54-7.2-11.21-.63-1.3-1.43-3.25-1.32-4.7.18-2.38,1.71-7.07,2.57-9.47,8.13-22.85,20.9-47.51,37.57-65.65,1.21-1.31,2.91-2.48,3.99-3.76.48-.57.46-1.28,1.13-1.75,1.33-3.4-1.46-5.43-3.18-7.95-1.29-1.88-2.3-3.97-3.88-5.65-2.22-.04-3.25,2.09-4.43,3.66.73,0-.19.97-.32,1.16-5.09,7.6-10.29,15.47-15.65,22.91-.24.33-.68,1.39-1.17.6-3.56,4.99-6.36,9.35-12.58,11.64-4.36,1.61-10.59,1.26-15.17.71-10.85-1.3-21.74-4.56-32.43-7.35-7.1-1.86-14.25-4.29-21.54-5.39-18.09-2.73-34.8-2.91-53.04-.13-.21.67-1.29.61-1.87.74-1.76.37-3.53.71-5.3,1.05-.59.11-1.56.57-2.01.03ZM513.24,123.39l-3.16-1.23.23-.6,3.16,1.23-.23.6ZM516.65,126.87l-1.92-.56-2.1-1.21c.73-.55,4.18,1.56,4.02,1.77ZM518.9,130.83c-1.13-.04-1.73-1.03-2.54-1.7.33-.46,2.84,1.22,2.54,1.7ZM520.83,134.12c-1.08-.36-2.17-.76-3.26-1.1-.51-.16-.94.43-.93-.64l4.23,1-.04.73ZM526.29,138.54c-2.57-1.13-5.83-.9-8.18-2.42l7.22,1.34.96,1.08ZM533.02,145.65c-1.46-1.18-3.19-1.38-4.91-1.82-.37-.1-1.22-.2-1.26-.62l1.9.36.03-.74c.61.39,1.39.33,2,.69.37.22.52.67.8.85.39.26,1.92.35,1.44,1.29ZM531.14,148.22l-4.37-1.03-1.13-.82,4.37,1.02,1.13.83ZM542.13,155.59c-.96-.46-2.11-1.14-2.92-1.81-.51-.42-1.29-1.07-1.44-1.73l1.65.96,2.71,2.58ZM536.09,153.94l-.16.54-3.54-1.08.16-.54,3.54,1.08ZM539.83,158.8c-.66,1.38-1.28.16-2.08-.09-.8-.25-2.07.08-2.18-1.08l4.27,1.17ZM545.44,161.18c-1.29-.77-2.86-.68-4.19-1.29-.51-.24-1.04-.22-1.03-.98l3.47.99c.62.39,1.7.32,1.74,1.28ZM550.4,166.8c-1.81-.65-3.86-2.04-5.59-2.64-1.71-.59-3.67.06-5.49-.5l-2.79-1.1c2.83.15,6.12.33,8.81,1.25.72.25,1.5.81,2.32,1.11.56.2,1.4.08,1.78.32.11.07,1.37,1.26.94,1.56ZM551.35,170.65c-2.55-1.42-5.03-1.82-7.9-2.15l-2.26-.97c3.16-.12,6.36.59,9.12,2.16.46.26,1.06.15,1.03.97ZM554.44,175.17l-3.42-1.06c-1.55-.45-4.15.16-4.47-1.78,2.6.91,5.81.87,7.9,2.84ZM554.55,178.9c-.68-.22-2.34-.55-3.16-.72-.54-.11-1.88.51-2.04-.89,1.07.15,2.18-.18,3.2.02.67.13,3.76,1.56,4.5,1.97.48.27.97.4.97,1.07-.15.25-3.01-1.29-3.48-1.44ZM561.09,185.6c-1.89-1.48-3.93-2.35-6.09-3.25-.41-.17-.95-.39-1.13-.82l3.48.98c.83.82,2.43,1.28,3.22,1.83.19.13.96,1.02.53,1.27ZM564.64,191.5c-1.91-1.34-4.03-2.37-5.88-3.79-.43-.33-.96-.41-.95-1.1,2.12.9,4.34,2.01,6.03,3.57.45.41.82.53.8,1.32ZM568.43,199.56c-.48.18-.59-.5-.81-.85-.83-1.36-.99-2.09-1.51-3.46-.07-.07-.39-.06-.59-.25-.84-.8-1.45-1.8-2.51-2.44,1.7.05,2.56,1.29,3.1,2.69,1.18,1.07,2.05,2.69,2.32,4.31ZM568.09,208.07c-1.2-.75-2.92-2.73-3.82-3.89-.36-.46-.7-.81-.71-1.45,1.36.53,2.04,2.12,3,3.06.4.39,3.28,2.17,2.91,2.74-.61.26-.92-.17-1.38-.46ZM563.51,205.3c-2.94-2.91-5.04-6.4-6.93-10l1.03-.18c1.77,2.23,2.93,4.88,4.49,7.25.38.58,2.57,2.18,1.4,2.93ZM553.86,198.22l-1.43-7.24.35-.07c-.03.39.47.64.53.81.62,1.73.94,4.75,1.33,6.71.08.39,1.34,1.56,1.69,2.05.25.34,1.01,1.3.7,1.7-.9-.85-2.95-2.84-3.17-3.96ZM550.61,196.21c-.89-2.36-1.36-4.05-2.09-6.49-.43-1.44-1.25-2.94-1.62-4.44.1-.28,1.39.31,1.45.35,1.27.95.82,3.47,1.05,4.65.22,1.11,1.17,2.81,1.5,4.09.22.88.34,1.79.53,2.67-.42.19-.71-.55-.82-.84ZM544.85,192.01c-.94-1.32-1.61-6.28-1.91-8.15-.37-2.34-.4-1.87-1.1-3.82-.29-.81-.29-1.8-.53-2.64l2.75,3.67c.99,2.24.77,4.47.69,6.76-.02.63-.33,1.28-.19,1.88.41,1.71,2.23,2.8,2.63,4.5-.73-.38-1.89-1.56-2.35-2.21ZM539.54,185.26c-.4-.83.23-2.21.2-2.78-.04-.95-.45-2-.23-3.06l-.85-5.16,1.28,5.45c.06.92.06,1.79.15,2.71.25,2.41.2,3.09,1.06,5.5.22.62.61,1.14-.26,1.31-.21.04-1.24-3.45-1.35-3.97ZM535.79,182.89c-.33-1.33-.12-2.35-.3-3.42-.53-3.12-1.22-6.26-1.86-9.36-.09-.46.05-.98-.03-1.29-.11-.44-1.09-1.11-.88-1.47.43-.73.85.31,1.01.52,2.54,3.18,2.41,9.2,2.79,13.22.07.69.71,1.35-.45,1.38.03.11.03.24.07.35.01.03.31.12.44.47.31.84.55,1.73.89,2.57-1.04-.31-1.46-2.04-1.69-2.97ZM524.97,159.72l.98,4.94c-.6.2-.5-.74-.6-1.16-.43-1.98-.66-3.89-.8-5.9l1.44,1.73,1.05,5.3c.01.06-.16,1.1-.53,1.02-.29-1.54-.08-2.92-.51-4.5-.11-.4-.45-1.57-1.03-1.44ZM528.92,162.97l1.49,2.11c.41,1.17.33,1.65.19,2.7.21,1.2.12,2,.22,3.08.08.78,1.05,1.22-.3,2.07.2-1.47-.32-3.14-.15-4.55.04-.38.23-.57.23-.6-.35-1.95-1.09-3-1.68-4.8ZM530.09,176.32l.91,2.75.42-1.55c.22,2.45,1.24,4.4,2.38,6.5-2.68-1.67-3.29-4.79-3.72-7.7ZM527.26,178.71l-1.39-8.9c1.28.2.84,1.4.98,2.2.28,1.59.61,3.29.77,4.95.03.31.13,1.71-.36,1.75ZM522.37,168.81c-1.14-5.24-.25-10.1-1.16-15.14-.08-.42-.52-1.27.11-1.3.17.53.58.89.66,1.48.67,5.09-.43,10.56,1.61,15.5l-.05,3.49c-.95-.99-.36-2.1-.59-2.97-.1-.38-.49-.71-.57-1.06ZM517.07,151.21l.3-3.93c.11.75.4,1.52.43,2.28.19,4.23-.54,8.37-.46,12.4.12.14.63.21.52.77l-.1,3.18c-.5-1.39-.39-2.62-.42-3.95-1.66-1.94,1.12-8.03-.27-10.75ZM511.6,144.02c-.18,1.53.46,3.52-.93,4.58-.21-.88.49-1.71.52-2.56.03-.81-.82-2.06.4-2.03ZM513.57,142.89c.92,1.88-.1,5.44.44,7.08.09.28.67.45.78.93.09.39-.45,2.21-.4,3.11.05.86.24,1.58.39,2.4.08.43.52,1.26-.11,1.3-.63-1.71-.45-3.53-.65-5.18-.21-1.78-.88-3.78-.44-5.5v-4.14ZM509.92,135.54l1.01,5.12s-.5.96-.64.49c.28-1.49-.22-2.85-.48-4.31-.08-.43-.52-1.26.11-1.3ZM506.12,131.16c1.09,1.32.81,2.57,1.19,4.17-1.02.41-.47.13-.62-.41-.23-.82-.77-1.75-.95-2.48-.07-.3-.14-1.27.38-1.28ZM499.95,112.93c.72-.05.57.49.72.77,1.45,2.78,3.02,5.5,4.37,8.33,4.69,6.78,8.96,13.72,13.93,19.9,1.25,1.56,2.4,4.43,3.73,6.24.53.72,1.95,1.98,2.53,2.7,2.32,2.87,4.74,6.77,7.2,9.84,1.26,1.58,2.88,3.99,4.1,5.31.59.64,1.24.53,1.62.89.92.88,1.69,3.07,2.37,3.69,3.93,3.55,7.4,8.16,11.19,11.85,1.52,1.48,1.56,3.06,2.16,3.85.85,1.1,3.42,2.77,4.44,3.92,1.73,1.93,4.14,5.4,5.9,7.66,2.07,2.65,4.45,5.33,5.9,8.34-1.92-1.08-3.09-3.36-4.49-4.95-7.64-8.69-14.88-17.14-22.51-25.84-15.75-17.97-29.46-36.83-41.31-57.71l-1.84-4.77ZM493.38,154.99c-.8-.79-1.46-1.54-1.98-2.56-.17-.34-.7-1.06-.02-1.12l3.03,4.17c-.87.38-.64-.11-1.03-.49ZM494.9,159.79c-.7-.15-1.44-1.16-1.74-1.74-.16-.31-.58-1.19.05-1.22l1.69,2.97ZM495.21,165.51c-1.01-1.69-3.41-4.04-3.96-5.54-.11-.3-.47-1.33.12-1.32,1.16,2.17,2.74,4.01,4.08,6.03.31.47.72.79.71,1.46-.96.37-.63-.1-.94-.63ZM495.26,171.82c-.53-.68-.4-1.7-.75-2.53-.51-1.21-2.11-2.36-2.16-3.86,1.53.81,2.51,3.3,3,4.91.19.61.56.82-.09,1.48ZM493.88,173.2c-.73-.43-2.64-2.06-2.94-2.69-.12-.24-.18-1.2.34-1.19.19,1.83,2.43,2.07,2.6,3.89ZM494.57,178.56l-2.92-3.22c-.1-.75-.66-1.22-.93-1.78-.16-.33-.59-1.19.05-1.23l3.8,6.22ZM497.16,187.96c-1.03-.47-1.24-1.75-2.05-2.66-1.92-2.17-4.01-3.31-5.39-6.12-.17-.34-.7-1.05-.02-1.12,1.56,3.06,4.36,5.25,6.53,7.86.64.77,1.13.43.93,2.04ZM496.87,198.49c-.54-1.78-.58-3.63-1.52-5.28-1.44-2.53-3.92-4.24-5.63-6.52l.18-2.06c0,1.38,1.01,1.83,1.71,2.7,1.32,1.65,4.08,4.63,4.87,6.45.57,1.32.5,3.66,1.01,5.12-1.04.42-.47.1-.62-.41ZM495.36,204.37c-.09-2.22.27-2.76-.8-4.97-1.2-2.48-3.71-3.78-4.65-5.86-.16-.34-.6-1.17.05-1.21.93,2.46,3.6,3.73,4.75,5.95,1.2,2.32,1.49,4.63,1.15,7.19-.64.2-.47-.69-.49-1.09ZM494.71,210.82l-1.15-5.83c-.49-2.5-3.61-4.1-4.85-6.02-.33-.51.07-.77.64-.49.24.12,3.12,3.55,3.43,4.02.37.56,1.44,2.51,1.63,3.06.53,1.51.53,3.54,1.01,5.12l-.71.14ZM488.8,205.02c-.27,1.9,2.42,2.87,3.18,4.11.74,1.21.49,2.94.68,4.29-.57.21-.57-.8-.61-1.17-.05-.59.18-1.23-.02-1.75-.57-1.48-3.44-3.1-3.85-4.81-.17-.7-.04-.58.61-.68ZM493.36,216.96c.11-.92.14-2.34.02-3.22-.11-.84-1.18-1.54.13-1.57.35,1.33.51,2.45.42,3.81-.04.64.5.95-.57.98ZM492.36,221.19l-2-4.11c-.77-.39-1.12-2.45-1.24-2.52-.11-.07-.46.1-.67-.19-.4-.53-.74-1.62-.81-2.3l.3-2.11c.1,3.12,1.62,4.7,3.5,6.92l.92,4.31ZM490.43,228.18l-1.11-1.8c.83-3.19-1.54-4.56-2.42-6.88-.13-.34-.53-1.26.09-1.28.56,1.63,2.28,3.21,2.77,4.8.44,1.43-.05,3.6.66,5.16ZM488.45,231.14c-1.27-.16-.74-1.32-.97-2.04-.26-.82-.72-1.54-1-2.34,1.63.93,1.77,2.75,1.96,4.38ZM485.89,238.62c-1.49-.28-.76-1.76-.91-2.57-.15-.81-.94-2.2-1.19-3.14-.08-.31-.44-1.87.03-1.94,1.1.62.89,2.17,1.18,3.26.17.61.62,1.1.73,1.68.16.8-.27,1.85.15,2.72ZM483.35,242.42c-.15-1.71-.47-3.47-.64-5.17-.03-.32-.07-1.36.44-1.39-.06,2.03.51,3.92.8,5.9.09.58-.11,1.05-.6.66ZM481.86,246.02l.46-1.37,1.45-1.94c.29,1.46-1.18,2.25-1.91,3.31ZM476.58,236.05l-.28,1.5-.92,1.68c-.31-1.05.59-2.37,1.2-3.17ZM477.51,229.63c.11.67-.36,1.57-.67,2.15-.63,1.18-1.64,2.17-2.04,3.53l-1.11.94c1.29-2.2,2.01-4.76,3.83-6.62ZM477.8,225.38c.25-.62-.14-1.31.44-1.39.76,2.47-2.04,4.16-3.19,6.13-.27-.63.19-.91.46-1.38.58-1,1.93-2.47,2.29-3.37ZM477.95,219.35c.14-.09,1.47-1.66,1.39-.91-.28,2.46-5.43,4.2-5.33,7.01l-1.36,1.83,1.3-4.49c.27-.84,1.2-1.12,1.66-1.59.23-.23.12-.57.2-.67.46-.55,1.48-.76,2.14-1.19ZM478.23,211.88c.3-.08.3.43.32.67.45-.73.39-1.57,1.06-2.04l-.5,3.03-.7.14c.1-.42.17-.68.14-1.13-.5.8-1.34,1.67-1.89,2.57-.75,1.24-1.54,3.27-2.33,4.41-.16.24-1.03.82-1.24.71,1.27-3.13,3.25-5.6,5.14-8.35ZM474.45,212.26l-2.83,4.23c-.18-.57.22-1.16.47-1.68.48-1.02,1.18-2.26,2.36-2.55ZM475.16,212.12l.76-1.77,3.9-4.29c.28.21-.39,1.58-.56,1.92-.9,1.76-2.62,2.9-4.11,4.14ZM474.78,207.42c1.35-1.65,3.41-3.89,4.53-5.39.34-.46.68-2.63,1.84-2.29-.77,1.29-1.03,2.66-1.99,3.88-.74.94-2.03,2.4-2.86,3.29-1.69,1.83-3.63,3.33-5.17,5.27-.24-.63.25-1.13.6-1.59.82-1.06,2.14-2.08,3.04-3.17ZM473.93,203.64l.43.29-2.68,4.02-.43-.29,2.68-4.02ZM477.09,199.63c.09.95-.89,2.12-1.45,2.86-.33.43-.41.96-1.1.95l2.55-3.8ZM472.42,197.74c3.31-3.92,5.79-7.17,8.2-11.83.63-1.22.94-2.61,1.63-3.8.88.42.49.48.35,1.15-.17.8-.56,1.71-.92,2.45-.89,1.81-2.6,4.26-3.74,6.07-1.53,2.44-3.68,4.82-4.61,7.5l-1.07-.12c.19.73-.55,1.18-1.24,1.31-.13-.07,1.2-2.48,1.4-2.72ZM479.04,194.65c.25-.53,2.75-4.77,3.15-4.47.04,1.85-1.96,2.95-2.02,4.56l-1.45,1.99c-.26-.78-.02-1.39.32-2.08ZM472.91,190.55c.69.43.64.21.34.84-.66,1.38-1.55,2.47-2.57,3.64-.66-.53,1.63-4.02,2.23-4.47ZM475.05,187.38c1.69-2.36,3.36-4.75,5.01-7.06.91-1.28,1.88-2.51,2.74-3.83-.05.55-.23,1.75-.41,2.18-.81,1.92-2.67,3.33-3.88,4.9-1.49,1.94-2.71,4.53-4.24,6.35-.38.45-.69.46-.92,0-.03-1.11,1.15-1.74,1.71-2.53ZM480.26,174.04c1.07-1.78,2-3.67,3.18-5.39l-.53,2.86-9.79,14.58-1.16,2.44c0-1.67,1.11-3.53,1.95-4.97,1.85-3.17,4.41-6.32,6.34-9.52ZM477.36,173.16c.31.65-.25.91-.47,1.37-.3.62-.37,1.55-1.16,1.52-.48-.36,1.49-2.99,1.63-2.89ZM482.75,163.29c.3.66-.01,1-.2,1.55-.52,1.5-1.77,4.02-2.73,5.21-.25.31-1.38,1.66-1.68,1.49.62-.99,1.12-2.19,1.68-3.16.45-.78,1.61-1.66,1.72-2.99l1.21-2.1ZM481.29,152.2c.4,1.54-1.26,2.96-1.57,3.98-.19.65.62,1.26-1.41,1.38l1.15-2.44,1.82-2.92ZM485.58,129.34l1.71,53.23c.57,5.15-.58,12.15-1.15,17.47-1.16,10.85-2.93,22.27-5.04,32.91-.65,3.28-1.2,6.66-1.89,9.91-.49,2.32-.79,5.02-2.1,7.02.62-6.02,2.22-11.87,3.07-17.85.59-4.1.69-8.38,1.18-12.51,1.26-10.59,2.81-21.18,3.83-31.77.18-1.83.19-3.71.19-5.55.23,0,.53-.16.7-.14-.7-5.9-.1-11.84-.24-17.78-.25-10.77-1.57-20.99-.76-31.78.08-1.03-.49-2.46.49-3.17ZM382.75,219.03c.31-.03,1.71-.13,1.75.36-1.28.54-2.89.23-4.1.5-.63.14-2.01,1.42-2.04-.02,1.49.05,2.82-.68,4.39-.84ZM419.17,32.76c-.44-.03-.89-.41-1.23-.67-.58-.45-1.6-1.32-1.86-2.02.7.11,3.44,2.08,3.1,2.69ZM425.33,35.36l-2.34-2.46.46-.44,2.34,2.46-.46.44ZM416.9,37.98l4,3.86.71,1.45c-.97-.28-1.41-1.43-2.09-2.14-.34-.36-.9-.51-1.24-.89-.46-.49-1.07-1.63-1.38-2.28ZM416.64,42.25c.43.33.96.42.95,1.1-1.29-.67-3.04-1.49-3.52-2.97.87.57,1.74,1.24,2.57,1.88ZM423.66,38.65c.55.53.4.88.58,1.18,1.33,1.03,1.35,1.25,2.32,2.48.38.25,3.43,1.72,3.03,2.34-1.49.13-2.28-1.39-3.03-2.34-1.45-.94-1.42-.97-2.32-2.48-.25-.19-2.76-1.83-2.61-2.05.61-.19,1.64.5,2.03.87ZM428.68,38.46c.89.87,1.74,2.06,2.55,2.83.89.84,2.12,1.58,3.2,2.76.36.4.87.49.81,1.31-2.9-1.73-4.78-4.55-7.22-6.83-.28-1.03.35-.37.66-.07ZM435.93,40.44c1.36,1.28,3.3,2.49,3.97,4.37-1.24-.27-1.69-1.61-2.51-2.42-1.73-1.69-4.2-2.95-5.23-5.23,1.54.64,2.65,2.21,3.78,3.28ZM449.81,47.62c-2.25-.87-4.19-2.43-5.66-4.35-.32-.42-.84-.6-.78-1.35,2.26,1.46,3.71,4.49,6.48,4.96l-.04.74ZM450.49,42.72l1.61,1.02,3.03,3.93c-1.78-1.14-3.64-3.05-4.64-4.95ZM439.49,37.19l3.17,3.04c-1.3-.62-2.93-1.44-3.17-3.04ZM443.78,37.44c-.46-.5-1.12-.93-1.25-1.59.64,0,2.51,1.67,2.25,2.12-.45.78-.85-.37-1-.54ZM448.9,40.29c.32.59.72.58.07,1.26l-1.93-3.28c.86.22,1.47,1.3,1.86,2.03ZM452.62,38.63l3.45,2.85c1.33,2.56,3.44,4.23,5.92,5.57-2.69.24-4.18-3.18-6.32-4.13l-3.04-4.29ZM456.57,38.21l6.48,6.79c1.18.46,1.98,1.06,3.21,1.38-.49.97-.45.45-1.08.24-.85-.29-1.89-.67-2.13-1.62-1.38-.53-2.72-1.63-3.8-2.79-.97-1.04-2.21-2.66-2.68-4ZM470.72,44.76c1.34.6,3.23.5,4.32,1.55-1.05.2-3.15.14-4.02-.4-.21-.13-.34-.54-.59-.7-.88-.58-2.29-1.23-2.65-2.24,1.1.33,1.91,1.33,2.94,1.79ZM479.14,46.6c-.86.31-2.99-2.32-2.74-2.76,1.4.64,3.27.82,2.74,2.76ZM515.23,36.16c.19,1.29.11,3.15-1.56,3.24-.31-.19.56-1.76.75-2.1.22-.38.33-.97.8-1.14ZM520.69,28.48c.2.15-.08,1.26-.25,1.52-.32.48-.95.55-1.31.97-.47.54.05,1.37-.99,1.32-.11-.48.3-1.59.54-1.94.32-.46.83-.48,1.13-.79.19-.19.2-1.61.88-1.08ZM523.52,22.42c.49.36-1.48,2.97-1.91,3.31-.17-1.39.82-2.6,1.91-3.31ZM532.21,10.62c-.41.44-.52.83-1.32.8l3.12-4.65c.34,1.45-.88,2.86-1.8,3.85ZM534.24,12.59c-1.9,2.22-4.49,4.43-6.61,6.44-.27-.64.17-.92.49-1.35,1.27-1.71,3.41-3.65,4.89-5.45.46-.56,2.74-3.68,3.26-3.34.65.42-1.64,3.26-2.02,3.7ZM364.22,218.33c2.69,0,5.42.05,8.1-.19,9.78-.88,18.5-3.32,27.66-6.6,11.14-3.99,21.96-11.6,30.89-19.13l8.27-8.39-1.24,2.08c-7.03,9.34-16.77,15.1-26.53,20.86-5.78,3.4-12.01,5.9-18.41,7.57-6.88,1.8-13.01,3.36-20.15,4.25l-8.92.29c-.1-.59-.38-.73.33-.73ZM358.13,218.27l5.34.5c-2.04.58-4.15.05-6.21.13l.87-.63ZM361.15,214.47c.88.13,1.8-.11,2.66-.08,1.78.06.89-.21,1.76-.36,1.9-.31,4.6-.04,6.62-.27,5.6-.62,13.79-1.87,19.15-3.42,2.25-.65,4.75-2.1,7.01-2.97,4.4-1.7,8.52-3.21,12.77-5.52,5.82-3.17,15.22-9.88,20.01-14.47,1.24-1.19,2.18-3,3.25-4.26,4.56-5.35,8.21-7.81,9.72-15.24.71-3.53,1.43-8.58,1.14-12.13-.08-.98-.88-1.45.17-2.26l1,.32c-.53,2.35-.05,4.82-.23,7.18-.21,2.75-1.04,5.79-1.12,8.61l-.97.25c.1.63.22,1.15.16,1.8-.31,3.48-5.88,9.6-8.2,12.11-8.35,9.07-15.09,14.89-26.38,20.48-3.3,1.63-6.84,3.64-10.28,5.08-1.23.51-3.13.41-4.13,1.35l2.89-.21c-2.03.53-4.09,1.02-6.12,1.57-5.72,1.53-11.11,2.36-16.94,3.36-.88.15-1.1.47-.67-.6-1.27.13-2.92-.04-4.2.08-1.83.17-3.05.74-5.29.6-1.14-.07-2.99-.12-3.78-.99ZM346.58,213.11c-.59-.16-2.04-1.01-2.51-1.51l7.51,1.83,9.46.5-.39,1.02c-1.78.15-3.66-.53-5.33-.71-2.94-.32-5.86-.35-8.74-1.13ZM358.4,211.71l3.63-.17c-.51,1.11-2.89.97-3.63.17ZM353.86,211.87c-.83-.09-1.73-.24-2.23-1.02l3.42.61c-.38.84-.54.49-1.19.42ZM339.25,212.15c.57.53.96,1.33,1.86,1.14.2.41.2.96-.39.8-.52-.14-2.8-1.94-2.5-2.44.43-.71.85.33,1.03.49ZM348.53,206.32l-.04.73c-.78-.4-1.7-.26-2.53-.33-.39-.04-1.08.1-1.1-.41,1.32-.53,2.37-.12,3.67.01ZM374.4,188.1l2.48.14c-1.05.22-2.12.4-3.18.63-.02.25-.21.36-.41.47-.35.19-2.24,1.15-2.38,1.18l-7.94,1.57c-.17-.48.81-.84,1.12-.94,2.92-.88,5.92-1.48,8.91-2.15l1.4-.91ZM360.78,188.49l-1.04,1.62h-1.57s2.61-1.62,2.61-1.62ZM377.27,185.61l4.39-1.06c-.26.55-.97.65-1.5.8-.8.24-2.46.79-3.13.89-.22.03-1.71-.17-1.76-.61l2-.02ZM372.23,185.13l-2.52,1.49-2.35-.16c1.62-.38,3.16-1.43,4.87-1.33ZM325.3,179.72l.73.04c-.91,3.1-1.61,6.51-1.04,9.72l-.08,5c-1.43-4.8-.51-9.91.39-14.75ZM404.97,161.41l2.61.22c-.79-.05-2.64,1.16-2.61-.22ZM411.17,159.94c-1.02.32-2.62,1.88-3.8.63,2.66-.39,4.95-1.71,7.26-2.95.44-.24.26-.59.97.04.85,1.7-3.25,1.91-4.43,2.28ZM421.36,153.4l-3.34-4.86.39-.8c1.11,1.81,2.81,3.39,2.95,5.65ZM422.43,149.52c1.17.41,1.47,2.08,2.06,3.09.98,1.7,2.22,3.16,2.5,5.18l-1.06.21c.58-3.09-2.91-5.54-3.51-8.48ZM419.45,156.72c-1.75.2-1.91-2.62-2.38-3.59-.48-1-1.48-1.84-1.84-2.92,1.37,0,4.42,6.14,4.22,6.5ZM402.73,156.38c-.99.48-1.86.83-2.98.92l3.67-1.82c.37,1.01-.12.62-.69.9ZM387.26,163.48c-.87.42-1.64.79-2.63.85l3.32-1.75c.37,1.01-.12.62-.69.9ZM381.13,166.12c-.95.42-1.88.87-2.93.95.43-1.22,2.61-1.33,3.67-1.82.38,1.05-.16.62-.74.87ZM404.43,162.44l-2.44,1.14-1.06-.27c1.46.04,2.04-2.07,3.5-.87ZM397.47,164.83c-.59.28-1.35.45-1.97.65.44-1.28,2.18-1.56,3.32-1.75.11.51-.97.92-1.35,1.1ZM418.73,160.53c.18.44-.53.68-.84.81-6.08,2.54-13.16,5.87-19.32,7.31-.99.23-1.6,1.07-2.36,1.45-4.34,2.13-12.37,5.4-16.83,6.64-2.35,1.63-5.33,2.62-8.13,3.44l-4.55,2.01-.68-.61c1.59-.52,3.28-.85,4.87-1.33.64-.81,1.95-1.21,2.9-1.58,1.75-.68,3.78-1.43,5.58-1.93,2.37-1.65,4.65-2.2,7.14-3.34,6.48-2.96,12.68-5.79,19.38-7.88,4.42-1.38,8.26-4.17,12.84-4.99ZM384.19,169.55l4.13-1.37c.4.79-.67.65-1.14.77-1.09.28-1.9.59-2.93.95-2.58.91-4.83,2.17-7.34,3.2-1.39.57-3.04.84-4.38,1.66l-1.59.16,12.86-5.47.39.1ZM393.77,166.01l-3.36,1.58c.2-1.22,2.3-2.23,3.36-1.58ZM327.21,174.58c.17.61-.16,1.19-.32,1.78-.2.75-.5,1.99-1.03,2.52-.27-1.47.44-3.12,1.35-4.3ZM391.25,161.57c.62-.24,1.26-.44,1.86-.75.39,1.06-.17.61-.74.87-.61.27-1.21.61-1.87.74-.38-1.05.15-.63.76-.86ZM359.67,136.43c.08.13-1.58,1.09-1.85,1.21-.34.15-1.18.6-1.22-.05.82-.07,1.28-.64,1.88-1.04.38-.25.72-.87,1.19-.12ZM374.32,134.45l2.68-1.26-.6,1.49-2.08-.23ZM392.73,124.58c-.55.02-1.08.21-1.37-.47,1.88-.03,3.68-.51,5.52-.7.31-.03,1.71-.13,1.75.36-1.94.47-3.9.73-5.9.81ZM376.43,128.97c-2.27,1-4.53,2.42-7.05,2.78,0-.73.62-.73,1.08-.96,2.45-1.18,5.49-2.38,8.1-2.69.45-.29,5.21-2.13,5.97-2.31,1.07-.24,2.31.2,3.42-.28.2.6-.74.5-1.16.59-2.78.6-5.44,1.47-8.23,1.99-.92.59-1.28.49-2.14.87ZM402.96,125.77l-2.57-.51,3.74-.33,2.11.27c-1.02.7-2.13.38-3.29.57ZM390.53,130.14c-1.01.2-2.48.79-3.42.31l7.06-1.4c-.79.83-2.51.86-3.64,1.09ZM378.91,133.54c-.37-1.03.11-.64.75-.87.84-.3,1.16-.78,1.7-1.01,1.29-.56,3.23-.64,4.62-1.35.35.99-.08.66-.75.89-2.14.71-4.34,1.21-6.32,2.34ZM412.98,127.71c-.59-.14-.86.23-.88-.72l2.61.22c.56,1.2-1.09.66-1.73.5ZM405.67,129.74l-2.28.05-.02-.85,2.28-.05.02.85ZM352.31,141.91l-1.08.04c1.55-.78,2.34-2.72,4.17-3.03l-3.08,2.99ZM389.99,135.76c1.65-.78,3.43-1.08,5.22-1.4.2.59-.74.5-1.16.6-1.14.25-1.8.48-2.86.84-.38.13-1.13.64-1.2-.04ZM344.97,147.41c-2.24,1.92-4.87,3.98-6.85,6.13-1.19,1.29-2.04,2.52-2.62,3.9-.04.1-1.34,1.6-1.42,1.67-.29.23-.95-.14-1.08.03-.19,2.08-2.17,3.73-3.32,5.61-1.09,1.79-1.51,3.49-2.28,5.16-.13.29-.48.33-.61.62-.31.66-.39,1.51-.87,2.12-.59-.18-.07-.86.03-1.21.15-.54.33-1.37.5-1.81.48-1.23,4.39-8.41,5.08-9.01.26-.22.75-.16.87-.32.12-.17-.13-.76.18-1.26.25-.41,1.14-.94,1.54-1.43,2.51-3.08,5.08-6.17,8.04-9.01l3.69-2.27c.02.55-.53.8-.88,1.1ZM341.28,152.29c.46-.38.92-.89,1.52-.97-.82,1.5-2.68,2.59-3.79,3.74-.71.73-.99,1.9-2.01,2.17.83-1.88,2.7-3.63,4.28-4.94ZM367.4,145.28l-1.22-.05c2.38-.99,4.5-2.84,7.06-3.23l-5.85,3.28ZM346.83,149.42l-.14-.7,2.9-2.04c-.02.8-.92.95-1.33,1.35-.21.21-.05.54-.35.79-.22.18-.78.26-1.08.6ZM348.8,151.96c.01-.46.42-.88.74-1.19.77-.75,2.04-1.63,3.01-2.12,0,.51-.44.85-.78,1.16-.81.74-1.97,1.68-2.97,2.14ZM345.48,153.72c-2.64,3.23-6.44,5.93-9.02,9.12-.84,1.04-1.3,2.29-2.09,3.35l.03-2.12,8.71-8.71c.71-.69,1.52-1.14,2.36-1.63.39-.47.31-.72,1.1-1.25.39-.26.72-.85,1.19-.12.2.32-2.08,1.24-2.3,1.37ZM436.14,142.78l-2.25-3.96c1.3.67,2,2.64,2.25,3.96ZM436.71,145.71c-.12.28-.51.3-.6.63-.72,2.93-.24,5.09,1.23,7.66.29.51.96.8,1.22,1.39.51,1.16.21,2.9,2.05,2.65-.07-.56.09-1.28.86-1.27.17.13.42,3.6.38,4.08-.06.68-1.18,1.55-1.37,2.45-.21.94.15,2.12-.07,2.97-.09.34-.47.35-.51.46-.2.53-.12,1.12-.57,1.48-.03.25-.16.52-.21.78l.35,1.77,1.55-1.41c.08-.14.37-.3.54-.7.12-.26.61-2.88,1.02-2.55.38,1.28-.49,2.42-.83,3.57-.46,1.53-.94,3.51-1.7,4.99-1.62,3.16-6.75,7.53-9.52,10.17-9.81,9.33-19.97,15.62-32.65,20.55-1.95.76-5.23,1.81-6.78,2.81-1.48.95-3.92,1.15-5.76,1.52-2.69.54-5.66,1.31-8.48,1.67-1.41.18-3.29.02-4.72.18-1.23.14-2.48.58-3.71.74-.15-.63,1.25-.61,1.7-.7-.65-.25-2.12-.23-2.81-.15-1.63.18-3.12.72-4.82.56l.04-.74c2.23.76,4.74-.27,7.03-.66.21-.67,1.29-.62,1.87-.74,3.98-.82,8.31-1.32,12.43-2.09.59-.11,1.56-.57,2.01-.03.93-.21,2.02-.33,3.01-.59.94-.24,1.82-.98,2.92-.95-.05-.16-.05-.3.11-.39,2.2-.8,4.31-1.83,6.48-2.71,7.59-3.05,14.08-5.85,20.76-10.75-1.32-.36-2.03.27-3.18.63-.33.1-.75.09-1.06.21-1.59.62-3.07,1.82-4.61,2.58-5.98,2.92-12.22,5.67-18.49,8.14-3.58,1.41-7.89,2.27-11.59,3.11-5.8,1.32-11.63,1.59-17.52,2.36-.04-.21.29-.38.29-.42,0-.17-.07-.3-.25-.32-.29.01-.6.16-.88.17l-4.24.84c-.17-.6,1.3-.65,1.7-.7l-.07-.35c-2.76.29-3.75.34-6.54-.09-.61-.09-.92.4-.94-.63l7.48.72c1.91-.2,3.81-.48,5.72-.76,5.65-.83,11.2-1.91,16.84-2.96.59-.11,1.56-.57,2.01-.03,3.09-.89,6.95-2.29,9.96-3.44.05-.84.86-.94,1.58-1.05.01,0,.03-.02.04-.03l-.06-.33h-1.83c-1.02.31-2.14.69-3.11.97-1.95.58-3.84.45-5.51,1.82-.73.6-8.58,2.07-10.35,2.41-.27.05-1.81.51-.95-.18-3.35.39-8.04.83-11.47.92-1.95.05-4.12,0-6.03-.39-.54.02-1.53-.05-1.09-.88.48.32,1,.41,1.56.41,1.48,0,3.97-.13,5.42-.31,6.81-.84,13.5-2.01,20.27-3.28.59-.11,1.56-.57,2.01-.03l9.61-3.37,5.44-2.18-.67-.6c1.73-.56,3.42-1.32,5.04-2.13.44-.22,1.6-.45,1.49-.99l-6.57,2.03c-.87.34-2.03.41-2.88.66-.63.19-1.88.59-2.28,1.09l1.93-.06c.09,0,.17-.01.26,0h-.26c-1.11.09-2.04.89-3.04,1.06-.59.1-.89-.22-.94-.22-.11,0-.24.04-.35.07-.07.97-.84.8-1.45,1.02-2.75.99-14.1,3.68-16.42,3.24-1.08-.2-6.48.29-7.98.48-2.32.29-4.73,1.05-7.06,1.4-.93.14-1.45.2-2.4.14-.64-.04-.94.5-.98-.57,1.28,0,2.55-.27,3.79-.38.65-.06.56.25.59.25,1.8-.19,3.82-.79,5.65-1.12.65-1.03,1.97-.75,2.91-.93,5.48-1.06,11.59-2.73,16.79-3.33,4.7-.54,9.34-3.58,13.49-4.13l9.71-4.67c1.88-1.58,4.83-2.77,6.41-4.59.12-.14.88-.89.39-.97-.98.18-1.54,1.01-2.37,1.48-9.82,5.56-22.94,10.71-34.09,12.7-.66.12-1.4.51-2.01.03-2.05.81-5.06.63-6.96,1.01l-5.3,1.05c-.08.02-.44-.24-.78-.2-.82.08-3.3,1-3.49-.05-.03-.16-.08-.3.11-.39.59-.08,1.19-.32,1.78-.37.5-.05,1.06.18,1.11.17l16.6-3.28c.56-.11,2.01-1.22,3.07-.92l.28.25c.12-.03.24-.04.35-.07l3.96-1.5c5.66-1.13,11.97-3.42,16.89-6.29-.26-.62-.07-.8.57-.85l-.07-.35-1.13-.15c-.21.14-.24.39-.28.42-2.29,1.65-4.12,1.99-6.78,2.81-4.04,1.24-8.09,2.25-12.22,3.15-.21.67-1.29.62-1.87.74-4.39.91-8.57,1.58-12.96,2.19-.21.67-1.29.61-1.87.74-2.47.51-4.95.96-7.41,1.47-.7-.48,1.34-.63,1.52-.67l-2.19.06-.07-.35c.57-.15,1.19-.19,1.76-.35l-1.9-.36c1.23-.27,2.48-.46,3.72-.73.75-.16,1.47-.3,2.11-.43l13.07-2.58c2.69-.53,5.78-1.43,8.58-2.06,3.03-.69,5.08-1.47,7.83-2.57,2.44-.97,5.08-1.63,7.15-3.33-.05,0-.16-.22-.32-.23-1.81-.03-3.17,1.15-4.97,1.27-2.58.94-4.97,1.18-7.53,1.85-1.03.27-2.05,1.06-3.27,1.02l2.26.29c-3.47.71-6.94,1.61-10.27,2.77l-2.38.09,4.16-2.3c3.4-.7,6.95-1.62,10.1-3.01,4.75-2.08,9.38-3.38,14-5.78,2.89-1.5,6.58-3.3,9.26-5.13l-.28-.34,1.4-.82c.1-.11.2-.2.28-.3l-1.4-.38c-8.37,4.72-16.02,7.98-25.2,10.84-1.04.32-2.32,1.11-3.34,1.31-.22.04-1.1.02-1.06-.43,1.19-.27,2.39-.71,3.52-1.16,6.36-2.56,12.31-5.63,18.22-8.89,4.21-2.32,8.89-4.27,13.24-6.49,1.16-.59,2.65-1.18,3.71-1.81.68-.4.11-1.82.11-2.52-1.6-.1-1.17.72-1.49,1.04-.28.27-2.34,1.33-2.94,1.65-5.26,2.83-10.83,5.14-16.27,7.64-6.78,3.11-13.78,5.69-20.78,8.59-1.65.68-3.12,2.18-5.01,2-.18-.48.52-.62.86-.8,4.67-2.43,9.98-3.79,14.77-6.04,1.95-.91,7.43-3.54,8.89-4.61,5.2-3.81,12.07-6.64,18.23-9.08.74-.29,3.52-.5,3.39-1.6l-1.22-3.99c.56.5,1.32,1.48,1.63,2.14.86,1.78,1.55,5.63,2.41,6.96.16.25,1.17,1.24,1.29,1.21l.8-.53-1.77-7.15c-1.24-1.98-2.04-4.36-2.76-6.62.48-.18.62.52.8.86,1.16,2.2,2.98,4.58,2.58,7.08l.82.26c.15,2.15.97,3.77,1.84,5.66,1.5-1.01.43-2.83.24-4.28-.08-.63.13-1.25.04-1.84-.17-1.09-1.37-1.97-.44-3.02l1.76,4.23.73,3.72.79-2.99c-.43-3.4-1.01-6.55-2.88-9.44.83-1.25,2.84,3.65,2.97,4.02.76,2.22.83,4.58,1.38,6.85l1.92-1.34-1.47-5.72c.58-.12.55.8.98,1.27.06.06.44.03.6.23.43.53.93,3.43,1.27,4.54.2.66.63,1.01-.27,1.52.02.13.08.27.07.35l.78.21c.24-.55.59-.2.5-1.2l-.34-.16c-.24-1.48-1.14-3.42-.64-4.78-.51-2.09-1.22-4.67-2.14-6.65-.25-.54-.5-.62.25-1.04.27,1.22,1.15,2.15,1.65,3.25.79,1.74,1.12,3.12,2.14,4.8.09.14.34.12.54.78.42,1.36.4,2.77.44,4.17.41-.03.55-.92.62-1.26.29-1.33.31-2.44-.16-3.77-.35-.97-2-1.85-1.29-2.87-1.97-3.23-2.29-7.19-3.54-10.49-.36-.94-2.08-1.75-2.07-3.08.98.59,2.54.68,2.61,2.05,1.05.09,1.18-1.18,1.42-1.4.44-.4,1.27-.59,1.76-1.07l-.98,2.51ZM476.49,122.33c.37.23-1.72,3.3-2.02,3.7-.33.43-.41.96-1.1.95-.27-.63.19-.91.46-1.37.43-.74,1.04-1.64,1.56-2.33.33-.43.41-.96,1.1-.95ZM480.81,116.34c-.6,1.35-.62,2.86-2.27,3.38-.72-.98,1.75-3.69,2.27-3.38ZM484.93,107.46l-1.68,5.47-.73.87c-.55-.45.71-3.68,1.03-4.36.32-.7.78-1.49,1.38-1.98ZM487.98,102.45l-.41,1.18-1.29,1.35c-.46-.32,1.21-2.84,1.7-2.53ZM492.31,89.12c-.01.83-.28,2.03-.54,2.8-.6,1.71-1.7,3.88-2.48,5.74-.6,1.43-.68,3.12-2.15,4.22l.88-3.24c1.89-2.95,2-6.92,4.3-9.53ZM435.99,100.25l-.31-.67,3.11-.98c-.24,1.39-2.09.69-2.8,1.65ZM462.98,98.42l-1.11.02c2.08-1.03,3.45-3.32,5.87-3.73l-4.75,3.71ZM445.27,103.56l5.51-3.66c-.7,1.35-2.77,3.3-4.2,3.78-.33.11-1.31.48-1.32-.12ZM439.13,102.2l-1.74,1.74c-.99-.04-2.69,1.38-3.35.36,2.04-.06,3.36-1.32,5.09-2.11ZM440.7,101.93l.44.46-2.46,2.34-.44-.46,2.46-2.34ZM432.98,106.35l3.75-1.47c-.28,1.08-2.09,1.73-3.09,2.07-.68.23-.56,0-.66-.59ZM431.99,105.08c.19.48-.91.67-1.31.81-.57.2-1.08.51-1.73.52.28-1.3,2.05-1,3.04-1.33ZM427.26,105.28l3.89-2.6c-.37,1-2.35,2.72-3.25,3.19-.62.32-.59-.08-.64-.58ZM421.32,105.43c2.02-1.46,4.44-1.43,6.58-2.48.34.97-.05.69-.75.87-1.07.27-1.98.67-2.99,1.06l-5.66,2.49,2.82-1.94ZM415.95,104.59c1.65-.55,3.32-1.16,4.97-1.72.18.48-.52.62-.86.8-2.16,1.12-4.17,1.87-6.63,2.15.2-1.22,1.66-.93,2.52-1.22ZM421.2,102.44l4.38-1.97c-.29.94-1.95,1.6-2.83,1.93-.36.14-1.47.72-1.55.03ZM412.44,102.7l-3.91,1.51-2.02.03c2-.73,3.66-2,5.93-1.54ZM412.66,101.93c1.64-.27,2.72-1.6,4.45-1.61l-2.11,1.14-.27.82-2.06-.35ZM405.63,101.66l-4.23,1.76-2.37.1c1.99-.11,3.5-1.2,5.3-1.82.54-.19.7-.64,1.3-.03ZM417.63,99.35l2.99-1.13.23.62-2.99,1.13-.23-.61ZM412.03,98.75c.06.5-1.19,1.08-1.57,1.25-.89.39-1.9.34-2.57,1.03l-.31-.67,4.45-1.61ZM408.08,97.32l-4.1,1.55c-.05.02-.18.3-.49.43-.61.26-1.61.84-2.23.65l2.65-1.44c1.39-.28,2.89-2.74,4.17-1.19ZM399.61,97.17l-2.85,1.3-1.31-.11c1.53-.18,2.58-1.55,4.17-1.19ZM391.21,97.36l-1.08.96-2.38.09c1.26-.07,2.3-.66,3.46-1.05ZM381.57,97.79c.43-.08,1.27-.52,1.3.11l-2.18.69-2.12-.2c1-.19,2-.42,3-.6ZM376.14,96.3c1.43-.31,2.64-.66,4-1.15.32,1.12,0,.57-.57.69-1.33.28-3.02.66-4.16,1.35-.33-.92.01-.73.74-.88ZM384.58,93.53l-2.82,1.65-1.34-.46,4.17-1.19ZM378.28,92.19c.64-.09,1.13-.3,1.68.23-.72.63-1.73.08-2.64.35-1.58.45-3.61,1.74-5.38,2.27-.49.15-.67.49-1.05-.27,2.36-.78,4.94-2.24,7.39-2.58ZM371.1,92.16c-.36,1.51-2.14,0-2.86,1.59l-2.02-.26,4.87-1.33ZM365.97,90.47l.32.71-3.49,1.56-.32-.71,3.49-1.56ZM361.72,89.24l.07.35-6,1.19-.07-.35,6-1.19ZM363.33,86.16c13.4,1.06,26.5,4.37,39.71,6.11,1.74.23,3.57.23,5.24.41,9.33,1.04,17.15,1.5,26.7,1.53,7.02.02,17.03.66,23.51-1.71,3.42-1.25,7.36-1.89,11.05-2.55.66-.12,1.4-.51,2.01-.03,4.74-1.31,9.72-2.4,13.51-5.77l3.02-1.53-2.56,2.42c-2.75.87-4.21,4.06-7.26,4l-3.68,1.38c.5-.09,2.8-.7,2.86-.38l-2.75.92-1.17-.32c-.35.06-.7.15-1.06.21.4,1.03-.41.79-1.09.95-8.18,1.89-16.08,3.38-24.38,4.82-.89.15-1.1.46-.67-.6-3.8.21-9.7.47-13.27-.31-2.86.79-5.83.18-8.71-.03-18.12-1.35-35.87-4.24-53.78-7.99l-11.68-1.54c1.38-.11,3.05-.08,4.42.03ZM467.89,87.4l2.61.9-1.82.2-2.41-1.19,1.62.1ZM450.74,88.53c.64-.27.92.16,1.36.49.31.23,1.84,1.56,1.67,1.85-.59.03-3.14-2.18-3.03-2.34ZM417.34,90.36l-.39.8c-1.38-.49-1.73-1.04-2.62-2.03-.51-.57-1.64-.57-.45-1.39.73,1.08,2.07,2.62,3.46,2.62ZM423.26,87.72c-.85-.92-2.28-1.99-2.97-2.9-.37-.48.14-.7.6-.67.06.96,3.75,3.46,3.38,4.1-.45.77-.85-.37-1-.54ZM410.92,89.43l-1.66-.94-.94-1.12c.99.47,2.56.61,2.6,2.05ZM431.81,91.17c-1.71.13-2.27-2.12-3.52-2.97.75-.33.87.26,1.29.59.38.3,2.47,2.03,2.23,2.38ZM434.83,89.22l.56-.38,1.92,2.81-.56.38-1.92-2.81ZM436.7,86.17c2.07,1.03,3.14,3.64,4.72,5.3l-2.04-1.29-2.67-4.01ZM386.79,86.12c-1.57.22-2.05-1.75-3.06-2.51l.67-.31c.42,1.25,1.48,2,2.4,2.83ZM405.92,84.55l-1.06-1.63c.4-.01,1.11-.36,1.38-.24.07.03.73,1.18.66,1.29l-.99.57ZM400.48,88.55c-.8.06-1.82-.64-2.52-1.04-.38-.22-.97-.33-1.14-.8.75-.51,3.79,1.67,3.67,1.84ZM415.03,84.21l2.28,2.22c.15.2.54.12.66.23.42.39.76,1.39,1.57,1.79-1.88.13-2.16-1.09-3.03-2.11-.58-.68-1.59-.78-1.48-2.14ZM425.75,83.3c.25.17,1.72,1.55,1.56,1.79-.63.27-.92-.16-1.35-.49-.44-.33-1.89-1.49-1.5-1.88.34.38.97.36,1.29.58ZM429.91,83.15l2.67,2.31-.43.5-2.67-2.31.43-.5ZM439.76,84.1c-.24-.3-.7-1.02-.03-1.1l2.75,2.76c-.22.33-2.53-1.43-2.72-1.66ZM445.12,88.92c.86.54,2.21.62,2.44,2.08-1.29.26-1.77-1.27-2.87-1.52l-1.92-2.3c1.19-.26,1.46,1.18,2.35,1.75ZM459.06,89.82c-.66.3-1.01-.03-1.55-.2-1.77-.58-3.91-1.97-4.72-3.69,2.1,1.28,4.28,2.5,6.27,3.9ZM496.93,73.53c.15,1.25-.2,2.29-.63,3.42-.18.49.28.89-.72.88-.62-1.68.12-3.15,1.35-4.3ZM502.26,61.47l-2.02,6.39-1.24,1.23c-.27-.2.78-2.97.98-3.48.17-.43,1.97-4.37,2.28-4.14ZM524.07,27.69c2.73-4.65,8.55-10.87,12.5-14.76.62-.61,1.32-1.2,1.99-1.74.38-.3.8.15.83.56l-11.12,12.46c-4.74,7.28-9.67,14.36-14.24,21.71-4.19,6.73-6.25,13.92-9.52,20.58-.58,1.18-3.42,5.75-3.54,6.23-.13.52.42.82.31,1.38-.94,4.87-4.43,13.02-6.27,17.88-3.77,9.99-7.98,21.83-14.14,30.36-9.14,12.65-18.96,21.28-33.82,26.36-2.77.95-5.57,2.59-8.54,2.39-.14-.47,1.17-.9,1.48-1,6.15-1.9,12.44-5.17,18.04-8.44,8.26-4.83,13.26-9.9,19.09-17.4,3.45-4.44,6.84-9.53,9.01-14.38,5.62-12.54,9.25-26.17,14.48-38.95,2.17-5.3,4.66-10.46,6.68-15.49,4-9.97,11.37-18.57,16.77-27.76ZM508.94,43.28c2.19.06.39,3.01-.22,2.61l.22-2.61ZM480.5,52.56c-.58.08-1.06-.1-.66-.6.76-.14,1.53-.32,2.3-.45.43-.08,1.27-.52,1.3.11-.94.55-1.85.8-2.94.95ZM457.84,58.21c-1.01.86-1.9,1.41-3.22,1.67-.18-.48.5-.6.85-.81,1.71-1.02,2.97-1.82,4.17-3.49.65.48-1.44,2.31-1.8,2.62ZM456.18,54.8c-.57,1.2-2.09,2.4-3.31,2.84-.71.25-.97.36-1-.52,1.71.44,2.75-1.92,4.31-2.32ZM470.33,58.57l-.45-.52,2.67-2.34.45.52-2.67,2.34ZM459.22,60.06c.83-.67,1.98-1.18,2.89-1.76l5.08-1.63-8.62,4.64c-.31-.76.19-.88.65-1.25ZM448.87,61.09c.53-.3.4-.84,1.18-.12l-2.65,1.44c.06-.71.92-1.01,1.47-1.32ZM441.41,61.76l8.27-2.73c.1.73-1.32.51-1.83.72-.25.1.06.52-.55.9-1.26.77-3.81,1.14-5.42,1.61-.7.2-.41.15-.46-.49ZM437.87,59.92l2.27.98-3.39,1.4,1.91-1.47-3.6.34,2.81-1.25ZM443.32,58.45l5.58-3.31-1.29,1.43-3.98,2.54-.31-.67ZM441.5,55.7c.62-.35.93-1.23,1.76-1.28-1.04,2.4-3.53,1.85-5.65,2.95-1.76.91-2.91,2.59-5.09,2.11l.56.99-5.47.17c-.06-.3,1.68-.49,2.17-.69,2.58-1.05,5.05-1.76,7.76-2.92,1.25-.54,3.05-.8,3.96-1.32ZM436.06,53.27l-3.17,2.01-5.59,1.92c-.08.05-.2.31-.43.47-1.01.68-3.33,1.4-4.48.68l4.91-1.15c1.91-1.18,3.58-1.33,5.17-2.2,1.19-.66,1.7-1.89,3.59-1.73ZM422.72,55.36c-.3.06-1.7.3-1.69-.22,2.31-.26,4.41-1.11,6.64-1.68l-1.83,1.07c-1.06.07-2.17.64-3.11.83ZM417.96,55.38c.43-.08,1.27-.52,1.3.11l-1.43.58-2.16-.23c.76-.14,1.53-.32,2.3-.46ZM425.2,52.12l-2.92,1.87-1.11.02c1.34-.65,2.43-1.83,4.03-1.9ZM418.7,50.83c.6.33.16.66-.39.8-2.63.69-5.08,1.96-7.8,2.28-.2-.51.57-.57.95-.7,2.4-.82,4.81-1.72,7.25-2.39ZM402.47,52.21c1.95-.33,3.88-.81,5.83-1.15.43-.08,1.27-.52,1.3.11-1.5,1.06-2.98.56-4.42.84-1.67.33-.82.76-2.71.2-.11.02-.38.42-.69.32l-2.63-.39c1.31-.47,2.09-.29,3.32.08ZM398.79,51.15c.42-.09,1.22-.61,1.28.07-1.21.08-2.61,1.69-3.6.35.85,0,1.54-.24,2.32-.41ZM406.29,47.41c.18.74.3.64-.39.81-2.44.61-5.04.82-7.35,1.82-.99-.96.82-.8,1.61-1.07.33-.11.57-.47.65-.49l5.47-1.08ZM394.86,45.27l.14.71-6.71,1.33-.14-.71,6.71-1.33ZM385.63,44.79l3.31-.17.04.82-3.31.17-.04-.82ZM376.72,36.9c10.47,2.03,20.75,4.55,31.16,6.99,8.77,2.05,17.65,4.02,26.57,4.93,12.51,1.27,23.44,1.12,35.91.58,1.33-.06,2.93-.33,4.29-.45.17,0,.24.16.25.32,1.13-.41,2.27-.13,3.41-.29,4.81-.66,10.8-2.1,15.52-3.26,3.89-.96,7.16-3.4,11.09-4.21l-3.04,2.26c-4.06,1.71-7.92,3.09-12.22,4.05l.07.35c-.21.67-1.29.62-1.87.74-2.53.52-5.07.98-7.59,1.5-4.28,1.03-9.36,1.43-13.78,1.59-10.82.38-21.83-.13-32.46-1.63-13.8-1.94-27.14-5.56-40.66-9.05-5.9-1.52-11.75-2.99-17.72-4.18.5-1.03.52-.35,1.08-.24ZM408.51,32.9c.34.47.69.83.7,1.46-.69-.03-.97-1.22-1.42-1.67-.22-.22-.58-.12-.8-.34-.24-.23-1.49-1.57-1.43-1.66.51-.71,2.68,1.83,2.96,2.21Z"/>
        <path class="cls-4" d="M204.29,29.58c-1.77-.33-3.54-.68-5.3-1.05-.59-.12-1.66-.07-1.87-.74-18.24-2.78-34.94-2.6-53.04.13-7.29,1.1-14.44,3.53-21.54,5.39-10.69,2.79-21.59,6.06-32.43,7.35-4.58.55-10.81.9-15.17-.71-6.21-2.29-9.02-6.65-12.58-11.64-.48.79-.93-.27-1.17-.6-5.37-7.43-10.56-15.3-15.65-22.91-.13-.19-1.05-1.16-.32-1.16C44.04,2.09,43.02-.04,40.79,0c-1.58,1.68-2.59,3.77-3.88,5.65-1.73,2.52-4.51,4.55-3.18,7.95.67.47.65,1.18,1.13,1.75,1.08,1.28,2.78,2.45,3.99,3.76,16.67,18.14,29.44,42.81,37.57,65.65.86,2.41,2.39,7.1,2.57,9.47.11,1.45-.68,3.4-1.32,4.7-2.27,4.67-3.75,7.2-7.2,11.21-4.9,5.71-10.21,11.75-15.12,16.84-13.67,14.13-26.32,29.68-36.87,46.4-6.91,10.95-14.31,22.49-17.43,35.25-.29,1.19-1.13,4.65-1.04,5.61.03.29.4.94.65,1.01.61-.1,1.26-.12,1.86-.32,1.71-.57,4.27-1.87,5.88-2.65,14.85-7.21,29.49-17.6,40.63-29.44,16.05-17.06,23.82-37.75,29.14-60.24,1.31-5.57,2.79-11.55,3.34-17.23.14-1.4-.26-2.87.24-4.25l1.69,2.38c.7,3.61,2.68,6.93,4.29,10.07.44.86.32,1.86.57,2.55.11.29.53.3.64.59.15.39.47,4.27.42,4.85-.04.43-.47.84-.57,1.31-.87,3.91-1.22,8.32-2.39,12.35-1.75,5.99-9.04,20.46-8.05,25.75.34,1.79-.6,4.98-1.01,6.96-.12.59-.07,1.66-.74,1.87-1.08,8.72-.86,17.97-.77,26.75.02,2.03.74,6.09,1.09,8.4,2.7,17.83,9.4,34.99,19.17,49.98,1.13,1.73,1.56,3.42,3.72,4.49.32.04,1.55-1.02,1.76-1.39,1.19-2.16,1.47-5.48,2.07-7.88,2.65-10.55,4.67-21.1,5.55-31.89.09-1.07-.12-2.74.03-3.72.61-4.02.53-9.59.3-13.94-.86-16.6-4.84-33.08-8.69-49.04-1.83-7.6-4.82-14.88-6.43-22.65-.34-1.66-.38-3.41-1.04-4.97,1.66.03,1.13.43,1.58,1.22,5.69,9.92,18.68,18.87,28.37,24.48,1.26.73,2.36,1.81,3.76,2.26-.13,1.35-.64,2.72-.79,4.05-1.16,10.3,1.64,20.34,6.71,29.2.3.52,1.16,2.76,1.35,2.94.73.73.48.32,1.26,1.43,6.79,9.79,18.45,18.1,29.12,23.54,20.55,10.48,48.5,15.18,70.19,5.77,9.18-3.98,18.22-12.03,20.54-22.15.41-1.81.7-3.65,1.08-5.47.12-.59.07-1.66.74-1.87.06-.51-.27-1.53-.25-1.68,1.1-7.03-.24-11.89-2.32-18.51-1.14-3.65-3.04-7.56-5.22-10.91-7.43-11.39-14.86-19.35-26.62-26.89-18.63-11.95-41.99-17.54-63.73-12.36-9.64,2.3-21.36,10.59-26.47,19.06-.9,1.49-1.29,3.85-3.21,4.65-.39-.17-.73-.56-1.12-.68-7.39-2.33-16.12-9.67-21.16-15.58-3.77-4.42-6.75-9.89-9.63-15.15-3.06-5.61-5.44-11.46-7.89-16.97-1.11-2.5-2.24-5.49-2.05-8.22.55-.38,4.61,2.66,5.35,3.25,1.84,1.48,3.68,3.26,5.92,4.66,7.72,4.83,15.45,8.64,24.27,10.85,1.31.33,3.13,1.09,4.39,1.51.31.09.63.19.94.27l7.42,1.47c2.2.43,4.97.72,7.31,1.08,10.01,1.54,21.52.15,31.44-1.31,2.52-.37,5.52-1.52,7.98-1.83,4.69-.59,10.76-2.4,15.49-3.83,13.28-4.01,25.75-9.93,39.11-13.42,2.12-.55,5.13-.67,7.27-1.42.38-.13,1.31-.86,1.24-1.39-.25-2.02-8.6-3.87-10.47-4.47-.11-.05-.25-.02-.35-.07-6.19-1.19-12.21-3.06-18.48-4.04-3.48-.54-7.04-.83-10.54-1.33-5.11-.74-8.97-1.09-14.15-1.24-12.25-.34-24.72.32-36.81,1.98-13.5,1.85-26.69,5.22-40.01,7.26-7.86,1.21-13.57,1.45-21.32-1.23-5.98-2.07-8.64-5.92-11.32-11.41-3.69-7.54-6.3-15.46-9.24-23.22-.3-.79-.93-1.7-1.29-2.5.45-.16,1.42-.12,1.86.01,1.67.49,4.58,2.46,6.25,3.4,6.22,3.51,11.42,7.13,18.25,9.88,14.16,5.7,26.39,8.12,41.63,6.41,5.98-.67,12.03-1.55,17.88-3.04,2.25-.58,3.59-1.11,5.86-.96,1.54.1,2.1-1.01,3.23-1.53,2.62-1.2,6.19-2.01,8.93-3.13,9.83-4.03,19.31-9.2,28.59-13.65,5.11-2.45,12.32-4.11,16.51-6.56.1-.06.38.31.83.1,1.47-.69-.06-1.81-.97-2.44-3.7-2.56-9.95-3.62-14.32-4.65-.45.54-1.42.08-2.01-.03ZM62.95,122.79l3.16-1.23.23.6-3.16,1.23-.23-.6ZM63.79,125.1l-2.1,1.21-1.92.56c-.16-.21,3.28-2.32,4.02-1.77ZM60.06,129.13c-.8.67-1.41,1.66-2.54,1.7-.3-.48,2.2-2.16,2.54-1.7ZM55.55,133.38l4.23-1c0,1.07-.43.48-.93.64-1.09.34-2.18.74-3.26,1.1l-.04-.73ZM51.09,137.46l7.22-1.34c-2.35,1.52-5.61,1.29-8.18,2.42l.96-1.08ZM44.84,144.37c.28-.18.43-.63.8-.85.61-.37,1.39-.31,2-.69l.03.74,1.9-.36c-.04.42-.89.53-1.26.62-1.71.44-3.45.64-4.91,1.82-.49-.93,1.05-1.03,1.44-1.29ZM46.41,147.39l4.37-1.02-1.13.82-4.37,1.03,1.13-.83ZM37,153.01l1.65-.96c-.16.66-.93,1.31-1.44,1.73-.81.67-1.97,1.35-2.92,1.81l2.71-2.58ZM43.88,152.86l.16.54-3.54,1.08-.16-.54,3.54-1.08ZM40.85,157.62c-.11,1.17-1.39.83-2.18,1.08-.8.26-1.42,1.47-2.08.09l4.27-1.17ZM32.72,159.89l3.47-.99c0,.76-.52.74-1.03.98-1.32.61-2.89.52-4.19,1.29.05-.96,1.13-.9,1.74-1.28ZM26.96,165.24c.38-.24,1.22-.12,1.78-.32.83-.3,1.6-.86,2.32-1.11,2.7-.92,5.98-1.1,8.81-1.25l-2.79,1.1c-1.82.55-3.78-.1-5.49.5-1.73.6-3.78,1.99-5.59,2.64-.43-.29.83-1.49.94-1.56ZM26.11,169.68c2.76-1.57,5.96-2.28,9.12-2.16l-2.26.97c-2.87.33-5.35.73-7.9,2.15-.02-.82.57-.71,1.03-.97ZM29.87,172.33c-.32,1.94-2.92,1.32-4.47,1.78l-3.42,1.06c2.08-1.97,5.3-1.93,7.9-2.84ZM18.39,180.33c0-.67.48-.8.97-1.07.74-.41,3.83-1.84,4.5-1.97,1.03-.19,2.13.13,3.2-.02-.16,1.41-1.5.78-2.04.89-.82.17-2.48.51-3.16.72-.47.15-3.32,1.69-3.48,1.44ZM15.86,184.33c.79-.55,2.38-1,3.22-1.83l3.48-.98c-.19.43-.73.65-1.13.82-2.16.91-4.21,1.78-6.09,3.25-.43-.24.34-1.13.53-1.27ZM12.58,190.19c1.69-1.56,3.91-2.67,6.03-3.57.01.68-.52.77-.95,1.1-1.86,1.42-3.98,2.45-5.88,3.79-.02-.79.35-.9.8-1.32ZM10.3,195.25c.54-1.4,1.4-2.64,3.1-2.69-1.06.64-1.67,1.64-2.51,2.44-.2.19-.52.19-.59.25-.52,1.37-.69,2.1-1.51,3.46-.21.35-.32,1.03-.81.85.26-1.62,1.14-3.24,2.32-4.31ZM6.95,208.53c-.38-.57,2.51-2.35,2.91-2.74.96-.94,1.65-2.52,3-3.06-.01.64-.35.99-.71,1.45-.91,1.16-2.62,3.14-3.82,3.89-.46.29-.77.71-1.38.46ZM14.31,202.36c1.56-2.36,2.72-5.02,4.49-7.25l1.03.18c-1.88,3.6-3.99,7.1-6.93,10-1.17-.76,1.02-2.36,1.4-2.93ZM19.39,202.18c-.31-.4.45-1.35.7-1.7.35-.49,1.61-1.66,1.69-2.05.39-1.95.7-4.98,1.33-6.71.06-.17.56-.42.53-.81l.35.07-1.43,7.24c-.22,1.12-2.27,3.11-3.17,3.96ZM24.99,197.05c.19-.88.31-1.79.53-2.67.32-1.28,1.28-2.97,1.5-4.09.23-1.19-.22-3.71,1.05-4.65.06-.04,1.35-.63,1.45-.35-.38,1.5-1.19,3-1.62,4.44-.73,2.44-1.2,4.12-2.09,6.49-.11.29-.39,1.02-.82.84ZM29.22,194.22c.39-1.7,2.21-2.79,2.63-4.5.14-.6-.17-1.26-.19-1.88-.07-2.29-.3-4.52.69-6.76l2.75-3.67c-.24.84-.24,1.83-.53,2.64-.7,1.94-.74,1.48-1.1,3.82-.29,1.87-.97,6.84-1.91,8.15-.46.64-1.62,1.83-2.35,2.21ZM35.52,189.22c-.87-.17-.48-.69-.26-1.31.86-2.42.82-3.09,1.06-5.5.09-.92.09-1.79.15-2.71l1.28-5.45-.85,5.16c.22,1.06-.19,2.12-.23,3.06-.03.57.6,1.95.2,2.78-.12.52-1.15,4.01-1.35,3.97ZM38.94,185.86c.34-.83.58-1.72.89-2.57.13-.35.43-.44.44-.47.04-.11.04-.24.07-.35-1.16-.03-.52-.69-.45-1.38.38-4.02.25-10.04,2.79-13.22.17-.21.59-1.25,1.01-.52.21.36-.78,1.03-.88,1.47-.08.31.07.82-.03,1.29-.64,3.1-1.33,6.24-1.86,9.36-.18,1.07.03,2.09-.3,3.42-.23.93-.64,2.66-1.69,2.97ZM50.42,161.15c-.43,1.57-.23,2.95-.51,4.5-.37.08-.54-.96-.53-1.02l1.05-5.3,1.44-1.73c-.13,2.01-.36,3.92-.8,5.9-.09.43,0,1.37-.6,1.16l.98-4.94c-.57-.13-.92,1.04-1.03,1.44ZM45.82,167.78s.19.22.23.6c.17,1.42-.36,3.08-.15,4.55-1.35-.85-.38-1.29-.3-2.07.11-1.08.01-1.88.22-3.08-.14-1.05-.22-1.52.19-2.7l1.49-2.11c-.59,1.8-1.34,2.85-1.68,4.8ZM42.61,184.02c1.14-2.1,2.17-4.05,2.38-6.5l.42,1.55.91-2.75c-.43,2.92-1.04,6.04-3.72,7.7ZM48.8,176.96c.17-1.66.49-3.37.77-4.95.14-.8-.3-2,.98-2.2l-1.39,8.9c-.49-.04-.39-1.43-.36-1.75ZM53.48,169.87c-.24.87.36,1.98-.59,2.97l-.05-3.49c2.04-4.94.94-10.41,1.61-15.5.08-.59.49-.95.66-1.48.63.04.19.88.11,1.3-.91,5.04-.03,9.9-1.16,15.14-.08.35-.46.69-.57,1.06ZM59.08,161.96c-.03,1.33.08,2.56-.42,3.95l-.1-3.18c-.11-.56.4-.63.52-.77.08-4.03-.65-8.17-.46-12.4.03-.76.33-1.53.43-2.28l.3,3.93c-1.39,2.72,1.39,8.81-.27,10.75ZM65.23,146.04c.03.85.73,1.68.52,2.56-1.39-1.06-.74-3.06-.93-4.58,1.22-.04.38,1.22.4,2.03ZM62.83,147.03c.44,1.72-.23,3.72-.44,5.5-.2,1.65-.02,3.48-.65,5.18-.63-.04-.18-.88-.11-1.3.15-.83.34-1.55.39-2.4.05-.9-.5-2.72-.4-3.11.11-.48.69-.64.78-.93.54-1.64-.47-5.2.44-7.08v4.14ZM66.61,136.84c-.26,1.46-.77,2.82-.48,4.31-.14.47-.65-.45-.64-.49l1.01-5.12c.63.04.19.88.11,1.3ZM70.68,132.44c-.18.73-.72,1.66-.95,2.48-.15.54.4.81-.62.41.38-1.59.1-2.85,1.19-4.17.52.01.45.98.38,1.28ZM74.62,117.69c-11.85,20.88-25.56,39.74-41.31,57.71-7.63,8.71-14.87,17.15-22.51,25.84-1.4,1.59-2.58,3.87-4.49,4.95,1.45-3.01,3.83-5.69,5.9-8.34,1.76-2.25,4.17-5.73,5.9-7.66,1.03-1.15,3.6-2.81,4.44-3.92.6-.78.64-2.37,2.16-3.85,3.79-3.69,7.26-8.29,11.19-11.85.68-.62,1.45-2.81,2.37-3.69.38-.36,1.03-.25,1.62-.89,1.22-1.32,2.84-3.73,4.1-5.31,2.46-3.07,4.88-6.97,7.2-9.84.58-.72,2-1.98,2.53-2.7,1.34-1.81,2.48-4.68,3.73-6.24,4.97-6.18,9.24-13.12,13.93-19.9,1.35-2.83,2.91-5.54,4.37-8.33.15-.28,0-.82.72-.77l-1.84,4.77ZM82,155.48l3.03-4.17c.68.06.15.78-.02,1.12-.52,1.02-1.18,1.77-1.98,2.56-.39.38-.16.87-1.03.49ZM83.21,156.82c.64.03.22.91.05,1.22-.3.58-1.04,1.59-1.74,1.74l1.69-2.97ZM80.26,166.14c-.02-.67.4-.99.71-1.46,1.34-2.03,2.92-3.87,4.08-6.03.59,0,.23,1.02.12,1.32-.55,1.5-2.95,3.85-3.96,5.54-.32.53.02.99-.94.63ZM81.07,170.34c.49-1.61,1.47-4.1,3-4.91-.05,1.51-1.64,2.66-2.16,3.86-.35.83-.23,1.85-.75,2.53-.65-.66-.28-.87-.09-1.48ZM85.14,169.31c.51,0,.45.95.34,1.19-.3.63-2.21,2.26-2.94,2.69.17-1.82,2.41-2.06,2.6-3.89ZM85.64,172.34c.64.04.21.9.05,1.23-.27.56-.83,1.02-.93,1.78l-2.92,3.22,3.8-6.22ZM80.18,185.92c2.17-2.61,4.98-4.8,6.53-7.86.68.07.15.77-.02,1.12-1.38,2.82-3.47,3.96-5.39,6.12-.81.91-1.02,2.18-2.05,2.66-.2-1.61.29-1.28.93-2.04ZM78.93,198.9c.51-1.46.44-3.8,1.01-5.12.78-1.82,3.55-4.8,4.87-6.45.7-.87,1.71-1.32,1.71-2.7l.18,2.06c-1.71,2.28-4.19,3.99-5.63,6.52-.94,1.65-.98,3.51-1.52,5.28-.15.51.42.83-.62.41ZM80.57,205.46c-.34-2.56-.05-4.87,1.15-7.19,1.14-2.22,3.82-3.49,4.75-5.95.65.04.2.87.05,1.21-.95,2.09-3.45,3.38-4.65,5.86-1.07,2.21-.72,2.76-.8,4.97-.02.4.15,1.29-.49,1.09ZM81,210.68c.48-1.58.48-3.61,1.01-5.12.19-.55,1.26-2.49,1.63-3.06.31-.47,3.2-3.9,3.43-4.02.57-.28.97-.01.64.49-1.24,1.91-4.36,3.52-4.85,6.02l-1.15,5.83-.71-.14ZM88.24,205.7c-.41,1.72-3.28,3.33-3.85,4.81-.2.51.03,1.15-.02,1.75-.03.37-.04,1.38-.61,1.17.19-1.35-.06-3.08.68-4.29.76-1.25,3.45-2.21,3.18-4.11.65.09.78-.02.61.68ZM82.49,215.98c-.09-1.37.07-2.49.42-3.81,1.3.03.24.73.13,1.57-.12.88-.09,2.3.02,3.22-1.07-.04-.53-.35-.57-.98ZM84.98,216.88c1.88-2.22,3.4-3.8,3.5-6.92l.3,2.11c-.07.68-.41,1.77-.81,2.3-.22.29-.56.12-.67.19-.12.08-.47,2.13-1.24,2.52l-2,4.11.92-4.31ZM86.65,223.02c.49-1.59,2.21-3.17,2.77-4.8.62.02.22.94.09,1.28-.88,2.32-3.25,3.69-2.42,6.88l-1.11,1.8c.71-1.56.22-3.73.66-5.16ZM89.93,226.76c-.28.8-.74,1.52-1,2.34-.23.72.3,1.88-.97,2.04.19-1.63.33-3.45,1.96-4.38ZM90.67,235.89c.11-.58.56-1.07.73-1.68.3-1.09.09-2.64,1.18-3.26.47.08.11,1.63.03,1.94-.24.95-1.03,2.33-1.19,3.14-.16.82.58,2.29-.91,2.57.42-.88-.01-1.92.15-2.72ZM92.47,241.76c.29-1.98.86-3.87.8-5.9.51.02.47,1.07.44,1.39-.17,1.7-.49,3.46-.64,5.17-.49.39-.69-.08-.6-.66ZM92.65,242.71l1.45,1.94.46,1.37c-.73-1.06-2.2-1.85-1.91-3.31ZM101.04,239.22l-.92-1.68-.28-1.5c.61.8,1.51,2.12,1.2,3.17ZM102.73,236.26l-1.11-.94c-.4-1.37-1.42-2.36-2.04-3.53-.31-.58-.78-1.48-.67-2.15,1.81,1.86,2.53,4.43,3.83,6.62ZM100.91,228.74c.27.46.73.75.46,1.38-1.14-1.97-3.95-3.66-3.19-6.13.57.08.19.77.44,1.39.36.89,1.71,2.37,2.29,3.37ZM100.6,220.54c.08.1-.02.44.2.67.46.47,1.39.75,1.66,1.59l1.3,4.49-1.36-1.83c.1-2.81-5.06-4.55-5.33-7.01-.08-.75,1.25.82,1.39.91.66.43,1.68.64,2.14,1.19ZM103.33,220.23c-.21.11-1.07-.47-1.24-.71-.79-1.13-1.58-3.17-2.33-4.41-.54-.9-1.39-1.77-1.89-2.57-.03.45.04.71.14,1.13l-.7-.14-.5-3.03c.68.48.61,1.32,1.06,2.04.02-.24.02-.75.32-.67,1.89,2.75,3.87,5.22,5.14,8.35ZM104.33,214.81c.24.52.64,1.1.47,1.68l-2.83-4.23c1.19.29,1.88,1.53,2.36,2.55ZM97.16,207.98c-.18-.34-.84-1.71-.56-1.92l3.9,4.29.76,1.77c-1.49-1.24-3.2-2.38-4.11-4.14ZM104.68,210.6c.36.46.84.96.6,1.59-1.54-1.93-3.48-3.44-5.17-5.27-.82-.9-2.12-2.36-2.86-3.29-.96-1.22-1.21-2.59-1.99-3.88,1.16-.34,1.49,1.83,1.84,2.29,1.12,1.5,3.18,3.74,4.53,5.39.9,1.09,2.22,2.11,3.04,3.17ZM105.17,207.66l-.43.29-2.68-4.02.43-.29,2.68,4.02ZM101.88,203.43c-.68.01-.77-.52-1.1-.95-.56-.73-1.54-1.91-1.45-2.86l2.55,3.8ZM105.4,200.46c-.69-.13-1.43-.59-1.24-1.31l-1.07.12c-.92-2.67-3.07-5.06-4.61-7.5-1.14-1.81-2.85-4.26-3.74-6.07-.36-.73-.75-1.65-.92-2.45-.14-.67-.53-.73.35-1.15.7,1.19,1.01,2.58,1.63,3.8,2.4,4.67,4.88,7.91,8.2,11.83.2.23,1.54,2.65,1.4,2.72ZM97.7,196.74l-1.45-1.99c-.06-1.62-2.05-2.71-2.02-4.56.41-.29,2.9,3.95,3.15,4.47.33.69.57,1.31.32,2.08ZM105.74,195.03c-1.02-1.17-1.91-2.25-2.57-3.64-.3-.63-.35-.41.34-.84.6.45,2.89,3.94,2.23,4.47ZM103.08,189.91c-.23.46-.54.46-.92,0-1.54-1.82-2.76-4.41-4.24-6.35-1.21-1.57-3.07-2.97-3.88-4.9-.18-.43-.36-1.64-.41-2.18.85,1.32,1.82,2.55,2.74,3.83,1.64,2.31,3.31,4.7,5.01,7.06.56.79,1.74,1.41,1.71,2.53ZM102.5,183.56c.84,1.44,1.94,3.3,1.95,4.97l-1.16-2.44-9.79-14.58-.53-2.86c1.18,1.71,2.11,3.61,3.18,5.39,1.93,3.21,4.49,6.36,6.34,9.52ZM100.68,176.05c-.78.03-.86-.9-1.16-1.52-.22-.46-.79-.71-.47-1.37.13-.1,2.11,2.53,1.63,2.89ZM94.88,165.39c.11,1.32,1.26,2.2,1.72,2.99.56.97,1.06,2.18,1.68,3.16-.3.18-1.43-1.18-1.68-1.49-.96-1.19-2.2-3.71-2.73-5.21-.19-.54-.5-.89-.2-1.55l1.21,2.1ZM96.95,155.12l1.15,2.44c-2.03-.11-1.21-.73-1.41-1.38-.31-1.02-1.97-2.44-1.57-3.98l1.82,2.92ZM91.33,132.51c.8,10.79-.51,21.01-.76,31.78-.14,5.94.46,11.88-.24,17.78.18-.03.48.13.7.14,0,1.83,0,3.72.19,5.55,1.02,10.59,2.58,21.18,3.83,31.77.49,4.12.59,8.41,1.18,12.51.86,5.98,2.46,11.83,3.07,17.85-1.31-2-1.6-4.7-2.1-7.02-.69-3.26-1.25-6.63-1.89-9.91-2.1-10.64-3.87-22.06-5.04-32.91-.57-5.32-1.73-12.33-1.15-17.47l1.71-53.23c.98.71.41,2.15.49,3.17ZM198.06,219.87c-.03,1.44-1.4.16-2.04.02-1.21-.27-2.82.04-4.1-.5.04-.49,1.44-.39,1.75-.36,1.57.16,2.9.89,4.39.84ZM160.35,30.07c-.27.7-1.28,1.57-1.86,2.02-.35.27-.79.64-1.23.67-.34-.61,2.4-2.58,3.1-2.69ZM150.63,34.92l2.34-2.46.46.44-2.34,2.46-.46-.44ZM158.14,40.26c-.35.37-.91.53-1.24.89-.67.71-1.12,1.87-2.09,2.14l.71-1.45,4-3.86c-.32.65-.92,1.79-1.38,2.28ZM162.35,40.37c-.48,1.48-2.23,2.31-3.52,2.97-.01-.68.52-.77.95-1.1.83-.63,1.7-1.31,2.57-1.88ZM154.79,37.78c.16.22-2.36,1.86-2.61,2.05-.91,1.5-.87,1.53-2.32,2.48-.75.95-1.54,2.47-3.03,2.34-.4-.61,2.65-2.09,3.03-2.34.97-1.23.99-1.45,2.32-2.48.19-.31.03-.65.58-1.18.38-.37,1.42-1.06,2.03-.87ZM148.4,38.53c-2.43,2.28-4.31,5.1-7.22,6.83-.06-.82.44-.91.81-1.31,1.08-1.18,2.31-1.92,3.2-2.76.81-.77,1.66-1.97,2.55-2.83.31-.3.94-.96.66.07ZM144.27,37.17c-1.03,2.27-3.49,3.54-5.23,5.23-.83.8-1.28,2.14-2.51,2.42.67-1.87,2.61-3.09,3.97-4.37,1.13-1.06,2.24-2.63,3.78-3.28ZM126.57,46.88c2.77-.48,4.22-3.5,6.48-4.96.06.75-.46.93-.78,1.35-1.47,1.92-3.41,3.48-5.66,4.35l-.04-.74ZM121.28,47.67l3.03-3.93,1.61-1.02c-1,1.91-2.86,3.81-4.64,4.95ZM133.76,40.23l3.17-3.04c-.24,1.61-1.86,2.43-3.17,3.04ZM131.64,37.97c-.26-.46,1.61-2.13,2.25-2.12-.13.66-.79,1.09-1.25,1.59-.16.17-.56,1.31-1,.54ZM129.38,38.26l-1.93,3.28c-.65-.68-.24-.67.07-1.26.39-.72,1-1.81,1.86-2.03ZM120.76,42.92c-2.15.95-3.64,4.37-6.32,4.13,2.48-1.34,4.59-3,5.92-5.57l3.45-2.85-3.04,4.29ZM117.17,42.21c-1.08,1.16-2.42,2.26-3.8,2.79-.24.96-1.27,1.34-2.13,1.62-.63.21-.59.73-1.08-.24,1.23-.33,2.02-.93,3.21-1.38l6.48-6.79c-.47,1.34-1.71,2.96-2.68,4ZM108.63,42.97c-.36,1.01-1.77,1.66-2.65,2.24-.25.16-.37.57-.59.7-.88.53-2.98.6-4.02.4,1.1-1.04,2.98-.94,4.32-1.55,1.02-.46,1.83-1.46,2.94-1.79ZM100.02,43.84c.25.44-1.88,3.07-2.74,2.76-.53-1.94,1.34-2.12,2.74-2.76ZM61.99,37.31c.19.33,1.06,1.91.75,2.1-1.67-.09-1.75-1.95-1.56-3.24.48.17.59.76.8,1.14ZM56.61,29.56c.3.3.81.33,1.13.79.24.34.64,1.46.54,1.94-1.04.05-.52-.78-.99-1.32-.36-.42-.99-.49-1.31-.97-.17-.25-.45-1.36-.25-1.52.68-.53.69.89.88,1.08ZM54.8,25.73c-.43-.34-2.4-2.96-1.91-3.31,1.09.71,2.08,1.92,1.91,3.31ZM42.41,6.77l3.12,4.65c-.79.02-.9-.36-1.32-.8-.92-.98-2.14-2.39-1.8-3.85ZM40.16,8.89c.52-.34,2.8,2.78,3.26,3.34,1.48,1.8,3.61,3.74,4.89,5.45.33.44.76.72.49,1.35-2.12-2.01-4.71-4.22-6.61-6.44-.38-.44-2.67-3.28-2.02-3.7ZM212.53,219.06l-8.92-.29c-7.14-.89-13.27-2.45-20.15-4.25-6.4-1.67-12.64-4.17-18.41-7.57-9.77-5.76-19.5-11.52-26.53-20.86l-1.24-2.08,8.27,8.39c8.93,7.52,19.75,15.14,30.89,19.13,9.16,3.28,17.88,5.72,27.66,6.6,2.68.24,5.41.19,8.1.19.72,0,.43.14.33.73ZM219.16,218.9c-2.06-.08-4.17.45-6.21-.13l5.34-.5.87.63ZM211.49,215.46c-2.24.14-3.46-.44-5.29-.6-1.29-.12-2.93.06-4.2-.08.44,1.07.22.75-.67.6-5.84-1-11.22-1.82-16.94-3.36-2.03-.54-4.09-1.03-6.12-1.57l2.89.21c-1-.94-2.91-.84-4.13-1.35-3.44-1.44-6.99-3.44-10.28-5.08-11.3-5.59-18.03-11.41-26.38-20.48-2.32-2.51-7.88-8.63-8.2-12.11-.06-.65.06-1.18.16-1.8l-.97-.25c-.07-2.82-.91-5.86-1.12-8.61-.18-2.36.3-4.84-.23-7.18l1-.32c1.04.82.25,1.28.17,2.26-.29,3.54.42,8.59,1.14,12.13,1.5,7.43,5.15,9.89,9.72,15.24,1.07,1.26,2.01,3.06,3.25,4.26,4.79,4.59,14.19,11.31,20.01,14.47,4.25,2.31,8.37,3.83,12.77,5.52,2.26.87,4.77,2.33,7.01,2.97,5.36,1.55,13.55,2.8,19.15,3.42,2.02.22,4.72-.04,6.62.27.87.14-.03.42,1.76.36.86-.03,1.78.21,2.66.08-.79.87-2.63.92-3.78.99ZM221.1,214.24c-1.67.18-3.55.86-5.33.71l-.39-1.02,9.46-.5,7.51-1.83c-.47.5-1.92,1.35-2.51,1.51-2.88.78-5.8.81-8.74,1.13ZM214.38,211.54l3.63.17c-.75.8-3.12.94-3.63-.17ZM221.37,211.45l3.42-.61c-.5.78-1.4.93-2.23,1.02-.65.07-.81.42-1.19-.42ZM238.21,211.66c.3.5-1.98,2.3-2.5,2.44-.59.15-.59-.4-.39-.8.9.18,1.28-.62,1.86-1.14.18-.16.61-1.21,1.03-.49ZM231.56,206.31c-.02.52-.71.38-1.1.41-.84.08-1.75-.07-2.53.33l-.04-.73c1.3-.13,2.35-.54,3.67-.01ZM203.42,189.01c2.99.67,5.99,1.26,8.91,2.15.31.09,1.29.46,1.12.94l-7.94-1.57c-.14-.03-2.03-.98-2.38-1.18-.2-.11-.39-.22-.41-.47-1.05-.23-2.12-.41-3.18-.63l2.48-.14,1.4.91ZM218.25,190.1h-1.57s-1.04-1.61-1.04-1.61l2.61,1.61ZM201.16,185.63c-.04.44-1.54.64-1.76.61-.67-.09-2.33-.65-3.13-.89-.53-.16-1.24-.25-1.5-.8l4.39,1.06,2,.02ZM209.06,186.46l-2.35.16-2.52-1.49c1.71-.1,3.25.95,4.87,1.33ZM251.51,194.48l-.08-5c.57-3.21-.13-6.62-1.04-9.72l.73-.04c.9,4.85,1.82,9.95.39,14.75ZM168.84,161.63l2.61-.22c.03,1.37-1.82.16-2.61.22ZM160.82,157.66c.71-.63.53-.28.97-.04,2.31,1.24,4.6,2.57,7.26,2.95-1.18,1.24-2.78-.31-3.8-.63-1.18-.37-5.28-.58-4.43-2.28ZM158.01,147.75l.39.8-3.34,4.86c.15-2.26,1.84-3.84,2.95-5.65ZM150.48,158l-1.06-.21c.29-2.02,1.52-3.48,2.5-5.18.59-1.02.9-2.68,2.06-3.09-.6,2.94-4.09,5.39-3.51,8.48ZM161.19,150.21c-.36,1.08-1.36,1.92-1.84,2.92-.47.97-.63,3.79-2.38,3.59-.2-.37,2.85-6.51,4.22-6.5ZM172.99,155.48l3.67,1.82c-1.12-.1-1.99-.44-2.98-.92-.57-.28-1.07.11-.69-.9ZM188.47,162.58l3.32,1.75c-.99-.07-1.76-.43-2.63-.85-.57-.28-1.07.11-.69-.9ZM194.55,165.24c1.07.49,3.25.61,3.67,1.82-1.06-.08-1.99-.53-2.93-.95-.58-.26-1.12.18-.74-.87ZM175.48,163.31l-1.06.27-2.44-1.14c1.46-1.19,2.03.92,3.5.87ZM177.6,163.73c1.14.2,2.88.48,3.32,1.75-.63-.21-1.39-.37-1.97-.65-.38-.18-1.46-.59-1.35-1.1ZM170.52,165.52c6.71,2.09,12.91,4.92,19.38,7.88,2.48,1.14,4.77,1.69,7.14,3.34,1.8.5,3.83,1.25,5.58,1.93.95.37,2.26.77,2.9,1.58,1.59.48,3.29.81,4.87,1.33l-.68.61-4.55-2.01c-2.79-.82-5.78-1.81-8.13-3.44-4.46-1.24-12.5-4.51-16.83-6.64-.76-.37-1.37-1.22-2.36-1.45-6.16-1.44-13.24-4.77-19.32-7.31-.31-.13-1.03-.37-.84-.81,4.58.82,8.42,3.62,12.84,4.99ZM192.61,169.46l12.86,5.47-1.59-.16c-1.34-.82-2.99-1.09-4.38-1.66-2.52-1.03-4.76-2.29-7.34-3.2-1.03-.36-1.84-.67-2.93-.95-.47-.12-1.54.02-1.14-.77l4.13,1.37.39-.1ZM186.01,167.59l-3.36-1.58c1.05-.65,3.15.35,3.36,1.58ZM250.55,178.88c-.53-.54-.83-1.78-1.03-2.52-.16-.59-.49-1.17-.32-1.78.91,1.18,1.62,2.83,1.35,4.3ZM185.93,162.44c-.66-.14-1.26-.47-1.87-.74-.57-.26-1.13.19-.74-.87.6.31,1.23.51,1.86.75.6.24,1.14-.19.76.86ZM217.94,136.55c.6.4,1.07.97,1.88,1.04-.04.65-.87.2-1.22.05-.27-.12-1.94-1.08-1.85-1.21.47-.75.81-.13,1.19.12ZM200.01,134.68l-.6-1.49,2.68,1.26-2.08.23ZM177.79,123.77c.04-.48,1.44-.39,1.75-.36,1.84.19,3.65.67,5.52.7-.29.67-.82.49-1.37.47-2-.08-3.96-.34-5.9-.81ZM197.85,128.11c-2.79-.52-5.45-1.39-8.23-1.99-.42-.09-1.37,0-1.16-.59,1.11.49,2.35.04,3.42.28.76.17,5.52,2.02,5.97,2.31,2.61.31,5.65,1.51,8.1,2.69.46.22,1.09.23,1.08.96-2.52-.36-4.77-1.78-7.05-2.78-.86-.38-1.22-.27-2.14-.87ZM170.17,125.2l2.11-.27,3.74.33-2.57.51c-1.16-.19-2.27.13-3.29-.57ZM182.25,129.06l7.06,1.4c-.94.48-2.41-.11-3.42-.31-1.12-.22-2.85-.26-3.64-1.09ZM191.19,131.2c-.67-.22-1.1.1-.75-.89,1.38.7,3.33.79,4.62,1.35.54.23.86.71,1.7,1.01.63.23,1.11-.16.75.87-1.97-1.14-4.18-1.63-6.32-2.34ZM161.7,127.2l2.61-.22c-.01.95-.29.58-.88.72-.64.16-2.29.7-1.73-.5ZM170.76,128.89l2.28.05-.02.85-2.28-.05.02-.85ZM221.03,138.92c1.83.31,2.62,2.25,4.17,3.03l-1.08-.04-3.08-2.99ZM185.23,135.79c-1.06-.36-1.73-.59-2.86-.84-.42-.09-1.37,0-1.16-.6,1.79.32,3.57.62,5.22,1.4-.07.68-.82.17-1.2.04ZM230.57,146.31l3.69,2.27c2.96,2.84,5.53,5.93,8.04,9.01.4.49,1.28,1.02,1.54,1.43.31.5.06,1.1.18,1.26.12.16.61.1.87.32.69.59,4.6,7.78,5.08,9.01.17.44.35,1.26.5,1.81.1.35.62,1.03.03,1.21-.48-.61-.56-1.46-.87-2.12-.13-.29-.48-.33-.61-.62-.77-1.67-1.18-3.37-2.28-5.16-1.15-1.88-3.13-3.53-3.32-5.61-.13-.16-.79.2-1.08-.03-.09-.07-1.38-1.56-1.42-1.67-.58-1.38-1.43-2.6-2.62-3.9-1.98-2.15-4.61-4.21-6.85-6.13-.35-.3-.9-.54-.88-1.1ZM239.42,157.23c-1.02-.28-1.3-1.45-2.01-2.17-1.11-1.15-2.98-2.23-3.79-3.74.61.08,1.07.59,1.52.97,1.58,1.32,3.45,3.06,4.28,4.94ZM203.17,142c2.56.39,4.69,2.24,7.06,3.23l-1.22.05-5.85-3.28ZM228.51,148.82c-.3-.25-.14-.58-.35-.79-.4-.4-1.31-.56-1.33-1.35l2.9,2.04-.14.7c-.3-.33-.87-.42-1.08-.6ZM224.65,149.82c-.34-.31-.78-.65-.78-1.16.97.49,2.24,1.37,3.01,2.12.31.31.72.73.74,1.19-1-.46-2.16-1.4-2.97-2.14ZM228.65,152.35c.47-.74.8-.15,1.19.12.79.53.72.78,1.1,1.25.84.49,1.65.95,2.36,1.63l8.71,8.71.03,2.12c-.78-1.06-1.25-2.3-2.09-3.35-2.58-3.2-6.38-5.89-9.02-9.12-.22-.13-2.5-1.05-2.3-1.37ZM142.53,138.82l-2.25,3.96c.24-1.31.95-3.29,2.25-3.96ZM138.73,143.21c.48.48,1.32.67,1.76,1.07.24.22.37,1.49,1.42,1.4.07-1.38,1.63-1.46,2.61-2.05.01,1.32-1.71,2.14-2.07,3.08-1.25,3.3-1.57,7.25-3.54,10.49.71,1.02-.94,1.91-1.29,2.87-.48,1.33-.45,2.43-.16,3.77.07.34.21,1.23.62,1.26.04-1.4.02-2.8.44-4.17.2-.65.45-.63.54-.78,1.03-1.68,1.35-3.06,2.14-4.8.5-1.1,1.38-2.04,1.65-3.25.75.42.5.51.25,1.04-.92,1.98-1.63,4.56-2.14,6.65.51,1.35-.4,3.3-.64,4.78l-.34.16c-.09,1,.25.64.5,1.2l.78-.21c-.01-.09.05-.23.07-.35-.89-.51-.47-.86-.27-1.52.34-1.11.85-4.01,1.27-4.54.16-.2.54-.17.6-.23.44-.47.4-1.4.98-1.27l-1.47,5.72,1.92,1.34c.55-2.27.62-4.64,1.38-6.85.13-.38,2.14-5.28,2.97-4.02-1.87,2.89-2.45,6.04-2.88,9.44l.79,2.99.73-3.72,1.76-4.23c.94,1.06-.27,1.93-.44,3.02-.09.59.12,1.21.04,1.84-.19,1.45-1.25,3.27.24,4.28.87-1.89,1.69-3.51,1.84-5.66l.82-.26c-.4-2.5,1.42-4.88,2.58-7.08.18-.34.31-1.04.8-.86-.73,2.26-1.52,4.63-2.76,6.62l-1.77,7.15.8.53c.12.03,1.13-.96,1.29-1.21.87-1.33,1.55-5.18,2.41-6.96.32-.65,1.07-1.64,1.63-2.14l-1.22,3.99c-.13,1.1,2.65,1.31,3.39,1.6,6.16,2.44,13.02,5.27,18.23,9.08,1.46,1.07,6.94,3.7,8.89,4.61,4.79,2.25,10.1,3.6,14.77,6.04.34.18,1.04.32.86.8-1.89.18-3.36-1.32-5.01-2-7-2.9-14-5.49-20.78-8.59-5.44-2.49-11.01-4.81-16.27-7.64-.6-.32-2.66-1.38-2.94-1.65-.33-.31.1-1.14-1.49-1.04,0,.71-.57,2.12.11,2.52,1.07.63,2.56,1.22,3.71,1.81,4.35,2.21,9.03,4.16,13.24,6.49,5.91,3.27,11.86,6.34,18.22,8.89,1.13.46,2.33.89,3.52,1.16.04.45-.84.47-1.06.43-1.02-.2-2.31-.99-3.34-1.31-9.18-2.86-16.83-6.12-25.2-10.84l-1.4.38c.09.09.18.19.28.3l1.4.82-.28.34c2.68,1.84,6.37,3.63,9.26,5.13,4.62,2.4,9.25,3.71,14,5.78,3.16,1.38,6.7,2.31,10.1,3.01l4.16,2.3-2.38-.09c-3.33-1.17-6.79-2.06-10.27-2.77l2.26-.29c-1.23.03-2.24-.76-3.27-1.02-2.57-.66-4.96-.91-7.53-1.85-1.8-.12-3.16-1.3-4.97-1.27-.17,0-.27.23-.32.23,2.06,1.7,4.7,2.36,7.15,3.33,2.75,1.1,4.8,1.88,7.83,2.57,2.8.63,5.89,1.53,8.58,2.06l13.07,2.58c.64.13,1.36.27,2.11.43,1.23.26,2.49.45,3.72.73l-1.9.36c.57.16,1.19.2,1.76.35l-.07.35-2.19-.06c.18.04,2.22.19,1.52.67-2.47-.51-4.95-.95-7.41-1.47-.59-.12-1.66-.07-1.87-.74-4.39-.61-8.57-1.29-12.96-2.19-.59-.12-1.66-.07-1.87-.74-4.13-.9-8.18-1.91-12.22-3.15-2.67-.82-4.49-1.16-6.78-2.81-.04-.03-.07-.28-.28-.42l-1.13.15-.07.35c.64.05.83.23.57.85,4.92,2.87,11.22,5.15,16.89,6.29l3.96,1.5c.12.02.24.04.35.07l.28-.25c1.06-.31,2.51.8,3.07.92l16.6,3.28c.06.01.61-.22,1.11-.17.59.06,1.19.3,1.78.37.19.08.14.23.11.39-.19,1.06-2.67.13-3.49.05-.35-.03-.7.22-.78.2l-5.3-1.05c-1.9-.37-4.9-.19-6.96-1.01-.61.48-1.35.09-2.01-.03-11.15-1.99-24.27-7.14-34.09-12.7-.83-.47-1.39-1.3-2.37-1.48-.49.07.26.83.39.97,1.57,1.82,4.52,3.01,6.41,4.59l9.71,4.67c4.15.55,8.79,3.59,13.49,4.13,5.2.6,11.31,2.27,16.79,3.33.95.18,2.26-.1,2.91.93,1.83.33,3.85.92,5.65,1.12.03,0-.05-.31.59-.25,1.23.11,2.51.38,3.79.38-.04,1.07-.35.53-.98.57-.95.06-1.48,0-2.4-.14-2.34-.35-4.74-1.11-7.06-1.4-1.5-.19-6.89-.68-7.98-.48-2.33.44-13.67-2.25-16.42-3.24-.61-.22-1.38-.06-1.45-1.02-.11-.03-.24-.07-.35-.07-.05,0-.35.32-.94.22-1-.17-1.93-.96-3.04-1.05h-.26c.09-.01.17,0,.26,0l1.93.06c-.4-.5-1.65-.9-2.28-1.09-.85-.26-2.01-.32-2.88-.66l-6.57-2.03c-.11.54,1.05.77,1.49.99,1.63.82,3.31,1.57,5.04,2.13l-.67.6,5.44,2.18,9.61,3.37c.45-.54,1.42-.08,2.01.03,6.78,1.27,13.46,2.44,20.27,3.28,1.44.18,3.94.31,5.42.31.57,0,1.09-.09,1.56-.41.44.84-.56.91-1.09.88-1.91.4-4.08.45-6.03.39-3.44-.09-8.13-.53-11.47-.92.85.69-.68.23-.95.18-1.76-.35-9.62-1.81-10.35-2.41-1.67-1.37-3.56-1.24-5.51-1.82-.97-.29-2.09-.66-3.11-.98h-1.83s-.06.33-.06.33c.01,0,.03.02.04.03.72.11,1.53.21,1.58,1.05,3.01,1.14,6.88,2.54,9.96,3.44.45-.54,1.42-.08,2.01.03,5.64,1.05,11.19,2.13,16.84,2.96,1.91.28,3.81.57,5.72.76l7.48-.72c-.03,1.03-.33.54-.94.63-2.78.43-3.78.38-6.54.09l-.07.35c.39.05,1.87.1,1.7.7l-4.24-.84c-.28-.01-.59-.16-.88-.17-.18.02-.24.15-.25.32,0,.04.33.21.29.42-5.88-.77-11.71-1.03-17.52-2.36-3.7-.84-8.01-1.7-11.59-3.11-6.27-2.47-12.51-5.22-18.49-8.14-1.54-.75-3.03-1.96-4.61-2.58-.31-.12-.72-.11-1.06-.21-1.15-.35-1.86-.99-3.18-.63,6.69,4.9,13.18,7.7,20.76,10.75,2.17.87,4.28,1.91,6.48,2.71.16.09.16.23.11.39,1.1-.03,1.98.71,2.92.95,1,.26,2.08.38,3.01.59.45-.54,1.42-.08,2.01.03,4.12.77,8.45,1.26,12.43,2.09.59.12,1.66.07,1.87.74,2.28.39,4.8,1.41,7.03.66l.04.74c-1.7.17-3.19-.38-4.82-.56-.69-.08-2.16-.1-2.81.15.44.09,1.85.07,1.7.7-1.23-.16-2.49-.6-3.71-.74-1.43-.16-3.3,0-4.72-.18-2.82-.36-5.79-1.13-8.48-1.67-1.84-.37-4.28-.57-5.76-1.52-1.55-.99-4.83-2.05-6.78-2.81-12.68-4.93-22.84-11.23-32.65-20.55-2.77-2.63-7.89-7.01-9.52-10.17-.76-1.48-1.24-3.46-1.7-4.99-.35-1.16-1.21-2.3-.83-3.57.4-.34.9,2.29,1.02,2.55.18.4.46.55.54.7l1.55,1.41.35-1.77c-.05-.26-.19-.52-.21-.78-.45-.36-.36-.95-.57-1.48-.04-.1-.42-.11-.51-.46-.22-.85.14-2.02-.07-2.97-.2-.9-1.32-1.77-1.37-2.45-.04-.48.21-3.95.38-4.08.76-.01.93.7.86,1.27,1.85.25,1.55-1.49,2.05-2.65.26-.59.92-.87,1.22-1.39,1.47-2.58,1.95-4.73,1.23-7.66-.08-.33-.47-.35-.6-.63l-.98-2.51ZM101.02,123.28c.52.68,1.13,1.59,1.56,2.33.27.47.73.75.46,1.37-.68.01-.77-.52-1.1-.95-.31-.4-2.39-3.47-2.02-3.7.68-.01.77.52,1.1.95ZM97.87,119.72c-1.64-.52-1.67-2.03-2.27-3.38.52-.31,2.99,2.4,2.27,3.38ZM92.88,109.44c.31.68,1.58,3.92,1.03,4.36l-.73-.87-1.68-5.47c.6.49,1.06,1.28,1.38,1.98ZM90.14,104.99l-1.29-1.35-.41-1.18c.49-.3,2.16,2.22,1.7,2.53ZM88.41,98.65l.88,3.24c-1.48-1.1-1.56-2.8-2.15-4.22-.78-1.86-1.89-4.03-2.48-5.74-.27-.77-.53-1.97-.54-2.8,2.29,2.6,2.41,6.58,4.3,9.53ZM137.64,98.6l3.11.98-.31.67c-.71-.96-2.55-.26-2.8-1.65ZM108.69,94.71c2.41.41,3.79,2.7,5.87,3.73l-1.11-.02-4.75-3.71ZM129.83,103.67c-1.43-.48-3.49-2.43-4.2-3.78l5.51,3.66c0,.6-.99.23-1.32.12ZM142.38,104.31c-.66,1.02-2.36-.4-3.35-.36l-1.74-1.74c1.72.78,3.05,2.04,5.09,2.11ZM138.17,104.27l-.44.46-2.46-2.34.44-.46,2.46,2.34ZM142.79,106.94c-1-.33-2.81-.99-3.09-2.07l3.75,1.47c-.1.59.03.82-.66.59ZM147.47,106.41c-.65-.01-1.17-.32-1.73-.52-.39-.14-1.49-.32-1.31-.81.99.33,2.76.03,3.04,1.33ZM148.52,105.86c-.9-.46-2.88-2.19-3.25-3.19l3.89,2.6c-.05.5-.02.9-.64.58ZM157.92,107.37l-5.66-2.49c-1.01-.39-1.92-.79-2.99-1.06-.7-.18-1.09.1-.75-.87,2.14,1.05,4.56,1.02,6.58,2.48l2.82,1.94ZM162.99,105.81c-2.45-.28-4.47-1.02-6.63-2.15-.34-.18-1.04-.32-.86-.8,1.65.56,3.31,1.18,4.97,1.72.86.29,2.33,0,2.52,1.22ZM153.67,102.41c-.87-.34-2.53-.99-2.83-1.93l4.38,1.97c-.08.69-1.19.11-1.55-.03ZM169.91,104.24l-2.02-.03-3.91-1.51c2.28-.47,3.93.81,5.93,1.54ZM161.7,102.27l-.27-.82-2.11-1.14c1.73.01,2.81,1.34,4.45,1.61l-2.06.35ZM172.09,101.69c1.81.63,3.32,1.71,5.3,1.82l-2.37-.1-4.23-1.76c.6-.61.76-.16,1.3.03ZM158.56,99.96l-2.99-1.13.23-.62,2.99,1.13-.23.61ZM168.84,100.36l-.31.67c-.67-.7-1.68-.64-2.57-1.03-.37-.16-1.63-.74-1.57-1.25l4.45,1.61ZM172.51,98.52l2.65,1.44c-.62.19-1.63-.39-2.23-.65-.31-.13-.44-.41-.49-.43l-4.1-1.55c1.27-1.55,2.78.91,4.17,1.19ZM180.98,98.36l-1.31.11-2.85-1.3c1.58-.36,2.64,1.01,4.17,1.19ZM188.67,98.41l-2.38-.09-1.08-.96c1.16.39,2.2.98,3.46,1.05ZM197.85,98.39l-2.12.2-2.18-.69c.04-.63.88-.18,1.3-.11,1,.18,2,.41,3,.6ZM201.02,97.18c-1.15-.69-2.83-1.07-4.16-1.35-.57-.12-.89.43-.57-.69,1.36.49,2.57.85,4,1.15.72.16,1.07-.04.74.88ZM196,94.72l-1.34.46-2.82-1.65,4.17,1.19ZM205.53,94.77c-.38.76-.57.42-1.05.27-1.77-.53-3.79-1.82-5.38-2.27-.92-.26-1.92.28-2.64-.35.55-.54,1.04-.32,1.68-.23,2.45.34,5.04,1.8,7.39,2.58ZM210.19,93.49l-2.02.26c-.72-1.59-2.5-.08-2.86-1.59l4.87,1.33ZM213.95,92.03l-.32.71-3.49-1.56.32-.71,3.49,1.56ZM220.7,90.43l-.07.35-6-1.19.07-.35,6,1.19ZM217.51,86.13l-11.68,1.54c-17.91,3.74-35.66,6.64-53.78,7.99-2.88.21-5.85.82-8.71.03-3.57.78-9.47.53-13.27.31.44,1.06.22.76-.67.6-8.3-1.44-16.2-2.93-24.38-4.82-.68-.16-1.49.08-1.09-.95-.35-.05-.71-.15-1.06-.21l-1.17.32-2.75-.92c.06-.32,2.37.29,2.86.38l-3.68-1.38c-3.05.05-4.51-3.14-7.26-4l-2.56-2.42,3.02,1.53c3.79,3.37,8.78,4.46,13.51,5.77.61-.48,1.35-.09,2.01.03,3.69.66,7.63,1.3,11.05,2.55,6.48,2.37,16.49,1.73,23.51,1.71,9.55-.03,17.37-.49,26.7-1.53,1.66-.19,3.49-.18,5.24-.41,13.22-1.75,26.32-5.05,39.71-6.11,1.37-.11,3.04-.14,4.42-.03ZM110.15,87.3l-2.41,1.19-1.82-.2,2.61-.9,1.62-.1ZM122.66,90.87c-.17-.29,1.36-1.61,1.67-1.85.44-.33.72-.76,1.36-.49.11.16-2.44,2.36-3.03,2.34ZM162.53,87.74c1.19.83.06.83-.45,1.39-.89,1-1.24,1.54-2.62,2.03l-.39-.8c1.38,0,2.72-1.54,3.46-2.62ZM152.15,88.26c-.37-.64,3.32-3.14,3.38-4.1.45-.03.96.18.6.67-.69.91-2.13,1.98-2.97,2.9-.16.17-.55,1.31-1,.54ZM168.1,87.37l-.94,1.12-1.66.94c.04-1.44,1.61-1.59,2.6-2.05ZM146.84,88.79c.42-.33.54-.92,1.29-.59-1.25.85-1.81,3.1-3.52,2.97-.24-.35,1.85-2.09,2.23-2.38ZM139.67,92.03l-.56-.38,1.92-2.81.56.38-1.92,2.81ZM137.05,90.18l-2.04,1.29c1.58-1.66,2.65-4.27,4.72-5.3l-2.67,4.01ZM192.03,83.29l.67.31c-1.01.76-1.5,2.73-3.06,2.51.91-.83,1.98-1.58,2.4-2.83ZM169.51,83.98c-.07-.12.59-1.26.66-1.29.27-.13.98.22,1.38.24l-1.06,1.63-.99-.57ZM179.61,86.71c-.18.48-.76.59-1.14.8-.7.4-1.72,1.1-2.52,1.04-.13-.17,2.91-2.35,3.67-1.84ZM159.91,86.35c-.87,1.02-1.15,2.24-3.03,2.11.81-.4,1.15-1.4,1.57-1.79.12-.11.5-.03.66-.23l2.28-2.22c.11,1.36-.9,1.46-1.48,2.14ZM151.97,82.72c.4.39-1.06,1.55-1.5,1.88-.44.33-.72.76-1.35.49-.16-.24,1.31-1.62,1.56-1.79.33-.22.96-.2,1.29-.58ZM146.94,83.65l-2.67,2.31-.43-.5,2.67-2.31.43.5ZM133.94,85.76l2.75-2.76c.67.08.21.8-.03,1.1-.19.23-2.5,1.99-2.72,1.66ZM133.66,87.17l-1.92,2.3c-1.1.25-1.57,1.78-2.87,1.52.22-1.46,1.58-1.54,2.44-2.08.9-.57,1.16-2.01,2.35-1.75ZM123.63,85.92c-.81,1.73-2.95,3.11-4.72,3.69-.54.18-.89.5-1.55.2,1.99-1.39,4.17-2.62,6.27-3.9ZM80.83,77.83c-1,.01-.54-.39-.72-.88-.42-1.13-.78-2.17-.63-3.42,1.22,1.15,1.97,2.62,1.35,4.3ZM76.44,65.61c.2.5,1.25,3.27.98,3.48l-1.24-1.23-2.02-6.39c.3-.23,2.11,3.71,2.28,4.14ZM69.12,55.45c2.02,5.03,4.51,10.2,6.68,15.49,5.23,12.78,8.86,26.42,14.48,38.95,2.17,4.85,5.56,9.94,9.01,14.38,5.83,7.5,10.83,12.57,19.09,17.4,5.6,3.27,11.89,6.54,18.04,8.44.31.09,1.62.53,1.48,1-2.97.2-5.77-1.45-8.54-2.39-14.86-5.08-24.68-13.71-33.82-26.36-6.16-8.53-10.36-20.36-14.14-30.36-1.84-4.87-5.32-13.01-6.27-17.88-.11-.57.44-.87.31-1.38-.12-.48-2.96-5.04-3.54-6.23-3.27-6.66-5.33-13.86-9.52-20.58-4.57-7.34-9.5-14.43-14.24-21.71l-11.12-12.46c.03-.41.45-.87.83-.56.67.54,1.37,1.13,1.99,1.74,3.96,3.9,9.77,10.12,12.5,14.76,5.4,9.19,12.77,17.79,16.77,27.76ZM67.7,45.89c-.61.4-2.41-2.55-.22-2.61l.22,2.61ZM92.99,51.62c.04-.63.88-.18,1.3-.11.77.14,1.53.31,2.3.45.4.5-.08.68-.66.6-1.09-.15-1.99-.4-2.94-.95ZM116.78,55.59c1.2,1.67,2.46,2.47,4.17,3.49.35.21,1.03.32.85.81-1.32-.26-2.22-.8-3.22-1.67-.36-.31-2.45-2.15-1.8-2.62ZM124.55,57.12c-.03.89-.29.78-1,.52-1.22-.43-2.73-1.64-3.31-2.84,1.56.4,2.6,2.75,4.31,2.32ZM103.43,56.23l.45-.52,2.67,2.34-.45.52-2.67-2.34ZM117.85,61.3l-8.62-4.64,5.08,1.63c.91.58,2.06,1.09,2.89,1.76.46.37.96.48.65,1.25ZM129.01,62.4l-2.65-1.44c.78-.72.65-.18,1.18.12.54.31,1.41.6,1.47,1.32ZM134.55,62.25c-1.6-.47-4.16-.84-5.42-1.61-.61-.38-.3-.8-.55-.9-.52-.21-1.93.01-1.83-.72l8.27,2.73c-.06.64.24.7-.46.49ZM141.36,61.18l-3.6-.34,1.91,1.47-3.39-1.4,2.27-.98,2.81,1.25ZM132.78,59.11l-3.98-2.54-1.29-1.43,5.58,3.31-.31.67ZM138.88,57.02c2.7,1.16,5.18,1.87,7.76,2.92.5.2,2.23.39,2.17.69l-5.47-.17.56-.99c-2.18.49-3.33-1.19-5.09-2.11-2.12-1.1-4.61-.55-5.65-2.95.83.05,1.14.92,1.76,1.28.91.52,2.71.78,3.96,1.32ZM143.95,55c1.59.88,3.26,1.02,5.17,2.2l4.91,1.15c-1.14.72-3.46,0-4.48-.68-.23-.16-.35-.42-.43-.47l-5.59-1.92-3.17-2.01c1.89-.16,2.4,1.07,3.59,1.73ZM150.59,54.53l-1.83-1.07c2.23.56,4.33,1.42,6.64,1.68,0,.51-1.4.28-1.69.22-.95-.18-2.05-.75-3.11-.83ZM160.76,55.84l-2.16.23-1.43-.58c.04-.63.88-.18,1.3-.11.77.14,1.53.31,2.3.46ZM155.25,54.02l-1.11-.02-2.92-1.87c1.6.07,2.68,1.24,4.03,1.9ZM164.96,53.22c.38.13,1.15.18.95.7-2.72-.32-5.18-1.59-7.8-2.28-.55-.15-.99-.47-.39-.8,2.43.67,4.85,1.57,7.25,2.39ZM177.27,52.13l-2.63.39c-.3.1-.58-.3-.69-.32-1.89.56-1.05.13-2.71-.2-1.44-.28-2.91.22-4.42-.84.04-.63.88-.18,1.3-.11,1.95.35,3.88.82,5.83,1.15,1.22-.36,2.01-.54,3.32-.08ZM179.95,51.56c-.99,1.35-2.39-.27-3.6-.35.06-.67.87-.16,1.28-.07.77.17,1.47.41,2.32.41ZM175.6,48.5c.07.01.32.37.65.49.79.27,2.6.11,1.61,1.07-2.31-1.01-4.9-1.21-7.35-1.82-.68-.17-.56-.07-.39-.81l5.47,1.08ZM188.27,46.6l-.14.71-6.71-1.33.14-.71,6.71,1.33ZM190.75,45.61l-3.31-.17.04-.82,3.31.17-.04.82ZM200.78,37.14c-5.98,1.19-11.83,2.66-17.72,4.18-13.52,3.49-26.85,7.11-40.66,9.05-10.62,1.49-21.64,2.01-32.46,1.63-4.42-.16-9.5-.56-13.78-1.59-2.52-.52-5.07-.98-7.59-1.5-.59-.12-1.66-.07-1.87-.74l.07-.35c-4.31-.96-8.16-2.35-12.22-4.05l-3.04-2.26c3.93.81,7.21,3.25,11.09,4.21,4.71,1.17,10.71,2.6,15.52,3.26,1.14.16,2.28-.12,3.41.29,0-.16.07-.31.25-.32,1.36.13,2.95.4,4.29.45,12.48.54,23.4.69,35.91-.58,8.91-.91,17.8-2.88,26.57-4.93,10.41-2.43,20.69-4.95,31.16-6.99.56-.11.57-.79,1.08.24ZM170.87,30.69c.06.09-1.19,1.43-1.43,1.66-.22.22-.58.12-.8.34-.46.45-.74,1.64-1.42,1.67.01-.64.36-1,.7-1.46.27-.38,2.45-2.93,2.96-2.21Z"/>
      </g>
      <ellipse class="cls-3" cx="288.21" cy="106.4" rx="176.43" ry="63.82"/>
      <g>
        <path class="cls-2" d="M190.1,76.18l3.57.89h1.98c.86.26,1.65.53,2.38.79.66.26,1.29.51,1.89.74.59.23.99.45,1.19.64.99.53,2.13.98,3.42,1.34,1.29.36,2.36,1.01,3.22,1.93.53.46,1.07,1.26,1.64,2.38.56,1.13,1.11,1.92,1.64,2.38,2.25,1.92,3.69,3.75,4.31,5.51.63,1.75.94,3.32.94,4.71l-.3,6.55v2.78c0,.73-.28,1.82-.84,3.27-.56,1.46-1.22,2.98-1.98,4.56-.76,1.59-1.47,3.06-2.13,4.41-.66,1.36-1.09,2.23-1.29,2.63-.46,1.39-1.27,2.53-2.43,3.42-1.16.89-2.3,1.6-3.42,2.13-1.79,1.39-3.46,2.65-5.01,3.77-1.55,1.12-3.29,1.69-5.21,1.69-.79,0-1.57-.08-2.33-.25-.76-.17-1.8-.25-3.12-.25-.27,0-.6.02-.99.05-.4.03-.83.08-1.29.15-.53.06-1.06.1-1.59.1h-1.69c-.53,0-1.21-.1-2.03-.3-.83-.2-1.6-.46-2.33-.79-.86-.33-1.79-.73-2.78-1.19-1.79-.79-3.61-1.67-5.46-2.63-1.85-.96-3.34-2.56-4.46-4.81-1.39-3.31-2.66-6.75-3.82-10.32-1.16-3.57-1.74-7.01-1.74-10.32,0-.66.06-1.26.2-1.79.13-.53.3-1.07.5-1.64.2-.56.43-1.14.69-1.74.26-.59.53-1.35.79-2.28,0-.99.15-1.92.45-2.78.3-.86.71-1.79,1.24-2.78,0-.2.3-.83.89-1.88.59-1.06,1.32-2.18,2.18-3.37.86-1.19,1.77-2.26,2.73-3.22.96-.96,1.77-1.44,2.43-1.44l2.78-1.09c.86,0,1.64-.03,2.33-.1.69-.06,1.4-.3,2.13-.69.73-.33,1.42-.61,2.08-.84.66-.23,1.32-.35,1.98-.35h6.65ZM181.56,83.91c-1.13,0-2.25.76-3.37,2.28-1.13,1.52-2.13,3.26-3.03,5.21-.89,1.95-1.62,3.82-2.18,5.6-.56,1.79-.84,2.94-.84,3.47v7.74c0,.93.58,2.33,1.74,4.22,1.16,1.88,2.59,3.77,4.31,5.65,1.72,1.88,3.55,3.56,5.51,5.01,1.95,1.46,3.72,2.18,5.31,2.18h1.88c1.39,0,2.89-.36,4.51-1.09,1.62-.73,3.11-1.72,4.46-2.98,1.35-1.26,2.5-2.73,3.42-4.41.93-1.69,1.39-3.45,1.39-5.31v-9.32c0-1.39-.18-2.5-.55-3.32-.36-.83-.84-1.62-1.44-2.38-.6-.76-1.29-1.62-2.08-2.58-.79-.96-1.62-2.26-2.48-3.92-.53-.4-1.11-.89-1.74-1.49-.63-.59-1.29-1.16-1.98-1.69-.69-.53-1.42-.99-2.18-1.39-.76-.4-1.47-.59-2.13-.59h-1.88c-.53,0-1.16-.03-1.89-.1-.73-.06-1.46-.16-2.18-.3-.79-.13-1.65-.3-2.58-.5Z"/>
        <path class="cls-2" d="M236.02,84.21c.73-.13,1.21-.03,1.44.3.23.33.78.69,1.64,1.09.73.4,1.35.86,1.88,1.39.53.53.79,1.16.79,1.88-.07.33-.13.69-.2,1.09-.13.86-.07,1.69.2,2.48,0,.59-.12,1.31-.35,2.13-.23.83-.28,1.51-.15,2.03.13.27.33.53.59.79.2.2.41.38.65.55.23.17.45.18.64.05.66-.13,1.37-.76,2.13-1.89.76-1.12,1.5-2.38,2.23-3.77.73-1.39,1.45-2.74,2.18-4.07.73-1.32,1.39-2.22,1.98-2.68l3.08-.79c.4-.13.84-.16,1.34-.1.5.07.88.1,1.14.1,1.26.73,2.05,1.74,2.38,3.03.33,1.29.56,2.3.69,3.03.06.93-.25,2.15-.94,3.67-.69,1.52-1.57,2.78-2.63,3.77-.46.27-.89.48-1.29.64-.4.17-.79.32-1.19.45-.33,0-.58-.02-.74-.05-.17-.03-.38-.11-.65-.25-.33-.13-.64-.21-.94-.25-.3-.03-.65-.05-1.04-.05-.86,0-1.67.33-2.43.99-.76.66-1.51,1.36-2.23,2.08-1.13,1.39-2,2.96-2.63,4.71-.63,1.75-.94,3.39-.94,4.91-.46.46-1.01,1.04-1.64,1.74-.63.69-1.11,1.51-1.44,2.43-.4.93-.58,1.88-.55,2.88.03.99-.15,1.95-.55,2.88.06.79.06,1.7,0,2.73-.07,1.03-.18,2.1-.35,3.22-.17,1.13-.38,2.2-.65,3.22-.27,1.03-.56,1.93-.89,2.73-.46.33-1.03.63-1.69.89-.66.26-1.36.46-2.08.6-.79.2-1.65.33-2.58.4-.33,0-.76-.27-1.29-.79-.27-.27-.5-.53-.69-.79l-1.39-2.78c-.07-.46,0-1.26.2-2.38.2-1.12.43-2.26.69-3.42.26-1.16.51-2.2.74-3.12.23-.93.35-1.45.35-1.59,1.45-2.18,2.41-4.48,2.88-6.89.46-2.41.96-4.81,1.49-7.19l-.79-6.55c-.33-.86-.74-1.29-1.24-1.29s-1.01.07-1.54.2c-1.06.2-1.82.48-2.28.84-.46.36-.86.74-1.19,1.14-.33.4-.69.78-1.09,1.14-.4.36-1.09.61-2.08.74-.53,0-.86-.33-.99-.99-.13-.66-.27-1.26-.4-1.79-.13-.59-.03-1.17.3-1.74.33-.56.78-1.09,1.34-1.59.56-.5,1.21-.99,1.93-1.49.73-.5,1.39-1.01,1.98-1.54.79-.86,1.49-1.8,2.08-2.83.6-1.02,1.19-1.98,1.79-2.88.6-.89,1.27-1.65,2.03-2.28.76-.63,1.74-1.01,2.93-1.14Z"/>
        <path class="cls-2" d="M273.82,85.6c1.19,0,2.2.3,3.03.89.83.59,1.52,1.32,2.08,2.18.56.86.96,1.77,1.19,2.73.23.96.35,1.77.35,2.43v3.67c0,.73-.2,2.03-.59,3.92-.4,1.89-.84,3.84-1.34,5.85-.5,2.02-.94,3.9-1.34,5.65-.4,1.75-.6,2.86-.6,3.32v1.88c0,.4-.25,1.01-.74,1.84-.5.83-1.03,1.85-1.59,3.07-.56,1.22-1.09,2.66-1.59,4.32-.5,1.65-.74,3.54-.74,5.65v5.55c.53.93.88,1.92,1.04,2.98.16,1.06.74,2.25,1.74,3.57.53.99.88,2.12,1.04,3.37.16,1.26.45,2.35.84,3.27.2,1.19.35,2.12.45,2.78.1.66.18,1.26.25,1.79.07.53.1,1.06.1,1.59v5.95c-.2.99-.56,1.83-1.09,2.53-.53.69-1.11,1.34-1.74,1.93-.63.59-1.27,1.14-1.93,1.64-.66.5-1.19.97-1.59,1.44-.93.93-1.97,1.79-3.12,2.58-1.16.79-1.93,1.19-2.33,1.19l-2.78.89h-1.88c-.6,0-1.42.13-2.48.4-1.06.26-1.82.4-2.28.4h-5.75c-.93,0-1.75-.2-2.48-.59-.73-.4-1.39-.88-1.98-1.44-.6-.56-1.14-1.16-1.64-1.79-.5-.63-.94-1.17-1.34-1.64-.4-.2-.83-.55-1.29-1.04-.46-.5-.89-1.03-1.29-1.59-.4-.56-.71-1.14-.94-1.74-.23-.6-.35-1.09-.35-1.49v-2.78c0-1.13.15-2.08.45-2.88.3-.79.71-1.75,1.24-2.88.27-.86.86-1.9,1.79-3.12.93-1.22,1.62-2.3,2.08-3.22.27-.33.63-.61,1.09-.84.46-.23.93-.48,1.39-.74.46-.27.93-.55,1.39-.84.46-.3.83-.68,1.09-1.14.93-.53,1.69-1.03,2.28-1.49.59-.46,1.39-.89,2.38-1.29.46,0,.94-.15,1.44-.45s.97-.66,1.44-1.09c.46-.43.91-.86,1.34-1.29.43-.43.84-.78,1.24-1.04.59-.4,1.07-.68,1.44-.84.36-.17.55-.51.55-1.04.53-.46,1.17-.91,1.93-1.34.76-.43,1.4-.91,1.93-1.44.33-1.19.63-2.35.89-3.47.26-.93.5-1.87.69-2.83.2-.96.3-1.7.3-2.23,0-.86-.4-1.35-1.19-1.49-.79-.13-1.69-.2-2.68-.2h-.79c-.27,0-.71-.2-1.34-.59-.63-.4-1.27-.88-1.93-1.44-.66-.56-1.24-1.09-1.74-1.59-.5-.5-.74-.84-.74-1.04v-1.98c0-1.32-.15-2.33-.45-3.03-.3-.69-.45-1.5-.45-2.43,0-1.39.35-3.12,1.04-5.21.69-2.08,1.49-4.15,2.38-6.2.89-2.05,1.74-3.93,2.53-5.65.79-1.72,1.29-2.94,1.49-3.67.46-.4,1.04-.71,1.74-.94.69-.23,1.04-.84,1.04-1.84.99-.79,2.13-1.72,3.42-2.78,1.29-1.06,2.63-1.59,4.02-1.59ZM263.6,145.12c-.93,0-1.79.28-2.58.84-.79.56-1.65,1.31-2.58,2.23,0,.26-.38.74-1.14,1.44-.76.69-1.59,1.59-2.48,2.68-.89,1.09-1.72,2.4-2.48,3.92-.76,1.52-1.14,3.24-1.14,5.16,0,.73.45,1.39,1.34,1.98s1.9,1.12,3.03,1.59c1.12.46,2.23.83,3.32,1.09,1.09.26,1.83.4,2.23.4.66,0,1.4-.25,2.23-.74.83-.5,1.59-1.14,2.28-1.93.69-.79,1.27-1.65,1.74-2.58.46-.93.69-1.85.69-2.78v-3.87c0-.26-.05-.91-.15-1.93-.1-1.03-.31-2.08-.64-3.17-.33-1.09-.78-2.08-1.34-2.98-.56-.89-1.34-1.34-2.33-1.34ZM269.75,99.09c-.73,0-1.34.38-1.84,1.14-.5.76-.93,1.64-1.29,2.63-.36.99-.63,1.95-.79,2.88-.17.93-.25,1.55-.25,1.89v4.46c.33,1.06.63,1.98.89,2.78.26.73.56,1.36.89,1.88.33.53.66.79.99.79l1.39-1.29c.53-1.85,1.02-3.57,1.49-5.16.33-1.32.66-2.63.99-3.92.33-1.29.5-2.13.5-2.53,0-.33-.02-.81-.05-1.44-.03-.63-.15-1.24-.35-1.84-.2-.59-.5-1.12-.89-1.59-.4-.46-.96-.69-1.69-.69Z"/>
        <path class="cls-2" d="M313.79,83.91c1.39,0,2.38.4,2.98,1.19.6.79.89,1.89.89,3.27,0,.26-.1.84-.3,1.74-.2.89-.45,1.88-.74,2.98s-.61,2.2-.94,3.32c-.33,1.13-.6,2.02-.79,2.68,0,.53-.03,1.08-.1,1.64-.07.56-.3,1.31-.69,2.23-.53.4-.79,1.04-.79,1.93v1.93l-.3,5.26v3.87c0,.2.02.55.05,1.04.03.5.1.99.2,1.49.1.5.28.93.55,1.29.26.36.63.55,1.09.55l1.39-2.18c.4-.33.86-.74,1.39-1.24.53-.5,1.06-.97,1.59-1.44.6-.53,1.19-1.09,1.79-1.69.4,0,.73.17.99.5.26.33.4.69.4,1.09l-.4.79c-.27.53-.53.93-.79,1.19-.46,1.32-1.06,2.46-1.79,3.42-.73.96-1.52,1.89-2.38,2.78-.86.89-1.74,1.8-2.63,2.73-.89.93-1.74,1.98-2.53,3.17l-2.18,3.07c0,.6-.18,1.21-.55,1.84-.36.63-.79,1.12-1.29,1.49-.5.36-1.03.53-1.59.5-.56-.03-1.01-.41-1.34-1.14-.4-1.19-.6-2.37-.6-3.52s.1-2.28.3-3.37c.2-1.09.4-2.13.59-3.12s.3-1.95.3-2.88v-5.56c0-.33-.23-.56-.69-.69-.27-.06-.5-.1-.69-.1s-.69.58-1.49,1.74c-.79,1.16-1.7,2.48-2.73,3.97-1.03,1.49-2.07,2.99-3.12,4.51-1.06,1.52-1.92,2.61-2.58,3.27-.2.27-.51.64-.94,1.14-.43.5-.89.98-1.39,1.44-.5.46-1.04.88-1.64,1.24-.6.36-1.13.55-1.59.55-.93,0-1.69-.33-2.28-.99-.6-.66-1.06-1.44-1.39-2.33-.33-.89-.58-1.79-.74-2.68-.17-.89-.25-1.54-.25-1.93l-.3-7.14,1.39-11.61c0-.2.1-.66.3-1.39.2-.73.46-1.52.79-2.38.33-.86.71-1.7,1.14-2.53.43-.83.88-1.5,1.34-2.03,1.92-1.79,3.77-3.97,5.55-6.55.86-1.19,1.69-2.05,2.48-2.58.79-.53,1.59-.94,2.38-1.24.79-.3,1.59-.53,2.38-.69.79-.16,1.69-.51,2.68-1.04.4,0,.91-.21,1.54-.64.63-.43,1.21-.84,1.74-1.24h4.46l1.88-.89ZM301.1,94.93c-1.19.99-2.32,2.13-3.37,3.42-1.06,1.29-1.98,2.6-2.78,3.92-.79,1.32-1.42,2.56-1.88,3.72-.46,1.16-.69,2.07-.69,2.73,0,.33-.03.94-.1,1.84-.07.89-.03,1.82.1,2.78.13.96.38,1.82.74,2.58.36.76,1.01,1.14,1.93,1.14.86,0,1.87-.76,3.03-2.28,1.16-1.52,2.25-3.24,3.27-5.16,1.02-1.92,1.88-3.7,2.58-5.36.69-1.65,1.04-2.64,1.04-2.98,0-.26.03-.91.1-1.93.07-1.02.02-2.02-.15-2.98-.17-.96-.53-1.65-1.09-2.08-.56-.43-1.47-.21-2.73.64Z"/>
        <path class="cls-2" d="M337.01,85.9c.73,0,1.29.23,1.69.69.4.46.76.96,1.09,1.49.2.46.26,1.09.2,1.89-.07.79-.18,1.59-.35,2.38-.17.79-.33,1.55-.5,2.28-.17.73-.25,1.22-.25,1.49l.3,1.59,1.09,1.98c.26,0,.78-.38,1.54-1.14.76-.76,1.65-1.7,2.68-2.83,1.02-1.12,2.1-2.33,3.22-3.62,1.12-1.29,2.21-2.5,3.27-3.62,1.06-1.12,2.02-2.07,2.88-2.83.86-.76,1.49-1.14,1.89-1.14.53,0,.97.33,1.34.99.36.66.71,1.36,1.04,2.08.33.86.63,1.85.89,2.98.06.93,0,2.22-.2,3.87-.2,1.65-.51,3.46-.94,5.41-.43,1.95-.89,3.94-1.39,5.95-.5,2.02-.96,3.87-1.39,5.55-.43,1.69-.79,3.09-1.09,4.22-.3,1.13-.45,1.72-.45,1.79,0,.26-.03.58-.1.94-.07.36-.1.69-.1.99s.08.55.25.74c.16.2.51.3,1.04.3.4-.26.79-.53,1.19-.79.33-.26.69-.53,1.09-.79.4-.26.83-.56,1.29-.89,1.12-.73,2.17-1.4,3.12-2.03.96-.63,1.57-.94,1.84-.94.4,0,.83.21,1.29.64.46.43.69.84.69,1.24,0,.13-.22.5-.65,1.09-.43.6-.94,1.22-1.54,1.89-.6.66-1.19,1.26-1.79,1.79-.59.53-1.03.79-1.29.79,0,.53-.18,1.03-.55,1.49-.36.46-.74.69-1.14.69-1.06,1.13-1.95,2.22-2.68,3.27-.73,1.06-1.46,2.03-2.18,2.93-.73.89-1.52,1.6-2.38,2.13-.86.53-1.95.79-3.27.79-.46,0-.94-.17-1.44-.5-.5-.33-.94-.74-1.34-1.24-.4-.5-.71-1.02-.94-1.59-.23-.56-.35-1.04-.35-1.44l-.3-3.57c.4-1.79.91-3.7,1.54-5.75.63-2.05,1.21-3.97,1.74-5.75.53-1.52.96-2.98,1.29-4.37.33-1.39.56-2.71.69-3.97v-1.09c-.27-1.85-.93-2.78-1.98-2.78-1.59,0-2.84.35-3.77,1.04-.93.69-1.69,1.59-2.28,2.68-.59,1.09-1.11,2.27-1.54,3.52-.43,1.26-.91,2.45-1.44,3.57-.33.4-.55.78-.64,1.14-.1.36-.08.81.05,1.34-.13.79-.28,1.59-.45,2.38-.17.79-.38,1.55-.64,2.28-.73,2.12-1.42,4.22-2.08,6.3-.66,2.08-1.26,4.02-1.79,5.8.33.53.28.84-.15.94-.43.1-.84.15-1.24.15s-.96-.02-1.69-.05c-.73-.03-1.44-.15-2.13-.35-.69-.2-1.32-.5-1.88-.89-.56-.4-.88-.96-.94-1.69-.13-1.12,0-2.3.4-3.52.4-1.22.84-2.36,1.34-3.42.5-1.06.97-1.98,1.44-2.78.46-.79.69-1.32.69-1.59v-3.57l-.5-1.69c0-.4.13-.91.4-1.54.26-.63.55-1.26.84-1.89.3-.63.58-1.21.84-1.74.26-.53.4-.93.4-1.19v-1.39l-.3-3.87c0-.4-.05-.81-.15-1.24-.1-.43-.41-.64-.94-.64-.4,0-.84.1-1.34.3-.5.2-.99.41-1.49.65s-.96.45-1.39.64c-.43.2-.78.3-1.04.3h-.79c-.46-.26-.58-.78-.35-1.54.23-.76.35-1.34.35-1.74,1.65-2.31,3.26-4.35,4.81-6.1,1.55-1.75,3.42-3.32,5.6-4.71.46-.26,1.09-.59,1.88-.99.79-.4,1.55-.59,2.28-.59Z"/>
        <path class="cls-2" d="M378.97,84.21c1.12,0,2.05.41,2.78,1.24.73.83,1.09,1.7,1.09,2.63l-.89,2.78c.4.4.66.96.79,1.69.06.33.1.69.1,1.09,0,1.32-.15,2.55-.45,3.67-.3,1.13-.45,2.38-.45,3.77v.79c0,.33-.03.71-.1,1.14-.07.43-.17.84-.3,1.24-.13.46-.27.96-.4,1.49v1.09c0,.73-.12,1.32-.35,1.79-.23.46-.48,1.06-.74,1.79-.13.53-.35,1.08-.64,1.64-.3.56-.45,1.21-.45,1.93,0,.27.07.61.2,1.04.13.43.33.86.6,1.29.26.43.58.79.94,1.09.36.3.78.45,1.24.45.53,0,1.01-.16,1.44-.5.43-.33.78-.69,1.04-1.09.33-.33.68-.61,1.04-.84.36-.23.78-.35,1.24-.35h1.88c.4,0,.63.2.69.6.07.4.1.86.1,1.39,0,.2-.3.59-.89,1.19-.6.59-1.26,1.24-1.98,1.93-.73.69-1.46,1.36-2.18,1.98-.73.63-1.22,1.04-1.49,1.24-.2.46-.63,1.26-1.29,2.38-.66,1.13-1.39,2.27-2.18,3.42-.79,1.16-1.64,2.18-2.53,3.07-.89.89-1.67,1.34-2.33,1.34-.46,0-.98-.15-1.54-.45-.56-.3-1.08-.69-1.54-1.19-.46-.5-.84-1.01-1.14-1.54-.3-.53-.45-1.06-.45-1.59v-1.59c0-.53-.03-.99-.1-1.39-.07-.4-.3-.59-.69-.59v-1.89l.79-2.78v-4.66c0-.99.13-1.79.4-2.38.26-.59.4-1.35.4-2.28v-.89c0-.46.15-1.12.45-1.98.3-.86.61-1.79.94-2.78.33-.99.64-1.97.94-2.93.3-.96.45-1.8.45-2.53,0-.53-.22-1.11-.64-1.74-.43-.63-1.14-.94-2.13-.94-.4,0-.74.13-1.04.4-.3.27-1.14.4-2.53.4-.13-.06-.27-.23-.4-.5-.27-.4-.4-.89-.4-1.49v-1.59c0-.59.58-1.47,1.74-2.63,1.16-1.16,2.48-2.31,3.97-3.47,1.49-1.16,2.93-2.18,4.32-3.07,1.39-.89,2.28-1.34,2.68-1.34ZM379.26,60.8c.26,0,.61-.05,1.04-.15.43-.1.88-.2,1.34-.3.46-.1.91-.2,1.34-.3.43-.1.74-.15.94-.15.93.33,1.52.89,1.79,1.69.26.79.66,1.62,1.19,2.48,0,.53.05,1.06.15,1.59.1.53.15,1.03.15,1.49,0,.4-.13.88-.4,1.44-.27.56-.4,1.27-.4,2.13-.13.46-.31,1.03-.55,1.69-.23.66-.53,1.27-.89,1.84-.36.56-.79,1.03-1.29,1.39-.5.36-1.08.48-1.74.35-.93,0-1.93-.31-3.03-.94-1.09-.63-1.9-1.44-2.43-2.43-.46-.4-.63-.99-.5-1.79.13-.79.2-1.49.2-2.08,0-1.79.3-3.24.89-4.37.6-1.12,1.32-2.31,2.18-3.57Z"/>
        <path class="cls-2" d="M409.32,85.01c.86.13,1.8.33,2.83.59,1.02.27,1.93.65,2.73,1.14.79.5,1.42,1.16,1.88,1.98.46.83.63,1.9.5,3.22,0,.73-.15,1.42-.45,2.08-.3.66-.66,1.27-1.09,1.84-.43.56-.91,1.01-1.44,1.34-.53.33-.99.5-1.39.5-.53-.06-.98-.11-1.34-.15-.36-.03-.64-.05-.84-.05h-1.39c-1.13,0-2.38.03-3.77.1-1.39.07-2.35.3-2.88.69-.53,0-.84.17-.94.5-.1.33-.15.73-.15,1.19l-1.39,2.18c-.13.79-.27,1.55-.4,2.28-.13.59-.27,1.19-.4,1.78-.13.6-.23.99-.3,1.19v1.59l-.79,2.78c-.13.26-.3.53-.5.79-.13.27-.27.51-.4.74-.13.23-.23.45-.3.64,0,.6.1,1.41.3,2.43.2,1.03.46,2.02.79,2.98.33.96.71,1.8,1.14,2.53.43.73.91,1.13,1.44,1.19.99,0,2.02-.4,3.07-1.19,1.06-.79,2.1-1.67,3.12-2.63,1.02-.96,2.02-1.82,2.98-2.58.96-.76,1.84-1.11,2.63-1.04.99.13,1.55.38,1.69.74.13.36.13.74,0,1.14-.07.93-.45,1.98-1.14,3.17-.69,1.19-1.52,2.37-2.48,3.52-.96,1.16-1.95,2.22-2.98,3.17-1.03.96-1.87,1.64-2.53,2.03-2.18,1.39-4.13,2.54-5.85,3.47-1.72.93-3.64,1.32-5.75,1.19-.93-.07-1.69-.55-2.28-1.44-.59-.89-1.06-1.92-1.39-3.07-.33-1.16-.58-2.3-.74-3.42-.17-1.12-.25-1.95-.25-2.48l.3-.89c0-.26-.03-.71-.1-1.34-.07-.63-.12-1.29-.15-1.98-.03-.69-.07-1.37-.1-2.03-.03-.66-.02-1.16.05-1.49,0-2.05.23-3.65.69-4.81.46-1.16.69-2.4.69-3.72l1.09-2.48v-2.28c.06-.2.23-.71.5-1.54.26-.83.58-1.75.94-2.78.36-1.02.71-2.07,1.04-3.12.33-1.06.6-1.89.79-2.48,0-.4.23-.89.69-1.49.46-.59,1.01-1.17,1.64-1.74.63-.56,1.29-1.04,1.98-1.44.69-.4,1.31-.59,1.84-.59.4-.13.63-.23.69-.3s.1-.13.1-.2.03-.15.1-.25c.06-.1.3-.21.69-.35.99-.13,1.75-.28,2.28-.45.53-.17,1.02-.33,1.49-.5.46-.16.91-.3,1.34-.4.43-.1,1.04-.11,1.84-.05Z"/>
      </g>
    </g>
  </g>
</svg>